<?xml version="1.0" encoding="UTF-8" standalone="no"?>
<svg
   xmlns:dc="http://purl.org/dc/elements/1.1/"
   xmlns:cc="http://creativecommons.org/ns#"
   xmlns:rdf="http://www.w3.org/1999/02/22-rdf-syntax-ns#"
   xmlns:svg="http://www.w3.org/2000/svg"
   xmlns="http://www.w3.org/2000/svg"
   viewBox="0 0 816.38397 1145.196"
   height="1145.196"
   width="816.38397"
   xml:space="preserve"
   id="svg2"
   version="1.1"><metadata
     id="metadata8"><rdf:RDF><cc:Work
         rdf:about=""><dc:format>image/svg+xml</dc:format><dc:type
           rdf:resource="http://purl.org/dc/dcmitype/StillImage" /></cc:Work></rdf:RDF></metadata><defs
     id="defs6"><clipPath
       id="clipPath18"
       clipPathUnits="userSpaceOnUse"><path
         id="path16"
         d="M 0,858.897 H 612.288 V 0 H 0 Z" /></clipPath></defs><g
     transform="matrix(1.3333333,0,0,-1.3333333,0,1145.196)"
     id="g10"><g
       id="g12"><g
         clip-path="url(#clipPath18)"
         id="g14"><g
           transform="translate(417.6504,428.7578)"
           id="g20"><path
             id="path22"
             style="fill:#ffffff;fill-opacity:1;fill-rule:nonzero;stroke:none"
             d="m 0,0 c 0,-62.222 -50.441,-112.664 -112.664,-112.664 -62.223,0 -112.665,50.442 -112.665,112.664 0,62.225 50.442,112.664 112.665,112.664 C -50.441,112.664 0,62.225 0,0" /></g><g
           transform="translate(414.5381,428.8516)"
           id="g24"><path
             id="path26"
             style="fill:#282838;fill-opacity:1;fill-rule:nonzero;stroke:none"
             d="m 0,0 c 0,-60.505 -49.048,-109.55 -109.554,-109.55 -60.503,0 -109.549,49.045 -109.549,109.55 0,60.504 49.046,109.551 109.549,109.551 C -49.048,109.551 0,60.504 0,0" /></g><g
           transform="translate(390.6182,428.9463)"
           id="g28"><path
             id="path30"
             style="fill:#ffffff;fill-opacity:1;fill-rule:nonzero;stroke:none"
             d="m 0,0 c 0,-47.225 -38.281,-85.51 -85.507,-85.51 -47.225,0 -85.509,38.285 -85.509,85.51 0,47.226 38.284,85.509 85.509,85.509 C -38.281,85.509 0,47.226 0,0" /></g><g
           transform="translate(283.624,429.6357)"
           id="g32"><path
             id="path34"
             style="fill:#d0cfcd;fill-opacity:1;fill-rule:nonzero;stroke:none"
             d="m 0,0 c 0,0.184 -0.011,0.364 -0.012,0.547 l 6.133,-3.424 1,1.792 -7.185,4.015 C -0.135,5.626 -0.298,8.3 -0.561,10.945 L 5.914,7.78 6.818,9.623 -0.827,13.362 c -0.321,2.638 -0.741,5.243 -1.246,7.82 l 6.977,-2.274 0.635,1.951 -8.074,2.634 c -0.507,2.315 -1.102,4.596 -1.752,6.854 l 6.81,-1.391 0.409,2.013 -7.869,1.608 c -0.615,1.975 -1.294,3.921 -2.016,5.846 l 7.099,-1.45 0.412,2.013 -8.394,1.715 c -0.904,2.256 -1.885,4.472 -2.933,6.651 l 7.234,-0.767 0.213,2.044 -8.511,0.9 c -1.165,2.291 -2.418,4.528 -3.735,6.722 l 7.018,0.002 -10e-4,2.054 -8.261,-0.002 c -1.354,2.148 -2.792,4.237 -4.288,6.28 l 6.651,0.556 -0.171,2.045 -7.933,-0.661 c -0.685,0.895 -1.371,1.791 -2.084,2.663 l -2.648,-1.449 c 0.764,-0.925 1.5,-1.872 2.232,-2.823 l -2.9,-7.87 1.927,-0.71 2.441,6.618 c 1.51,-2.057 2.96,-4.159 4.322,-6.324 l -3.419,-7.321 1.863,-0.87 2.834,6.075 c 1.301,-2.18 2.528,-4.407 3.674,-6.683 l -4.011,-6.659 1.76,-1.061 3.332,5.53 c 0.995,-2.095 1.914,-4.23 2.773,-6.397 l -4.635,-6.246 1.654,-1.221 3.863,5.21 c 0.65,-1.756 1.251,-3.535 1.81,-5.333 l -4.952,-6.671 1.654,-1.225 4.024,5.428 c 0.636,-2.235 1.203,-4.499 1.694,-6.79 l -5.34,-5.709 1.503,-1.403 4.334,4.637 c 0.453,-2.389 0.821,-4.808 1.11,-7.252 l -6.093,-4.925 1.294,-1.596 5.069,4.097 c 0.238,-2.493 0.376,-5.012 0.44,-7.552 l -6.576,-4.739 1.204,-1.668 5.427,3.913 c 0,-0.067 0.004,-0.133 0.004,-0.199 0,-2.054 -0.079,-4.089 -0.194,-6.114 l -6.896,-4.016 1.032,-1.777 5.7,3.318 c -0.159,-1.996 -0.363,-3.979 -0.631,-5.943 l -7.304,-3.734 0.938,-1.831 5.974,3.057 c -0.333,-2.069 -0.706,-4.124 -1.156,-6.152 l -7.26,-3.269 0.842,-1.873 5.801,2.611 c -0.478,-1.929 -1,-3.841 -1.583,-5.727 l -7.429,-2.926 0.75,-1.911 5.853,2.303 c -0.686,-2.039 -1.425,-4.054 -2.229,-6.036 l -7.575,-2.123 0.557,-1.977 5.992,1.68 c -0.776,-1.784 -1.598,-3.541 -2.467,-5.273 l -7.74,-1.397 0.367,-2.027 6.184,1.119 c -0.874,-1.639 -1.794,-3.249 -2.75,-4.836 l -7.939,-0.577 0.148,-2.049 6.48,0.469 c -0.954,-1.502 -1.954,-2.969 -2.98,-4.42 l -7.569,-0.132 0.037,-2.055 6.024,0.106 c -1.067,-1.433 -2.157,-2.847 -3.293,-4.224 l 1.649,-2.655 c 1.635,1.945 3.185,3.961 4.684,6.017 l 3.34,-6.845 1.846,0.905 -3.825,7.831 c 1.001,1.437 1.963,2.904 2.896,4.39 l 3.512,-6.294 1.795,1 -4.076,7.302 c 1.067,1.783 2.091,3.593 3.057,5.44 l 4.239,-6 1.678,1.183 -4.874,6.899 c 0.948,1.913 1.86,3.846 2.697,5.82 l 4.808,-5.595 1.557,1.343 -5.499,6.403 c 0.861,2.154 1.67,4.334 2.395,6.553 l 5.299,-5.031 1.414,1.489 -6.038,5.734 c 0.618,2.035 1.181,4.095 1.682,6.179 l 5.52,-4.758 1.342,1.555 -6.339,5.465 c 0.448,2.056 0.829,4.138 1.16,6.237 l 5.522,-4.299 1.264,1.621 -6.42,4.995 c 0.288,2.122 0.492,4.268 0.657,6.426 l 5.85,-4.064 1.171,1.686 -6.86,4.767 C -0.073,-4.037 0,-2.027 0,0" /></g><g
           transform="translate(356.6582,368.0732)"
           id="g36"><path
             id="path38"
             style="fill:#d0cfcd;fill-opacity:1;fill-rule:nonzero;stroke:none"
             d="m 0,0 -7.566,0.132 c -1.026,1.45 -2.026,2.918 -2.98,4.42 l 6.48,-0.47 0.145,2.05 -7.935,0.577 c -0.957,1.586 -1.876,3.195 -2.749,4.834 l 6.179,-1.117 0.366,2.026 -7.735,1.398 c -0.869,1.73 -1.691,3.488 -2.467,5.271 l 5.991,-1.679 0.554,1.978 -7.571,2.123 c -0.805,1.98 -1.543,3.995 -2.23,6.033 l 5.849,-2.301 0.754,1.912 -7.429,2.924 c -0.582,1.887 -1.104,3.799 -1.584,5.729 l 5.798,-2.611 0.845,1.873 -7.258,3.268 c -0.451,2.027 -0.824,4.082 -1.157,6.151 l 5.971,-3.055 0.938,1.831 -7.3,3.732 c -0.268,1.964 -0.472,3.948 -0.632,5.944 l 5.698,-3.318 1.032,1.778 -6.894,4.013 c -0.115,2.027 -0.194,4.062 -0.194,6.117 0,0.066 0.004,0.131 0.005,0.198 l 5.424,-3.912 1.202,1.668 -6.571,4.736 c 0.063,2.54 0.202,5.061 0.44,7.555 l 5.068,-4.097 1.29,1.596 -6.089,4.923 c 0.29,2.444 0.657,4.863 1.11,7.254 l 4.334,-4.637 1.501,1.403 -5.337,5.708 c 0.49,2.292 1.058,4.554 1.692,6.789 l 4.024,-5.427 1.652,1.226 -4.949,6.67 c 0.558,1.797 1.159,3.575 1.809,5.33 l 3.862,-5.206 1.652,1.221 -4.632,6.245 c 0.86,2.166 1.78,4.301 2.774,6.395 l 3.329,-5.527 1.762,1.06 -4.012,6.655 c 1.146,2.278 2.374,4.506 3.676,6.686 l 2.83,-6.073 1.862,0.869 -3.415,7.32 c 1.362,2.165 2.812,4.267 4.322,6.324 l 2.44,-6.617 1.929,0.71 -2.903,7.867 c 0.733,0.952 1.471,1.9 2.235,2.827 l -2.65,1.449 c -0.713,-0.873 -1.398,-1.768 -2.084,-2.663 l -7.932,0.66 -0.173,-2.045 6.652,-0.556 c -1.497,-2.043 -2.934,-4.132 -4.288,-6.279 l -8.261,0.001 -0.002,-2.054 7.02,-0.001 c -1.318,-2.194 -2.572,-4.431 -3.736,-6.722 l -8.512,-0.901 0.216,-2.044 7.231,0.767 c -1.047,-2.179 -2.028,-4.394 -2.932,-6.65 l -8.393,-1.715 0.412,-2.014 7.098,1.45 c -0.722,-1.925 -1.401,-3.871 -2.016,-5.846 l -7.869,-1.608 0.409,-2.012 6.81,1.391 c -0.65,-2.258 -1.245,-4.538 -1.752,-6.853 l -8.077,-2.635 0.636,-1.951 6.979,2.274 c -0.504,-2.577 -0.925,-5.182 -1.246,-7.82 l -7.642,-3.739 0.899,-1.843 6.477,3.165 c -0.263,-2.646 -0.425,-5.32 -0.496,-8.017 l -7.188,-4.013 1,-1.792 6.135,3.424 c -0.001,-0.183 -0.012,-0.364 -0.012,-0.547 0,-2.028 0.073,-4.038 0.183,-6.038 l -6.862,-4.766 1.172,-1.687 5.85,4.065 c 0.165,-2.158 0.369,-4.305 0.657,-6.426 l -6.417,-4.995 1.261,-1.621 5.522,4.3 c 0.332,-2.1 0.712,-4.182 1.161,-6.24 l -6.338,-5.464 1.34,-1.554 5.519,4.759 c 0.502,-2.084 1.066,-4.143 1.684,-6.179 l -6.039,-5.736 1.415,-1.489 5.298,5.03 c 0.726,-2.217 1.535,-4.397 2.396,-6.551 l -5.501,-6.404 1.558,-1.342 4.807,5.595 c 0.838,-1.974 1.749,-3.909 2.699,-5.821 l -4.875,-6.898 1.676,-1.183 4.24,6 c 0.966,-1.848 1.992,-3.658 3.058,-5.442 l -4.074,-7.3 1.794,-1 3.512,6.293 c 0.933,-1.487 1.894,-2.953 2.895,-4.39 l -3.824,-7.831 1.844,-0.904 3.342,6.842 c 1.498,-2.055 3.048,-4.071 4.682,-6.014 l 1.652,2.654 c -1.135,1.377 -2.226,2.791 -3.293,4.225 l 6.02,-0.107 z" /></g><g
           transform="translate(259.4863,476.4355)"
           id="g40"><path
             id="path42"
             style="fill:#252222;fill-opacity:1;fill-rule:nonzero;stroke:none"
             d="m 0,0 1.136,-0.001 c 2.202,0.01 2.689,0.548 3.925,4.11 1.264,3.532 1.184,4.094 -1.023,4.088 L 2.902,8.195 Z M -1.921,10.663 6.351,10.658 C 12.943,10.65 12.165,7.536 10.946,4.113 9.718,0.663 8.273,-2.452 1.711,-2.452 l -8.28,0.002 z" /></g><g
           transform="translate(277.4658,476.0264)"
           id="g44"><path
             id="path46"
             style="fill:#252222;fill-opacity:1;fill-rule:nonzero;stroke:none"
             d="M 0,0 C 1.748,0.005 2.265,0.957 3.523,4.519 4.774,8.049 4.935,9.02 3.196,9.011 1.447,9.008 0.917,8.05 -0.32,4.518 -1.596,0.961 -1.748,0.008 0,0 M 4.014,11.331 C 9.827,11.327 11.139,9.421 9.413,4.519 7.67,-0.402 5,-2.312 -0.822,-2.312 c -5.821,0.006 -7.123,1.916 -5.393,6.831 1.731,4.895 4.403,6.804 10.229,6.812" /></g><g
           transform="translate(293.9316,476.0312)"
           id="g48"><path
             id="path50"
             style="fill:#252222;fill-opacity:1;fill-rule:nonzero;stroke:none"
             d="M 0,0 C 1.735,-0.011 2.269,0.948 3.521,4.513 4.771,8.04 4.931,9.002 3.167,9.01 1.437,9.006 0.925,8.049 -0.343,4.504 -1.585,0.946 -1.741,0 0,0 m 4.007,11.322 c 5.816,0 7.136,-1.912 5.399,-6.809 -1.746,-4.917 -4.402,-6.826 -10.227,-6.821 -5.826,0 -7.133,1.904 -5.402,6.821 1.747,4.893 4.41,6.8 10.23,6.809" /></g><g
           transform="translate(313.9131,483.3027)"
           id="g52"><path
             id="path54"
             style="fill:#252222;fill-opacity:1;fill-rule:nonzero;stroke:none"
             d="M 0,0 0.125,0.308 C 0.382,1.088 0.091,1.727 -1.009,1.73 -2.225,1.727 -2.983,1.157 -3.203,0.582 -4.102,-2.019 5.64,-0.755 3.945,-5.548 2.96,-8.337 -0.206,-9.585 -5.222,-9.588 c -4.722,0 -7.008,0.972 -6.046,3.695 l 0.159,0.452 5.498,-0.004 -0.098,-0.306 c -0.401,-1.117 0.222,-1.52 1.337,-1.515 1.153,-0.016 2.015,0.547 2.269,1.268 0.934,2.587 -8.478,1.298 -6.83,5.958 0.943,2.627 3.804,4.087 8.621,4.092 C 4.653,4.042 6.33,2.817 5.324,0.005 Z" /></g><g
           transform="translate(328.8115,484.4082)"
           id="g56"><path
             id="path58"
             style="fill:#252222;fill-opacity:1;fill-rule:nonzero;stroke:none"
             d="m 0,0 h -0.061 l -3.538,-5.576 h 3.19 z m -2.665,2.678 7.152,-0.005 0.675,-13.107 -6.061,0.005 0.243,2.294 -4.538,0.01 -1.38,-2.305 -6.071,0.005 z" /></g><g
           transform="translate(339.3467,487.085)"
           id="g60"><path
             id="path62"
             style="fill:#252222;fill-opacity:1;fill-rule:nonzero;stroke:none"
             d="m 0,0 6.349,-0.003 0.817,-8.08 0.067,-10e-4 2.866,8.09 h 5.327 l -4.647,-13.12 -6.252,0.009 -0.923,8.088 -0.061,0.009 -2.879,-8.106 -5.313,0.011 z" /></g><g
           transform="translate(286.3408,375.7822)"
           id="g64"><path
             id="path66"
             style="fill:#252222;fill-opacity:1;fill-rule:nonzero;stroke:none"
             d="m 0,0 v -5.435 l -2.889,-2.839 h -5.873 l -2.69,2.743 v 2.961 h 4.682 v -1.456 h 1.965 v 2.304 h -4.61 l -2.159,2.232 v 4.634 l 2.812,2.768 h 6.02 l 2.547,-2.6 V 2.646 H -4.684 V 3.688 H -6.77 V 2.136 h 4.706 z" /></g><g
           transform="translate(284.9336,375.2012)"
           id="g68"><path
             id="path70"
             style="fill:#252222;fill-opacity:1;fill-rule:nonzero;stroke:none"
             d="m 0,0 -1.432,1.431 h -4.804 l -0.558,0.558 v 2.743 l 0.922,0.896 h 3.056 L -1.967,4.732 V 4.489 H 0 V 5.094 L -1.967,7.105 H -6.671 L -8.71,5.094 V 1.65 l 1.48,-1.504 h 4.754 l 0.509,-0.56 v -3.493 l -0.968,-0.947 h -2.937 l -0.922,0.947 v 0.679 H -8.71 v -0.994 l 2.039,-2.062 H -2.16 L 0,-4.222 Z" /></g><g
           transform="translate(299.0811,383.6943)"
           id="g72"><path
             id="path74"
             style="fill:#252222;fill-opacity:1;fill-rule:nonzero;stroke:none"
             d="m 0,0 v -5.193 h -4.342 v 0.969 H -6.43 v -1.723 h 3.836 v -4.122 H -6.43 v -1.869 h 2.088 v 1.163 H 0 v -5.412 h -12.396 v 4.249 h 1.117 v 7.714 h -1.117 V 0 Z" /></g><g
           transform="translate(297.626,382.3066)"
           id="g76"><path
             id="path78"
             style="fill:#252222;fill-opacity:1;fill-rule:nonzero;stroke:none"
             d="m 0,0 h -9.486 v -1.478 h 1.115 V -11.959 H -9.486 V -13.39 H 0 v 2.574 h -1.454 v -1.143 h -4.999 v 4.708 h 3.882 v 1.309 h -3.882 v 4.464 h 4.999 V -2.424 H 0 Z" /></g><g
           transform="translate(311.2119,380.8291)"
           id="g80"><path
             id="path82"
             style="fill:#252222;fill-opacity:1;fill-rule:nonzero;stroke:none"
             d="m 0,0 v -10.481 l -2.863,-2.84 H -9 l -2.79,2.84 V 0.074 l 2.861,2.791 h 6.066 z" /></g><g
           transform="translate(309.7578,380.248)"
           id="g84"><path
             id="path86"
             style="fill:#252222;fill-opacity:1;fill-rule:nonzero;stroke:none"
             d="m 0,0 -2.064,2.059 h -4.73 L -8.93,0 v -9.242 l 1.967,-2.089 h 4.899 L 0,-9.315 Z" /></g><g
           transform="translate(307.8164,379.8828)"
           id="g88"><path
             id="path90"
             style="fill:#252222;fill-opacity:1;fill-rule:nonzero;stroke:none"
             d="M 0,0 V -8.564 L -0.946,-9.535 H -4.15 l -0.871,0.971 V 0 l 0.968,0.946 h 3.107 z" /></g><path
           id="path92"
           style="fill:#ffffff;fill-opacity:1;fill-rule:nonzero;stroke:none"
           d="m 306.384,379.471 h -2.185 v -7.715 h 2.185 z" /><g
           transform="translate(325.5752,383.6943)"
           id="g94"><path
             id="path96"
             style="fill:#252222;fill-opacity:1;fill-rule:nonzero;stroke:none"
             d="m 0,0 v -4.224 h -1.286 v -9.123 l -2.839,-2.84 h -5.944 l -2.815,2.84 v 9.123 h -1.261 V 0 h 6.744 v -4.08 h -0.628 v -7.858 h 1.937 V -4.08 H -6.719 V 0 Z" /></g><g
           transform="translate(324.1436,382.3066)"
           id="g98"><path
             id="path100"
             style="fill:#252222;fill-opacity:1;fill-rule:nonzero;stroke:none"
             d="m 0,0 h -4.003 v -1.478 h 0.777 v -9.558 l -0.922,-0.923 h -3.009 l -0.872,0.923 v 9.558 h 0.775 V 0 h -4.004 v -1.478 h 1.264 v -9.874 l 1.965,-2.038 h 4.705 l 2.037,1.942 v 9.97 H 0 Z" /></g><g
           transform="translate(333.4834,383.6943)"
           id="g102"><path
             id="path104"
             style="fill:#252222;fill-opacity:1;fill-rule:nonzero;stroke:none"
             d="m 0,0 v -4.224 h -1.333 v -7.714 H 0.46 v 2.595 h 4.319 v -6.844 H -7.255 v 4.249 h 1.118 v 7.714 H -7.255 V 0 Z" /></g><g
           transform="translate(332.0518,382.3066)"
           id="g106"><path
             id="path108"
             style="fill:#252222;fill-opacity:1;fill-rule:nonzero;stroke:none"
             d="m 0,0 h -4.367 v -1.478 h 1.116 v -10.481 h -1.116 v -1.431 h 9.146 v 4.052 H 3.324 v -2.621 H -1.334 V -1.478 H 0 Z" /></g><g
           transform="translate(305.1113,509.7031)"
           id="g110"><path
             id="path112"
             style="fill:#e6232a;fill-opacity:1;fill-rule:nonzero;stroke:none"
             d="m 0,0 c 30.822,0 57.602,-17.272 71.211,-42.662 h 5.344 C 62.541,-14.562 33.532,4.748 0,4.748 c -33.533,0 -62.546,-19.31 -76.554,-47.41 h 5.343 C -57.603,-17.272 -30.825,0 0,0" /></g><g
           transform="translate(305.1113,348.1875)"
           id="g114"><path
             id="path116"
             style="fill:#e6232a;fill-opacity:1;fill-rule:nonzero;stroke:none"
             d="m 0,0 c -31.04,0 -57.972,17.518 -71.491,43.198 h -5.332 C -62.915,14.805 -33.747,-4.751 0,-4.751 c 33.744,0 62.915,19.556 76.823,47.949 H 71.489 C 57.971,17.518 31.038,0 0,0" /></g><g
           transform="translate(223.2529,453.3652)"
           id="g118"><path
             id="path120"
             style="fill:#ffffff;fill-opacity:1;fill-rule:nonzero;stroke:none"
             d="M 0,0 V -17.605 L -2.933,-20.852 0,-23.982 V -42.54 l -11.975,-11.63 h -39.071 v 18.713 h 4.44 V -7.93 l -4.42,0.034 v 18.701 h 40.27 z" /></g><g
           transform="translate(273.0732,464.1748)"
           id="g122"><path
             id="path124"
             style="fill:#ffffff;fill-opacity:1;fill-rule:nonzero;stroke:none"
             d="m 0,0 v -21.244 h -18.965 v 3.654 h -6.073 v -4.69 h 14.813 v -17.926 h -14.813 v -5.184 h 6.073 v 3.633 H -0.102 L 0,-64.054 h -50.223 v 18.368 h 4.004 v 28.145 h -3.663 V 0.03 Z" /></g><g
           transform="translate(312.6523,464.1748)"
           id="g126"><path
             id="path128"
             style="fill:#ffffff;fill-opacity:1;fill-rule:nonzero;stroke:none"
             d="m 0,0 14.163,-46.286 h 5.799 V -64.979 H -8.395 v 17.692 h 3.949 l -0.593,1.963 h -10.565 l -0.397,-1.963 h 3.458 v -17.692 h -27.229 l 0.091,23.222 5.049,-5.357 L -19.057,0 Z" /></g><g
           transform="translate(388.2256,417.8887)"
           id="g130"><path
             id="path132"
             style="fill:#ffffff;fill-opacity:1;fill-rule:nonzero;stroke:none"
             d="m 0,0 v -18.693 h -27.356 v 17.482 h 0.924 l -2.505,5.924 h -2.666 v -5.924 h 3.754 V -18.693 H -56.192 V 0.01 h 4.941 v 27.567 h -4.422 v 18.719 h 39.756 L -4.956,35.116 -5.134,15.973 -10.37,10.639 -5.629,0 Z" /></g><g
           transform="translate(433.9873,433.1035)"
           id="g134"><path
             id="path136"
             style="fill:#ffffff;fill-opacity:1;fill-rule:nonzero;stroke:none"
             d="m 0,0 -0.217,-22.443 -11.887,-11.465 h -23.359 l -10.988,10.846 -0.004,13.49 h 19.953 v -5.762 h 5.726 v 6.715 h -17.11 l -8.988,8.982 -0.07,19.242 11.604,11.463 24.36,0.013 9.992,-10.201 V 8.213 h -19.491 v 4.302 h -6.122 V 8.609 L -7.756,8.144 Z" /></g><g
           transform="translate(228.3418,447.3115)"
           id="g138"><path
             id="path140"
             style="fill:#ffffff;fill-opacity:1;fill-rule:nonzero;stroke:none"
             d="M 0,0 V -16.724 L -0.095,-20.156 0,-23.101 -1.067,-41.659 -12.21,-52.616 l -39.53,0.019 -4.37,4.519 9.627,13.459 v 27.55 h -4.546 v 18.755 h 39.727 z" /></g><g
           transform="translate(277.8311,459.1133)"
           id="g142"><path
             id="path144"
             style="fill:#ffffff;fill-opacity:1;fill-rule:nonzero;stroke:none"
             d="m 0,0 v -21.821 h -18.962 v 3.526 h -6.074 v -2.676 h 14.956 v -19.941 h -14.956 v -5.184 h 6.074 V -41.8 L 0,-41.957 -0.021,-64.418 h -49.788 l -5.869,6.124 9.459,11.902 v 28.148 h -4.002 L -4.87,4.988 Z" /></g><g
           transform="translate(317.5068,459.166)"
           id="g146"><path
             id="path148"
             style="fill:#ffffff;fill-opacity:1;fill-rule:nonzero;stroke:none"
             d="m 0,0 14.321,-46.772 h 5.8 v -17.679 l -39.459,-0.02 v 17.021 h 15.05 l -0.592,1.963 h -10.567 l -0.396,-1.963 h 3.458 v -17.021 h -27.312 v 17.699 h 5.398 L -4.854,5.009 Z" /></g><g
           transform="translate(392.999,412.1396)"
           id="g150"><path
             id="path152"
             style="fill:#ffffff;fill-opacity:1;fill-rule:nonzero;stroke:none"
             d="m 0,0 v -17.425 h -32.909 l 5.863,16.534 h 0.927 l -2.504,5.928 h -2.667 v -5.928 h 3.755 V -17.425 H -55.879 V 0 h 4.838 v 28.047 h -4.545 v 18.51 h 40.257 l 10.19,-10.344 0.047,-18.818 -5.425,-5.397 5.161,-11.23 z" /></g><g
           transform="translate(438.5449,428.4248)"
           id="g154"><path
             id="path156"
             style="fill:#ffffff;fill-opacity:1;fill-rule:nonzero;stroke:none"
             d="m 0,0 v -22.03 l -11.853,-11.729 -23.602,-0.029 -10.235,10.215 -0.433,13.178 h 20.148 v -5.434 h 5.729 v 6.718 l -17.153,-0.039 -8.673,8.982 -0.618,19.572 11.518,11.324 24.269,0.297 L -0.754,20.681 -0.771,8.604 H -19.95 v 3.417 h -6.122 V 8.116 h 18.173 z" /></g><g
           transform="translate(437.4023,427.958)"
           id="g158"><path
             id="path160"
             style="fill:#ffffff;fill-opacity:1;fill-rule:nonzero;stroke:none"
             d="m 0,0 v -21.075 l -11.196,-11.008 h -22.771 l -10.44,10.634 V -9.97 h 18.158 v -5.645 h 7.62 v 8.936 h -17.876 l -8.374,8.654 v 17.97 l 10.912,10.726 h 23.333 l 9.88,-10.067 v -10.35 h -17.405 v 4.047 h -8.09 V 8.28 h 18.253 z" /></g><g
           transform="translate(227.0273,447.5254)"
           id="g162"><path
             id="path164"
             style="fill:#282838;fill-opacity:1;fill-rule:nonzero;stroke:none"
             d="M 0,0 V -16.277 L -3.052,-19.567 0,-22.613 v -17.935 l -11.386,-11.105 h -38.009 l -4.19,4.343 8.614,12.125 v 29.917 l 0.525,0.269 -4.949,16.101 h 38.667 z" /></g><g
           transform="translate(174.5771,400.626)"
           id="g166"><path
             id="path168"
             style="fill:#282838;fill-opacity:1;fill-rule:nonzero;stroke:none"
             d="M 0,0 7.932,11.256 V 42.662 H 3.428 V 57.673 L 40.857,57.576 51.894,46.707 v -15.77 l -3.425,-3.642 3.414,-3.378 V 15.67 L 51.257,15.771 51.002,5.75 41.053,-3.868 3.77,-3.875 Z" /></g><g
           transform="translate(222.8311,451.8711)"
           id="g170"><path
             id="path172"
             style="fill:#e6232a;fill-opacity:1;fill-rule:nonzero;stroke:none"
             d="M 0,0 V -16.277 L -2.915,-19.383 0,-22.483 V -40.55 l -11.385,-11.103 h -38.011 v 16.466 h 4.423 v 29.918 h -4.423 v 16.37 h 38.669 z" /></g><g
           transform="translate(218.5586,448.9551)"
           id="g174"><path
             id="path176"
             style="fill:#ffffff;fill-opacity:1;fill-rule:nonzero;stroke:none"
             d="M 0,0 -9.843,9.755 H -40.849 V 1.933 h 4.412 v -38.465 h -4.423 v -7.932 h 30.547 L 0,-34.529 v 12.889 l -6.358,4.987 6.358,4.986 z" /></g><g
           transform="translate(204.8105,450.8877)"
           id="g178"><path
             id="path180"
             style="fill:#e6232a;fill-opacity:1;fill-rule:nonzero;stroke:none"
             d="m 0,0 3.482,-2.594 v -9.971 l -3.292,-2.2 H -12.502 V 0 Z" /></g><g
           transform="translate(204.6143,428.3994)"
           id="g182"><path
             id="path184"
             style="fill:#e6232a;fill-opacity:1;fill-rule:nonzero;stroke:none"
             d="M 0,0 3.668,-2.685 V -13.22 l -3.95,-2.747 H -12.316 V 0 Z" /></g><path
           id="path186"
           style="fill:#282838;fill-opacity:1;fill-rule:nonzero;stroke:none"
           d="m 204.015,446.603 h -7.435 v -6.209 h 7.435 z" /><path
           id="path188"
           style="fill:#282838;fill-opacity:1;fill-rule:nonzero;stroke:none"
           d="m 204.015,424.114 h -7.435 v -7.43 h 7.435 z" /><g
           transform="translate(276.6436,458.627)"
           id="g190"><path
             id="path192"
             style="fill:#282838;fill-opacity:1;fill-rule:nonzero;stroke:none"
             d="M 0,0 -0.021,-20.151 H -16.95 l 0.11,3.782 h -8.088 l 6.586,2.086 8.274,-8.807 v -15.954 h -14.86 v -7.242 h 8.088 L -4.197,-37.428 0,-41.771 v -20.984 h -48.074 l -4.199,4.346 10.294,4.094 -1.771,37.946 2.561,-0.813 36.998,21.534 z" /></g><g
           transform="translate(262.0137,439.1152)"
           id="g194"><path
             id="path196"
             style="fill:#282838;fill-opacity:1;fill-rule:nonzero;stroke:none"
             d="M 0,0 3.672,-3.929 V -18.657 H -11.14 v -8.985 h 9.677 l 11.851,8.507 3.358,-3.457 v -19.767 h -46.841 l -3.82,3.956 8.592,10.858 V 3.862 h -4.276 L 9.848,23.175 13.746,19.126 13.747,0.249 h -13.76 z" /></g><g
           transform="translate(272.4463,462.9717)"
           id="g198"><path
             id="path200"
             style="fill:#e6232a;fill-opacity:1;fill-rule:nonzero;stroke:none"
             d="m 0,0 v -20.132 h -16.839 v 3.763 h -8.092 v -6.683 h 14.865 v -15.989 h -14.865 v -7.246 h 8.092 v 4.515 H 0 v -20.982 h -48.076 v 16.467 h 4.328 v 29.918 h -4.328 V 0 Z" /></g><g
           transform="translate(268.1738,458.7197)"
           id="g202"><path
             id="path204"
             style="fill:#ffffff;fill-opacity:1;fill-rule:nonzero;stroke:none"
             d="m 0,0 h -39.538 v -7.832 h 4.331 v -38.465 h -4.331 v -7.919 H 0 v 12.431 h -8.3 v -4.512 h -16.63 v 15.79 h 14.862 v 7.442 H -24.942 V -7.832 H -8.3 v -3.766 H 0 Z" /></g><path
           id="path206"
           style="fill:#ffffff;fill-opacity:1;fill-rule:nonzero;stroke:none"
           d="m 314.858,427.026 h -18.556 v -21.135 h 18.556 z" /><path
           id="path208"
           style="fill:#ffffff;fill-opacity:1;fill-rule:nonzero;stroke:none"
           d="M 371.94,427.026 H 353.384 V 405.891 H 371.94 Z" /><path
           id="path210"
           style="fill:#ffffff;fill-opacity:1;fill-rule:nonzero;stroke:none"
           d="M 421.912,424.855 H 403.357 V 403.72 h 18.555 z" /><path
           id="path212"
           style="fill:#ffffff;fill-opacity:1;fill-rule:nonzero;stroke:none"
           d="m 371.888,427.026 h -18.555 v -21.135 h 18.555 z" /><path
           id="path214"
           style="fill:#ffffff;fill-opacity:1;fill-rule:nonzero;stroke:none"
           d="M 421.862,424.855 H 403.305 V 403.72 h 18.557 z" /><g
           transform="translate(316.4277,458.6182)"
           id="g216"><path
             id="path218"
             style="fill:#282838;fill-opacity:1;fill-rule:nonzero;stroke:none"
             d="m 0,0 13.493,-43.966 2.161,2.026 4.199,-4.347 V -62.753 H -6.494 l -3.956,4.291 8.004,11.518 -1.128,3.571 h -11.952 l -1.127,-3.571 h 3.856 l 7.285,-15.809 h -32.784 l -4.196,4.346 9.37,12.12 28.927,50.633 z" /></g><g
           transform="translate(315.6406,458.1445)"
           id="g220"><path
             id="path222"
             style="fill:#282838;fill-opacity:1;fill-rule:nonzero;stroke:none"
             d="m 0,0 14.288,-46.59 1.776,4.231 3.691,-3.839 v -15.187 h -28.44 l -4.139,8.138 12.655,6.023 -1.791,5.283 h -13.616 l -1.593,-5.283 h 4.161 l 7.278,-14.161 h -31.416 l -3.838,3.995 9.772,10.61 27.56,50.57 z" /></g><path
           id="path224"
           style="fill:#282838;fill-opacity:1;fill-rule:nonzero;stroke:none"
           d="M 314.865,427.021 H 296.31 v -21.138 h 18.555 z" /><g
           transform="translate(312.2324,462.9639)"
           id="g226"><path
             id="path228"
             style="fill:#e6232a;fill-opacity:1;fill-rule:nonzero;stroke:none"
             d="M 0,0 14.205,-46.286 H 19.85 V -62.753 H -6.494 v 15.808 h 4.045 l -1.128,3.571 h -11.952 l -1.129,-3.571 h 3.857 v -15.808 h -25.496 v 16.467 h 5.174 L -17.784,0 Z" /></g><g
           transform="translate(309.0498,458.6865)"
           id="g230"><path
             id="path232"
             style="fill:#ffffff;fill-opacity:1;fill-rule:nonzero;stroke:none"
             d="m 0,0 h -11.522 l -15.313,-46.263 h -4.013 v -7.938 h 16.96 v 7.938 h -5.432 l 3.988,11.438 H 2.646 L 6.444,-46.252 H 0.947 v -7.947 h 17.812 v 7.936 h -4.552 z" /></g><g
           transform="translate(303.3857,451.8643)"
           id="g234"><path
             id="path236"
             style="fill:#e6232a;fill-opacity:1;fill-rule:nonzero;stroke:none"
             d="m 0,0 7.244,-23.344 h -15.9 L -1.033,0 Z" /></g><g
           transform="translate(302.8213,439.2588)"
           id="g238"><path
             id="path240"
             style="fill:#282838;fill-opacity:1;fill-rule:nonzero;stroke:none"
             d="M 0,0 -2.161,-6.493 H 2.07 Z" /></g><g
           transform="translate(386.958,415.7617)"
           id="g242"><path
             id="path244"
             style="fill:#ffffff;fill-opacity:1;fill-rule:nonzero;stroke:none"
             d="m 0,0 4.261,-4.268 v -14.785 h -23.702 l -7.815,8.583 9.888,5.282 -4.443,9.578 h -5.433 v -9.578 h 3.36 l 5.967,-13.865 h -30.321 l -4.234,4.328 8.835,10.426 v 31.406 h -4.601 v 15.06 L -11.279,41.956 -1.073,31.613 V 14.762 L -6.996,8.708 -1.974,-1.383 Z" /></g><path
           id="path246"
           style="fill:#ffffff;fill-opacity:1;fill-rule:nonzero;stroke:none"
           d="M 371.95,427.021 H 353.393 V 405.883 H 371.95 Z" /><path
           id="path248"
           style="fill:#ffffff;fill-opacity:1;fill-rule:nonzero;stroke:none"
           d="m 421.922,424.848 h -18.557 v -21.135 h 18.557 z" /><g
           transform="translate(387.5918,416.6807)"
           id="g250"><path
             id="path252"
             style="fill:#282838;fill-opacity:1;fill-rule:nonzero;stroke:none"
             d="m 0,0 4.219,-4.275 0.029,-16.53 -25.057,0.012 -8.301,8.863 9.714,6.494 -3.671,7.997 h -4.043 v -7.997 h 3.289 l 5.971,-15.357 -31.59,-0.012 -4.361,4.331 8.624,11.979 v 29.917 l -1.908,0.374 -2.514,15.996 38.084,0.228 10.633,-10.818 0.004,-17.899 -5.653,-5.605 4.56,-9.85 z" /></g><g
           transform="translate(437.3613,427.9492)"
           id="g254"><path
             id="path256"
             style="fill:#282838;fill-opacity:1;fill-rule:nonzero;stroke:none"
             d="m 0,0 v -21.075 l -11.197,-11.009 -22.696,-0.014 -10.441,10.637 -0.076,11.489 h 18.159 v -5.646 h 7.622 v 8.94 h -17.879 l -8.375,8.652 v 17.97 l 10.915,10.725 h 23.332 L -0.758,20.604 V 10.256 H -18.16 v 4.045 h -8.091 V 8.282 h 18.252 z" /></g><g
           transform="translate(437.3613,427.9492)"
           id="g258"><path
             id="path260"
             style="fill:#282838;fill-opacity:1;fill-rule:nonzero;stroke:none"
             d="m 0,0 v -21.075 l -11.197,-11.009 -22.696,-0.014 -10.441,10.637 -0.076,11.489 h 18.159 v -5.646 h 7.622 v 8.94 h -17.879 l -8.375,8.652 v 17.97 l 10.915,10.725 23.339,0.059 9.876,-10.035 -0.005,-10.437 H -18.16 v 4.045 h -8.091 l -2.232,-3.792 h 18.254 z" /></g><g
           transform="translate(386.8809,415.9775)"
           id="g262"><path
             id="path264"
             style="fill:#282838;fill-opacity:1;fill-rule:nonzero;stroke:none"
             d="m 0,0 3.999,-4.147 0.063,-15.073 -23.593,-0.002 -7.843,8.508 9.889,5.282 -4.444,9.579 h -5.433 V -5.432 H -24 l 5.993,-13.79 -30.475,-0.01 -4.337,4.301 9.062,10.387 v 31.406 h -4.597 V 41.921 L -11.418,41.856 -1.21,31.512 -1.191,14.424 -7.01,8.572 -2.254,-1.767 C -2.104,-1.922 0,0 0,0" /></g><g
           transform="translate(436.4746,427.6064)"
           id="g266"><path
             id="path268"
             style="fill:#282838;fill-opacity:1;fill-rule:nonzero;stroke:none"
             d="m 0,0 -0.003,-20.379 -10.648,-10.472 -21.983,-0.01 -10.137,10.279 0.078,10.076 h 16.65 v -5.531 h 9.187 v 10.57 h -18.467 l -7.83,8.097 v 17.229 l 10.658,10.469 22.198,0.061 9.558,-9.76 -0.014,-9.144 h -15.609 v 3.983 h -9.875 V 7.865 l 18.459,0.183 z" /></g><path
           id="path270"
           style="fill:#282838;fill-opacity:1;fill-rule:nonzero;stroke:none"
           d="m 371.896,427.021 h -18.553 v -21.138 h 18.553 z" /><path
           id="path272"
           style="fill:#282838;fill-opacity:1;fill-rule:nonzero;stroke:none"
           d="m 421.87,424.848 h -18.56 v -21.135 h 18.56 z" /><path
           id="path274"
           style="fill:#282838;fill-opacity:1;fill-rule:nonzero;stroke:none"
           d="m 425.225,455.659 h -18.553 v -21.137 h 18.553 z" /><g
           transform="translate(387.5977,416.6777)"
           id="g276"><path
             id="path278"
             style="fill:#e6232a;fill-opacity:1;fill-rule:nonzero;stroke:none"
             d="m 0,0 v -16.467 h -25.027 v 15.524 h 1.413 l -3.671,7.998 h -4.046 v -7.998 h 3.296 V -16.467 H -53.814 V 0 h 4.42 v 29.917 h -4.42 v 16.369 h 38.1 L -5.079,35.47 V 17.875 L -10.912,12.042 -5.365,0 Z" /></g><g
           transform="translate(383.3193,412.4453)"
           id="g280"><path
             id="path282"
             style="fill:#ffffff;fill-opacity:1;fill-rule:nonzero;stroke:none"
             d="m 0,0 h -3.786 l -7.98,17.159 6.701,6.821 -0.02,14.064 -8.184,8.268 h -32.01 v -7.858 h 4.421 V -0.002 h -4.413 v -7.939 h 17.25 v 7.939 h -3.293 v 15.575 l 11.158,-0.026 7.258,-15.549 h -3.608 v -7.939 l 16.506,0 z" /></g><g
           transform="translate(368.6123,447.4365)"
           id="g284"><path
             id="path286"
             style="fill:#e6232a;fill-opacity:1;fill-rule:nonzero;stroke:none"
             d="m 0,0 v -7.603 l -3.953,-3.951 H -15.984 V 3.48 h 12.407 z" /></g><path
           id="path288"
           style="fill:#282838;fill-opacity:1;fill-rule:nonzero;stroke:none"
           d="m 364.348,446.634 h -7.431 v -6.493 h 7.431 z" /><g
           transform="translate(433.1621,432.293)"
           id="g290"><path
             id="path292"
             style="fill:#e6232a;fill-opacity:1;fill-rule:nonzero;stroke:none"
             d="m 0,0 v -21.073 l -11.197,-11.009 h -22.77 l -10.44,10.634 v 11.477 h 18.156 v -5.644 h 7.62 v 8.936 h -17.875 l -8.373,8.657 v 17.969 l 10.912,10.724 h 23.334 l 9.88,-10.067 V 10.258 H -18.16 v 4.044 h -8.091 V 8.283 h 18.255 z" /></g><g
           transform="translate(428.8906,430.5537)"
           id="g294"><path
             id="path296"
             style="fill:#ffffff;fill-opacity:1;fill-rule:nonzero;stroke:none"
             d="m 0,0 -5.572,5.753 -18.511,0.016 -2.164,2.168 v 8.901 l 3.575,3.477 h 9.754 l 3.294,-3.477 v -0.564 h 9.649 l -0.003,3.556 -8.211,8.336 h -19.784 l -8.378,-8.336 0.01,-14.376 5.879,-6.112 h 18.395 l 1.975,-2.164 v -11.65 l -3.764,-3.668 h -8.827 l -3.575,3.668 v 1.985 h -9.615 v -5.487 l 8.038,-8.116 19.11,0.047 8.721,8.412 z" /></g></g></g></g></svg>