<?xml version="1.0" encoding="UTF-8" standalone="no"?>
<svg
   xmlns:dc="http://purl.org/dc/elements/1.1/"
   xmlns:cc="http://creativecommons.org/ns#"
   xmlns:rdf="http://www.w3.org/1999/02/22-rdf-syntax-ns#"
   xmlns:svg="http://www.w3.org/2000/svg"
   xmlns="http://www.w3.org/2000/svg"
   viewBox="0 0 816.38397 1145.196"
   height="1145.196"
   width="816.38397"
   xml:space="preserve"
   id="svg2"
   version="1.1"><metadata
     id="metadata8"><rdf:RDF><cc:Work
         rdf:about=""><dc:format>image/svg+xml</dc:format><dc:type
           rdf:resource="http://purl.org/dc/dcmitype/StillImage" /></cc:Work></rdf:RDF></metadata><defs
     id="defs6"><clipPath
       id="clipPath18"
       clipPathUnits="userSpaceOnUse"><path
         id="path16"
         d="M 0,858.897 H 612.288 V 0 H 0 Z" /></clipPath></defs><g
     transform="matrix(1.3333333,0,0,-1.3333333,0,1145.196)"
     id="g10"><g
       id="g12"><g
         clip-path="url(#clipPath18)"
         id="g14"><g
           transform="translate(434.125,429.4653)"
           id="g20"><path
             id="path22"
             style="fill:#f0861b;fill-opacity:1;fill-rule:nonzero;stroke:none"
             d="m 0,0 c 0,-64.206 -52.046,-116.259 -116.256,-116.259 -64.208,0 -116.254,52.053 -116.254,116.259 0,64.206 52.046,116.257 116.254,116.257 C -52.046,116.257 0,64.206 0,0" /></g><g
           transform="translate(426.9531,429.4663)"
           id="g24"><path
             id="path26"
             style="fill:#332d2b;fill-opacity:1;fill-rule:nonzero;stroke:none"
             d="m 0,0 c 0,-60.238 -48.834,-109.076 -109.076,-109.076 -60.239,0 -109.075,48.838 -109.075,109.076 0,60.243 48.836,109.078 109.075,109.078 C -48.834,109.078 0,60.243 0,0" /></g><g
           transform="translate(388.6396,424.9561)"
           id="g28"><path
             id="path30"
             style="fill:#ffffff;fill-opacity:1;fill-rule:nonzero;stroke:none"
             d="m 0,0 c -2.488,-39.063 -36.174,-68.718 -75.237,-66.231 -39.069,2.489 -68.722,36.174 -66.235,75.239 2.488,39.068 36.17,68.721 75.24,66.233 C -27.164,72.755 2.485,39.069 0,0" /></g><g
           transform="translate(262.2471,389.5928)"
           id="g32"><path
             id="path34"
             style="fill:#f9c588;fill-opacity:1;fill-rule:nonzero;stroke:none"
             d="M 0,0 C 0,0 -0.165,-1.279 -0.226,-2.152 0.1,-2.577 0.415,-2.985 0.738,-3.385 0.641,-2.898 0.313,-1.039 0.549,-0.629 Z" /></g><g
           transform="translate(264.7817,387.3594)"
           id="g36"><path
             id="path38"
             style="fill:#f9c588;fill-opacity:1;fill-rule:nonzero;stroke:none"
             d="m 0,0 c 0,0 -0.232,-1.424 -0.159,-3.2 0.413,-0.488 0.832,-0.947 1.263,-1.425 -0.345,1.164 -0.312,2.432 -0.431,3.72 z" /></g><g
           transform="translate(269.438,382.9854)"
           id="g40"><path
             id="path42"
             style="fill:#f9c588;fill-opacity:1;fill-rule:nonzero;stroke:none"
             d="m 0,0 -1.507,1.294 c 0,0 0.254,-2.703 0.699,-3.474 0.051,-0.503 0.025,-0.794 0.157,-1.123 0.627,-0.612 1.247,-1.209 1.88,-1.795 C 1.031,-4.591 0.626,-3.517 0.815,-2.919 -0.019,-1.965 0.057,-0.889 0,0" /></g><g
           transform="translate(273.8154,379.9951)"
           id="g44"><path
             id="path46"
             style="fill:#f9c588;fill-opacity:1;fill-rule:nonzero;stroke:none"
             d="m 0,0 -1.55,1.257 c -0.195,-0.358 0.193,-2.984 0.875,-4.171 -0.077,-0.625 0.097,-1.141 0.242,-1.561 0.6,-0.503 1.183,-0.968 1.784,-1.459 C 1.275,-5.692 0.856,-4.396 0.984,-3.565 0.096,-2.563 -0.006,-1.111 0,0" /></g><g
           transform="translate(278.1968,371.8535)"
           id="g48"><path
             id="path50"
             style="fill:#f9c588;fill-opacity:1;fill-rule:nonzero;stroke:none"
             d="m 0,0 c -0.264,0.589 -1.123,1.263 -0.767,2.044 -0.64,0.932 -1.004,3.037 -0.746,4.464 L -0.006,5.057 C -0.041,3.982 0.033,2.237 0.865,1.105 0.484,0.562 2.105,-1.26 2.271,-1.53 Z" /></g><g
           transform="translate(283.0039,369.4785)"
           id="g52"><path
             id="path54"
             style="fill:#f9c588;fill-opacity:1;fill-rule:nonzero;stroke:none"
             d="m 0,0 c -0.273,0.604 -0.082,0.626 -0.214,1.219 -0.614,0.93 -1.405,2.98 -1.491,4.551 L 0.374,4.969 C 0.368,3.916 0.749,2.36 1.581,1.219 1.208,0.668 2.244,-1.104 2.386,-1.37 Z" /></g><g
           transform="translate(291.4941,365.5723)"
           id="g56"><path
             id="path58"
             style="fill:#f9c588;fill-opacity:1;fill-rule:nonzero;stroke:none"
             d="m 0,0 c -0.211,0.795 0.23,1.391 0.558,2.18 -1.107,1.245 -2.932,2.945 -3.711,5.231 l -2.26,0.687 C -4.432,5.593 -2.842,3.251 -1.78,2.234 -2.048,1.657 -2.097,0.683 -2.097,0.683 Z" /></g><g
           transform="translate(298.2842,364.1738)"
           id="g60"><path
             id="path62"
             style="fill:#f9c588;fill-opacity:1;fill-rule:nonzero;stroke:none"
             d="M 0,0 C -0.197,0.808 0.436,1.51 0.765,2.295 -0.539,3.103 -2.498,5.409 -3.722,8.203 L -6.251,8.497 C -4.142,4.405 -2.656,3.104 -1.324,2.25 -1.77,1.395 -1.816,0.521 -1.816,0.521 Z" /></g><g
           transform="translate(305.3184,363.7656)"
           id="g64"><path
             id="path66"
             style="fill:#f9c588;fill-opacity:1;fill-rule:nonzero;stroke:none"
             d="m 0,0 c -0.042,1.17 0.558,1.426 0.893,2.193 -1.3,0.813 -3.865,2.521 -5.096,5.33 l -2.516,0.28 C -4.162,3.797 -2.447,1.777 -1.324,2.058 -1.784,1.226 -2.046,0.053 -2.046,0.053 Z" /></g><g
           transform="translate(311.7754,363.6328)"
           id="g68"><path
             id="path70"
             style="fill:#f9c588;fill-opacity:1;fill-rule:nonzero;stroke:none"
             d="M 0,0 C 0.089,0.913 1.01,1.995 1.33,2.787 0.012,3.594 -2.037,4.39 -3.232,7.204 L -5.989,7.199 C -3.979,3.906 -2.012,2.2 -0.869,2.481 -1.598,1.483 -2.122,-0.332 -2.122,-0.332 Z" /></g><g
           transform="translate(318.2676,364.0352)"
           id="g72"><path
             id="path74"
             style="fill:#f9c588;fill-opacity:1;fill-rule:nonzero;stroke:none"
             d="M 0,0 C -0.034,1.156 1.008,2.01 1.322,2.776 0.043,3.591 -2.117,4.677 -3.355,7.486 L -5.988,7.359 C -4.061,4.19 -2.036,2.424 -0.917,2.718 -1.892,1.406 -2.301,-0.446 -2.301,-0.446 Z" /></g><g
           transform="translate(325.6338,365.1729)"
           id="g76"><path
             id="path78"
             style="fill:#f9c588;fill-opacity:1;fill-rule:nonzero;stroke:none"
             d="m 0,0 c -0.065,1.149 0.854,2.25 1.193,3.046 -1.315,0.794 -3.14,1.635 -4.369,4.439 l -2.391,-0.3 C -2.905,3.393 -1.959,2.562 -0.845,2.85 -1.652,1.555 -2.299,-0.607 -2.299,-0.607 Z" /></g><g
           transform="translate(332.4482,366.3262)"
           id="g80"><path
             id="path82"
             style="fill:#f9c588;fill-opacity:1;fill-rule:nonzero;stroke:none"
             d="m 0,0 c -0.058,1.187 0.86,2.276 1.189,3.066 -1.297,0.796 -3.561,2.088 -4.786,4.885 l -2.34,-0.53 c 2.56,-3.668 3.946,-5.105 5.084,-4.819 -0.451,-0.851 -1.334,-3.393 -1.334,-3.393 z" /></g><g
           transform="translate(339.3867,368.1895)"
           id="g84"><path
             id="path86"
             style="fill:#f9c588;fill-opacity:1;fill-rule:nonzero;stroke:none"
             d="m 0,0 c 0.282,1.346 1.362,2.891 1.713,3.674 -1.318,0.8 -4.044,1.643 -5.238,4.428 L -5.499,7.455 C -2.936,3.86 -2.154,3.529 -0.473,3.29 -0.932,2.431 -2.317,-0.878 -2.317,-0.878 Z" /></g><g
           transform="translate(346.7217,370.4961)"
           id="g88"><path
             id="path90"
             style="fill:#f9c588;fill-opacity:1;fill-rule:nonzero;stroke:none"
             d="M 0,0 C 0.389,2.348 1.261,3.736 1.523,4.51 0.222,4.419 -1.878,5.742 -3.261,8.452 L -5.334,7.634 c 2.049,-2.972 3.42,-4.054 4.553,-3.91 -0.448,-0.897 -1.418,-4.648 -1.418,-4.648 z" /></g><g
           transform="translate(353.9795,373.7549)"
           id="g92"><path
             id="path94"
             style="fill:#f9c588;fill-opacity:1;fill-rule:nonzero;stroke:none"
             d="M 0,0 C -0.13,0.964 1.369,3.812 1.696,4.604 1.518,4.63 1.093,4.534 0.622,4.601 -0.218,4.717 -1.814,5.569 -3.448,8.503 L -5.321,7.576 c 2.064,-3.264 3.514,-3.83 4.001,-3.915 0.398,-0.122 0.897,0.043 1.192,0.124 -1.05,-1.336 -1.878,-4.83 -1.878,-4.83 z" /></g><g
           transform="translate(366.457,381.0879)"
           id="g96"><path
             id="path98"
             style="fill:#f9c588;fill-opacity:1;fill-rule:nonzero;stroke:none"
             d="M 0,0 C -0.395,1.166 -0.521,2.774 -0.199,3.562 -1.514,4.347 -2.451,6.039 -2.616,8.757 L -4.478,7.551 c 0.416,-3.18 1.4,-4.321 2.489,-4.908 -0.462,-0.859 0.144,-3.918 0.144,-3.918 z" /></g><g
           transform="translate(360.4238,377.2959)"
           id="g100"><path
             id="path102"
             style="fill:#f9c588;fill-opacity:1;fill-rule:nonzero;stroke:none"
             d="m 0,0 c -0.026,1.17 0.5,3.32 0.864,4.077 -1.218,0 -2.058,0.316 -3.61,4.668 L -4.609,7.641 C -2.032,2.943 -1.662,3.277 -0.995,3.494 -1.48,2.641 -2.109,-1.331 -2.109,-1.331 Z" /></g><g
           transform="translate(371.2451,385.1416)"
           id="g104"><path
             id="path106"
             style="fill:#f9c588;fill-opacity:1;fill-rule:nonzero;stroke:none"
             d="M 0,0 C -0.402,1.296 -0.315,2.362 0.026,3.159 -0.71,3.009 -0.838,3.927 -0.986,5.122 -1.104,6.209 -1.047,7.091 -1.118,8.372 L -2.978,7.169 C -3.049,4.236 -2.815,1.558 -1.706,1.848 -2.172,0.99 -1.824,-1.794 -1.824,-1.794 Z" /></g><g
           transform="translate(375.4639,388.7441)"
           id="g108"><path
             id="path110"
             style="fill:#f9c588;fill-opacity:1;fill-rule:nonzero;stroke:none"
             d="M 0,0 C -0.19,1.14 -0.104,2.161 0.293,2.988 -0.435,3.912 -0.592,5 -0.368,8.062 L -2.066,6.809 C -2.557,3.533 -1.824,2.526 -1.351,1.754 -1.863,0.869 -1.745,-1.434 -1.745,-1.434 Z" /></g><g
           transform="translate(379.6768,394.5762)"
           id="g112"><path
             id="path114"
             style="fill:#f9c588;fill-opacity:1;fill-rule:nonzero;stroke:none"
             d="m 0,0 c 0.59,2.903 0.082,4.309 -0.089,6.089 l -1.69,-1.598 c 0.351,-1.438 0.827,-4.553 0.05,-7.386 z" /></g><g
           transform="translate(382.9111,404.3066)"
           id="g116"><path
             id="path118"
             style="fill:#f9c588;fill-opacity:1;fill-rule:nonzero;stroke:none"
             d="m 0,0 c 0,0 -0.096,-2.176 -0.329,-4.02 0.382,0.843 0.742,1.688 1.096,2.547 -0.012,0.837 -0.055,1.846 -0.215,2.555 z" /></g><g
           transform="translate(313.9658,468.2617)"
           id="g120"><path
             id="path122"
             style="fill:#f9c588;fill-opacity:1;fill-rule:nonzero;stroke:none"
             d="m 0,0 c 0.479,-0.853 -0.263,-6.936 -0.785,-8.983 l -2.513,1.434 c 0,0 1.516,4.529 1.701,5.725 0.194,1.198 -0.138,2.225 -0.789,2.769 z" /></g><g
           transform="translate(305.8696,463.7144)"
           id="g124"><path
             id="path126"
             style="fill:#f9c588;fill-opacity:1;fill-rule:nonzero;stroke:none"
             d="m 0,0 -1.924,0.998 c 1.027,3.585 0.994,5.147 1.045,6.125 0.027,0.617 -1.67,0.993 -1.564,0.97 1.432,0.441 6.79,3.616 8.017,4.432 l 2.16,-1.059 C 5.414,9.885 0.57,7.571 -0.632,7.583 -1.816,7.598 -0.704,7.54 -0.704,7.54 L 0.375,7.744 C 1.865,6.577 0.1,1.038 0,0" /></g><g
           transform="translate(298.7275,466.6982)"
           id="g128"><path
             id="path130"
             style="fill:#f9c588;fill-opacity:1;fill-rule:nonzero;stroke:none"
             d="m 0,0 -1.576,0.652 c 0.065,1.327 0.468,3.083 1.884,6.18 L 1.994,6.26 C 0.356,2.694 -0.152,0.587 0,0" /></g><g
           transform="translate(306.4922,478.0879)"
           id="g132"><path
             id="path134"
             style="fill:#f9c588;fill-opacity:1;fill-rule:nonzero;stroke:none"
             d="m 0,0 -1.87,0.719 c -2.42,-1.12 -4.993,-2.778 -7.172,-4.562 l 1.611,-0.788 c 3,2.052 5.789,4.113 7.431,4.631" /></g><g
           transform="translate(386.1885,435.3716)"
           id="g136"><path
             id="path138"
             style="fill:#f9c588;fill-opacity:1;fill-rule:nonzero;stroke:none"
             d="M 0,0 -1.534,-0.354 C -2,1.398 -2.264,4.013 -4.147,5.843 c 0.791,1.727 1.334,3.129 0.349,5.259 l 1.396,-0.05 C -1.963,8.746 -2.193,7.623 -2.883,6.044 -1.627,4.698 -0.199,2.774 0,0" /></g><g
           transform="translate(382.4189,434.4624)"
           id="g140"><path
             id="path142"
             style="fill:#f9c588;fill-opacity:1;fill-rule:nonzero;stroke:none"
             d="m 0,0 -1.82,-0.261 c -0.468,1.784 -1.091,4.575 -2.976,6.415 1.578,1.67 1.527,3.63 1.212,5.582 l 1.668,0.067 C -1.477,9.496 -2.192,7.888 -3.007,6.31 -1.745,4.958 -0.604,2.754 0,0" /></g><g
           transform="translate(385.9385,441.5381)"
           id="g144"><path
             id="path146"
             style="fill:#f9c588;fill-opacity:1;fill-rule:nonzero;stroke:none"
             d="m 0,0 c 1.894,-1.845 1.623,-3.626 2.089,-5.404 l 0.577,0.137 C 2.555,-3.958 2.42,-2.681 2.233,-1.386 1.935,-0.784 1.56,-0.282 1.056,0.23 1.428,1.501 1.469,2.382 1.405,3.344 1.271,4.02 1.096,4.694 0.956,5.365 L -0.028,5.399 C 0.431,3.887 0.352,1.542 0,0" /></g><g
           transform="translate(374.0137,440.3462)"
           id="g148"><path
             id="path150"
             style="fill:#f9c588;fill-opacity:1;fill-rule:nonzero;stroke:none"
             d="M 0,0 C 1.697,-2.177 2.722,-4.075 3.353,-6.565 L 1.52,-6.624 c -0.484,1.769 -1.629,4.688 -3.511,6.531 z" /></g><g
           transform="translate(371.5303,440.2715)"
           id="g152"><path
             id="path154"
             style="fill:#f9c588;fill-opacity:1;fill-rule:nonzero;stroke:none"
             d="M 0,0 C 1.206,1.192 2.39,4.223 2.109,5.957 L 3.985,5.642 C 4.046,2.638 3.232,1.867 2.19,0.029 Z" /></g><g
           transform="translate(369.584,440.5933)"
           id="g156"><path
             id="path158"
             style="fill:#f9c588;fill-opacity:1;fill-rule:nonzero;stroke:none"
             d="M 0,0 C 1.124,-1.845 2.3,-3.954 2.479,-6.731 L 0.667,-6.66 c -0.488,1.774 -0.903,4.939 -2.608,6.786 z" /></g><g
           transform="translate(367.3965,440.708)"
           id="g160"><path
             id="path162"
             style="fill:#f9c588;fill-opacity:1;fill-rule:nonzero;stroke:none"
             d="M 0,0 C 1.223,1.195 2.478,4.422 2.185,6.14 L 4.061,5.826 c 0.435,-2.3 -0.889,-4.12 -2.126,-5.94 z" /></g><g
           transform="translate(363.7578,441.127)"
           id="g164"><path
             id="path166"
             style="fill:#f9c588;fill-opacity:1;fill-rule:nonzero;stroke:none"
             d="m 0,0 c 0.986,0.045 1.812,-4.215 2.083,-6.83 l -2.028,0.409 c -0.592,3.83 0.52,3.484 -1.843,7.135 z" /></g><g
           transform="translate(361.3477,442.0679)"
           id="g168"><path
             id="path170"
             style="fill:#f9c588;fill-opacity:1;fill-rule:nonzero;stroke:none"
             d="M 0,0 C 2.797,2.676 3.81,4.194 3.417,5.544 L 5.29,5.113 C 5.765,3.393 3.061,0.85 1.773,-0.721 Z" /></g><g
           transform="translate(354.9746,443.1196)"
           id="g172"><path
             id="path174"
             style="fill:#f9c588;fill-opacity:1;fill-rule:nonzero;stroke:none"
             d="M 0,0 C 1.661,1.269 3.969,4.748 4.163,6.552 L 5.945,5.732 C 5.815,3.276 2.902,0.283 2.097,-0.695 Z" /></g><g
           transform="translate(351.4873,445.7407)"
           id="g176"><path
             id="path178"
             style="fill:#f9c588;fill-opacity:1;fill-rule:nonzero;stroke:none"
             d="m 0,0 c 1.003,-1.494 1.007,-4.936 0.745,-7.777 l -2.111,1.041 c 0.436,1.958 0.551,5.423 -0.741,7.427 z" /></g><g
           transform="translate(357.4902,442.3394)"
           id="g180"><path
             id="path182"
             style="fill:#f9c588;fill-opacity:1;fill-rule:nonzero;stroke:none"
             d="m 0,0 c 1.003,-1.487 1.027,-4.945 0.753,-7.765 l -2.12,1.047 c 0.454,1.943 0.561,5.406 -0.709,7.423 z" /></g><g
           transform="translate(348.7764,446.5918)"
           id="g184"><path
             id="path186"
             style="fill:#f9c588;fill-opacity:1;fill-rule:nonzero;stroke:none"
             d="M 0,0 C 1.662,1.271 4.623,3.767 4.784,5.568 L 6.899,4.526 C 5.876,2.088 4.426,1.37 2.079,-0.696 Z" /></g><g
           transform="translate(344.8486,449.2554)"
           id="g188"><path
             id="path190"
             style="fill:#f9c588;fill-opacity:1;fill-rule:nonzero;stroke:none"
             d="m 0,0 c 0.913,-1.65 0.573,-5.305 0.012,-8.267 l -2.117,1.319 c 0.661,2.008 1.114,5.661 -0.029,7.907 z" /></g><g
           transform="translate(342.0977,450.4468)"
           id="g192"><path
             id="path194"
             style="fill:#f9c588;fill-opacity:1;fill-rule:nonzero;stroke:none"
             d="M 0,0 C 1.868,1.177 5.248,3.523 5.595,5.401 L 7.71,4.084 C 6.41,1.62 4.795,1 2.13,-0.923 Z" /></g><g
           transform="translate(337.6084,453.4175)"
           id="g196"><path
             id="path198"
             style="fill:#f9c588;fill-opacity:1;fill-rule:nonzero;stroke:none"
             d="m 0,0 c 0.798,-1.718 0.187,-5.318 -0.555,-8.234 l -2.047,1.459 c 0.808,1.958 1.528,5.56 0.541,7.889 z" /></g><g
           transform="translate(334.9375,454.8149)"
           id="g200"><path
             id="path202"
             style="fill:#f9c588;fill-opacity:1;fill-rule:nonzero;stroke:none"
             d="M 0,0 C 1.965,1.034 5.48,3.113 5.982,4.967 L 7.996,3.513 C 6.502,1.145 4.85,0.641 2.061,-1.114 Z" /></g><g
           transform="translate(330.4277,457.7441)"
           id="g204"><path
             id="path206"
             style="fill:#f9c588;fill-opacity:1;fill-rule:nonzero;stroke:none"
             d="m 0,0 c 0.802,-1.719 0.197,-5.322 -0.569,-8.245 l -2.018,1.464 c 0.797,1.955 1.511,5.572 0.533,7.897 z" /></g><g
           transform="translate(327.7695,459.1255)"
           id="g208"><path
             id="path210"
             style="fill:#f9c588;fill-opacity:1;fill-rule:nonzero;stroke:none"
             d="M 0,0 C 1.965,1.042 5.47,3.132 5.977,4.979 L 7.984,3.531 C 6.493,1.159 4.859,0.667 2.051,-1.095 Z" /></g><g
           transform="translate(322.458,462.8032)"
           id="g212"><path
             id="path214"
             style="fill:#f9c588;fill-opacity:1;fill-rule:nonzero;stroke:none"
             d="m 0,0 c 0.789,-1.706 0.195,-5.323 -0.569,-8.245 l -2.026,1.47 c 0.805,1.949 1.521,5.56 0.541,7.883 z" /></g><g
           transform="translate(319.7949,464.1851)"
           id="g216"><path
             id="path218"
             style="fill:#f9c588;fill-opacity:1;fill-rule:nonzero;stroke:none"
             d="M 0,0 C 1.97,1.042 5.493,3.137 5.967,5 L 7.993,3.528 C 6.493,1.158 4.87,0.65 2.047,-1.085 Z" /></g><g
           transform="translate(311.6328,469.3437)"
           id="g220"><path
             id="path222"
             style="fill:#f9c588;fill-opacity:1;fill-rule:nonzero;stroke:none"
             d="m 0,0 c 1.959,1.045 5.492,3.135 5.988,4.995 l 2.01,-1.48 C 6.511,1.161 4.863,0.66 2.064,-1.087 Z" /></g><g
           transform="translate(301.3906,480.0356)"
           id="g224"><path
             id="path226"
             style="fill:#f9c588;fill-opacity:1;fill-rule:nonzero;stroke:none"
             d="m 0,0 -1.955,0.707 c -2.547,-1.249 -5.234,-3.101 -7.018,-4.772 l 1.312,-0.534 C -5.022,-2.629 -1.69,-0.589 0,0" /></g><g
           transform="translate(296.0977,482.1074)"
           id="g228"><path
             id="path230"
             style="fill:#f9c588;fill-opacity:1;fill-rule:nonzero;stroke:none"
             d="m 0,0 -2.032,0.574 c -4.072,-2.445 -5.063,-3.346 -6.835,-5.031 l 1.668,-0.406 C -6.503,-3.974 -5.58,-3.037 0,0" /></g><g
           transform="translate(290.5952,483.6929)"
           id="g232"><path
             id="path234"
             style="fill:#f9c588;fill-opacity:1;fill-rule:nonzero;stroke:none"
             d="M 0,0 -2.352,0.235 C -4.778,-0.95 -7.183,-3.416 -8.969,-5.089 L -7.154,-5.27 C -5.488,-3.414 -2.233,-0.903 0,0" /></g><g
           transform="translate(284.1978,484.4873)"
           id="g236"><path
             id="path238"
             style="fill:#f9c588;fill-opacity:1;fill-rule:nonzero;stroke:none"
             d="M 0,0 -2.016,0.056 C -4.66,-1.599 -7.062,-5.501 -6.06,-5.786 l 1.113,0.026 C -4.066,-3.399 -2.467,-1.721 0,0" /></g><g
           transform="translate(279.1797,484.3765)"
           id="g240"><path
             id="path242"
             style="fill:#f9c588;fill-opacity:1;fill-rule:nonzero;stroke:none"
             d="m 0,0 -1.807,-0.324 c -3.551,-3.024 -3.929,-5.762 -2.957,-5.39 l 0.746,-0.092 C -3.875,-4.883 -3.768,-3.285 0,0" /></g><g
           transform="translate(274.6982,483.7407)"
           id="g244"><path
             id="path246"
             style="fill:#f9c588;fill-opacity:1;fill-rule:nonzero;stroke:none"
             d="M 0,0 -1.977,-0.621 C -4.07,-2.124 -5.24,-5.633 -4.302,-5.462 l 0.915,0.182 C -3.206,-4.033 -2.675,-2.415 0,0" /></g><g
           transform="translate(288.4575,469.9492)"
           id="g248"><path
             id="path250"
             style="fill:#f9c588;fill-opacity:1;fill-rule:nonzero;stroke:none"
             d="m 0,0 -1.69,0.506 c 0.113,1.931 1.127,5.111 2.107,6.673 L 1.979,6.855 C 0.702,5.144 -0.029,1.512 0,0" /></g><g
           transform="translate(293.5303,468.6899)"
           id="g252"><path
             id="path254"
             style="fill:#f9c588;fill-opacity:1;fill-rule:nonzero;stroke:none"
             d="m 0,0 -1.666,0.508 c 0.108,1.933 1.109,5.109 2.085,6.673 L 1.967,6.875 C 0.718,5.145 -0.014,1.521 0,0" /></g><g
           transform="translate(283.0078,471.3403)"
           id="g256"><path
             id="path258"
             style="fill:#f9c588;fill-opacity:1;fill-rule:nonzero;stroke:none"
             d="m 0,0 -1.523,0.531 c 0.093,1.997 0.805,4.891 1.82,6.475 L 1.912,6.881 C 0.645,5.149 0.026,1.081 0,0" /></g><g
           transform="translate(278.1846,472.5601)"
           id="g260"><path
             id="path262"
             style="fill:#f9c588;fill-opacity:1;fill-rule:nonzero;stroke:none"
             d="m 0,0 -1.554,0.32 c 0.112,1.934 1.208,4.235 2.211,5.8 L 2.071,6.062 C 0.812,4.321 0.012,1.526 0,0" /></g><g
           transform="translate(273.7627,473.1743)"
           id="g264"><path
             id="path266"
             style="fill:#f9c588;fill-opacity:1;fill-rule:nonzero;stroke:none"
             d="m 0,0 -1.416,0.132 c 0.11,1.927 1.121,3.727 2.102,5.304 L 2.223,5.432 C 0.972,3.71 0.01,1.526 0,0" /></g><g
           transform="translate(269.8691,473.291)"
           id="g268"><path
             id="path270"
             style="fill:#f9c588;fill-opacity:1;fill-rule:nonzero;stroke:none"
             d="m 0,0 -1.202,0.009 c 0.49,2.48 1.163,3.522 2.158,5.098 L 2.254,5.242 C 0.745,3.381 0.425,2.283 0,0" /></g><g
           transform="translate(266.4375,473.1436)"
           id="g272"><path
             id="path274"
             style="fill:#f9c588;fill-opacity:1;fill-rule:nonzero;stroke:none"
             d="m 0,0 -1.05,-0.235 c 0.627,2.547 0.783,3.156 1.793,4.743 l 1.116,0.1 C 0.604,2.893 0.285,1.685 0,0" /></g><g
           transform="translate(267.6724,477.792)"
           id="g276"><path
             id="path278"
             style="fill:#f9c588;fill-opacity:1;fill-rule:nonzero;stroke:none"
             d="M 0,0 C 0.051,0.711 0.256,1.499 0.75,2.498 0.208,1.954 -0.332,1.418 -0.863,0.847 L -1.17,-0.157 Z" /></g><g
           transform="translate(263.3843,472.7187)"
           id="g280"><path
             id="path282"
             style="fill:#f9c588;fill-opacity:1;fill-rule:nonzero;stroke:none"
             d="M 0,0 C 0.401,1.381 0.848,2.748 1.9,4.27 1.068,3.335 0.287,2.387 -0.492,1.413 -0.641,1.013 -0.779,0.491 -0.968,-0.256 Z" /></g><g
           transform="translate(280.626,483.2056)"
           id="g284"><path
             id="path286"
             style="fill:#332d2b;fill-opacity:1;fill-rule:nonzero;stroke:none"
             d="m 0,0 c -8.635,-3.627 -20.458,-6.418 -38.676,-5.753 0,0 -28.225,2.058 -43.431,0.769 v -0.014 c -5.944,-0.146 -31.139,-2.702 -54.225,-11.274 -2.565,-0.952 -3.791,-1.81 -4.951,-2.997 -0.503,-0.659 -1.585,-2.51 -2.128,-3.64 0,0 -7.052,-0.839 -11.348,-2.611 -6.113,-2.521 -8.404,-5.81 -6.734,-11.57 3.912,-13.452 19.899,-16.093 19.899,-16.093 0,0 -3.845,9.483 -0.277,9.554 1.609,0.031 6.257,-1.103 9.664,-2.691 1.881,-0.813 10.452,-4.931 18.957,-12.18 l -10.031,-31.704 H -7.655 c 3.828,0.059 7.502,0.802 10.834,2.106 -0.677,-0.81 -1.169,-1.292 -1.704,-2.226 l -8.534,-14.949 h 47.018 c 11.77,0.168 21.871,6.125 26.031,15.069 h 106.48 c 13.242,0 23.392,5.844 27.213,14.724 4.575,10.29 -0.69,15.844 -0.69,15.844 5.222,3.21 7.72,7.532 8.655,10.555 l 5.324,16.484 H 109.698 l 5.598,17.834 H 101.549 C 88.675,-14.88 78.962,-22.394 75.688,-32.566 H -14.931 C -6.304,-28.822 7.593,-20.008 14.597,7.437 14.597,7.437 8.509,3.189 0,0" /></g><g
           transform="translate(226.9565,418.8291)"
           id="g288"><path
             id="path290"
             style="fill:#ffffff;fill-opacity:1;fill-rule:nonzero;stroke:none"
             d="m 0,0 c 6.664,0.129 11.656,2.936 13.873,4.826 0,0 -3.407,-20.214 -27.288,-20.33 h -47.981 l 8.188,26.1 c 0,0 -9.619,11.235 -27.363,15.577 -6.262,1.794 -15.375,2.34 -16.033,-0.663 -0.261,-0.914 0.251,-3.896 0.846,-6.282 0,0 -2.82,1.304 -4.538,3.405 -0.563,0.562 -3.267,3.901 -3.489,7.563 -0.122,1.99 0.818,3.399 2.325,4.428 3.818,2.476 14.542,3.605 14.542,3.605 l 0.98,2.173 c 0.985,2.196 1.887,3.196 3.261,3.741 24.449,9.728 53.347,11.407 53.598,11.407 l -0.169,-0.004 c 2.07,0.128 4.769,0.219 7.812,0.27 13.065,0.851 30.832,-0.834 32.125,-0.961 12.828,-0.811 21.174,-0.431 26.717,0.411 8.438,0.907 16.076,6.099 16.076,6.099 0,0 -7.229,-16.292 -24.471,-20.86 C 21.786,38.474 14.367,38.376 7.496,38.36 H -5.541 c -6.509,0 -8.214,-2.465 -8.95,-4.6 l -1.713,-5.692 H 5.584 c 8.065,-0.279 13.6,3.036 16.08,5.144 0,0 -3.359,-19.977 -27.205,-20.326 0,0 -12.144,-0.003 -15.305,-0.003 L -24.912,0 Z" /></g><g
           transform="translate(220.5327,461.1064)"
           id="g292"><path
             id="path294"
             style="fill:#f0861b;fill-opacity:1;fill-rule:nonzero;stroke:none"
             d="m 0,0 c -7.223,0 -10.274,-2.831 -11.568,-6.568 l -2.834,-9.284 H 11.09 c 4.359,0.045 8.788,0.075 12.04,2.841 -2.514,-6.088 -9.7,-12.823 -23.128,-12.525 l -17.349,-0.006 -5.697,-18.394 H 3.57 c 4.355,0.044 8.493,0.257 11.955,2.665 C 13.126,-47.318 5.393,-54.069 -7.76,-53.743 h -44.062 l 7.572,24.266 c 0,0 -15.949,16.631 -38.96,17.802 -4.256,0.065 -7.046,-0.318 -8.759,-1.224 -2.02,-1.073 -0.811,-4.532 -0.811,-4.532 0,0 -2.403,2.379 -2.865,5.341 -0.459,2.934 3.261,4.624 8.708,5.669 4.039,0.719 7.423,1.013 7.423,1.013 l 1.479,3.2 c 0.417,0.856 0.883,1.546 1.449,2.047 0.918,0.835 2.467,1.364 2.467,1.364 23.223,8.221 50.579,10.429 50.579,10.429 h 0.004 c 2.006,0.123 4.694,0.216 7.714,0.266 13.214,0.874 31.864,-0.955 31.864,-0.955 30.937,-2.241 36.822,2.92 39.781,5.024 0.045,0.045 -0.006,-0.048 0.041,0 C 44.792,1.664 31.229,-0.081 13.039,0 Z" /></g><g
           transform="translate(179.1055,440.7119)"
           id="g296"><path
             id="path298"
             style="fill:#ffffff;fill-opacity:1;fill-rule:nonzero;stroke:none"
             d="m 0,0 2.633,8.403 c 1.756,5.893 3.275,7.769 8.704,10.078 5.428,2.311 15.882,3.504 15.882,3.504 -15.202,2.197 -46.654,0.827 -58.099,-2.988 -2.447,-0.816 -3.319,-3.023 -3.319,-3.023 l 16.041,1.35 -6.055,-3.731 c -5.951,2.063 -10.466,1.116 -10.466,1.116 C -38.502,13.022 -39.12,9.756 -39.12,9.756 -19.09,9.643 0,0 0,0" /></g><g
           transform="translate(382.2441,464.6055)"
           id="g300"><path
             id="path302"
             style="fill:#ffffff;fill-opacity:1;fill-rule:nonzero;stroke:none"
             d="m 0,0 c -9.85,-0.043 -18.473,-5.786 -20.65,-12.833 l -15.002,-48.433 h 20.541 L 3.95,0 Z" /></g><g
           transform="translate(404.4775,415.3555)"
           id="g304"><path
             id="path306"
             style="fill:#ffffff;fill-opacity:1;fill-rule:nonzero;stroke:none"
             d="m 0,0 h -7.919 c 0.598,1.916 0.938,2.909 1.351,4.237 H 3.135 C 1.611,2.973 0.779,1.897 0,0 m -2.943,16.011 1.089,3.421 H 5.86 L 4.766,16.011 Z M 19.658,8.595 c 2.756,2.041 4.779,4.657 5.731,7.723 0.006,0.014 4.589,14.911 4.589,14.911 H -2.759 C -15.008,30.977 -20.436,25.114 -22.205,20.136 L -22.226,20.085 -32.271,-12.01 H 1.108 c 9.05,0.015 16.785,4.278 19.461,12.846 0.012,0.041 2.382,7.759 2.382,7.759 z" /></g><g
           transform="translate(330.7783,434.9521)"
           id="g308"><path
             id="path310"
             style="fill:#ffffff;fill-opacity:1;fill-rule:nonzero;stroke:none"
             d="m 0,0 c -1.518,-4.873 -5.265,-16.723 -6.149,-19.576 h -7.137 c 1.515,4.876 5.265,16.722 6.15,19.576 z m -10.727,-34.741 h -13.421 c -9.882,0 -15.919,-2.441 -18.903,-7.656 l -2.443,-4.289 h 34.987 c 9.897,0.145 18.145,5.289 20.568,12.803 0.012,0.039 14.147,45.516 14.147,45.516 H -8.285 c 0,0 -15.713,0.314 -19.856,-12.678 l -9.495,-30.561 h 21.721 c 2.681,0.021 4.768,0.404 6.494,1.127 z" /></g><g
           transform="translate(277.3062,434.7876)"
           id="g312"><path
             id="path314"
             style="fill:#ffffff;fill-opacity:1;fill-rule:nonzero;stroke:none"
             d="m 0,0 -1.282,-4.152 h -10.329 c 1.963,1.187 2.848,2.795 3.456,4.152 z m -14.083,-19.412 1.093,3.541 h 8.02 l -1.092,-3.541 z m -24.369,-12.036 h 33.8 c 9.162,0.132 16.997,5.197 19.172,12.319 0.002,0.002 9.626,30.926 9.626,30.926 H -9.135 c -9.455,0.054 -17.417,-4.953 -19.734,-12.436 -0.014,-0.06 -2.575,-8.295 -2.575,-8.295 h 3.263 c -2.73,-1.907 -4.831,-4.908 -5.783,-8.035 z" /></g><g
           transform="translate(448.4883,415.3779)"
           id="g316"><path
             id="path318"
             style="fill:#ffffff;fill-opacity:1;fill-rule:nonzero;stroke:none"
             d="m 0,0 c 0.253,0.799 0.574,1.812 0.574,1.812 0,0 0.185,0.586 0.295,0.936 C 1.855,2.269 3.221,1.608 3.576,1.437 3.446,1.018 3.287,0.515 3.129,0 Z M 5.689,18.247 6.082,19.41 H 9.219 L 8.42,16.938 Z m -30.085,-30.268 h 28.87 c 11.392,0 17.5,6.623 19.42,12.82 0,0 1.074,3.442 -0.222,6.414 -0.755,1.836 -1.92,3.246 -4.087,4.368 -1.141,0.552 -3.381,1.625 -5.364,2.579 11.594,0.836 15.616,5.771 16.906,9.928 -0.002,-0.005 1.072,3.443 1.072,3.443 l 1.163,3.718 H 29.465 4.205 C -5.413,31.15 -12.542,26.362 -14.902,18.437 -16.764,11.172 -11.21,8.61 -11.21,8.61 L -4.685,5.442 C -16.544,4.993 -20.714,-0.346 -22.02,-4.564 Z" /></g><g
           transform="translate(349.6855,407.335)"
           id="g320"><path
             id="path322"
             style="fill:#f0861b;fill-opacity:1;fill-rule:nonzero;stroke:none"
             d="m 0,0 13.716,44.184 c 2.179,6.313 9.902,11.168 17.966,11.281 L 14.42,0 Z" /></g><g
           transform="translate(413.2285,438.5762)"
           id="g324"><path
             id="path326"
             style="fill:#f0861b;fill-opacity:1;fill-rule:nonzero;stroke:none"
             d="M 0,0 -2.791,-8.988 H -16.503 L -13.717,0 Z m -3.692,-15.174 c 8.456,0.369 14.913,4.55 16.673,10.21 L 16.428,6.36 H -12.429 C -20.488,6.159 -27.07,2.5 -29.361,-3.947 l -8.554,-27.286 h 29.357 c 8.629,0.028 14.313,3.873 16.674,10.747 l 1.278,4.049 c -7.797,0.021 -15.132,-2.099 -17.016,-8.037 L -7.756,-25 h -13.733 l 3.061,9.808 z" /></g><g
           transform="translate(289.4722,392.2246)"
           id="g328"><path
             id="path330"
             style="fill:#f0861b;fill-opacity:1;fill-rule:nonzero;stroke:none"
             d="M 0,0 H 29.881 C 37.95,0.114 45.58,4.164 47.723,10.813 L 60.717,52.711 H 32.105 C 24.032,52.51 17.484,48.125 15.082,41.835 L 6.768,15.115 h 17.701 c 7.835,0 10.956,3.281 10.956,3.281 L 31.825,6.302 H 16.271 C 9.307,6.302 2.848,4.977 0,0 M 36.346,21.374 H 23.209 l 7.763,24.978 h 13.141 z" /></g><g
           transform="translate(267.251,444.9331)"
           id="g332"><path
             id="path334"
             style="fill:#f0861b;fill-opacity:1;fill-rule:nonzero;stroke:none"
             d="m 0,0 c -8,0.012 -15.036,-4.524 -16.904,-10.534 l -1.411,-4.559 c 7.518,-0.236 15.205,2.205 17.003,8.094 l 0.204,0.642 H 12.958 L 9.933,-16.073 H -5.053 c -8.566,-0.067 -15.109,-4.9 -16.909,-10.789 l -3.341,-10.736 H 4.445 c 8.065,0.115 14.601,4.368 16.397,10.251 L 29.309,0 Z M 5.183,-31.334 H -8.84 l 2.831,9.105 H 8.015 Z" /></g><g
           transform="translate(468.7246,418.1133)"
           id="g336"><path
             id="path338"
             style="fill:#f0861b;fill-opacity:1;fill-rule:nonzero;stroke:none"
             d="m 0,0 c -1.823,-5.889 -7.517,-10.759 -16.64,-10.759 h -24.821 l 1.148,3.7 c 1.827,5.886 8.936,7.971 16.998,8.086 l -1.752,-5.537 h 9.151 l 1.343,4.314 c 0.26,0.845 0,1.537 -0.622,2.012 l -15.69,7.633 c -1.776,0.886 -3.125,3.834 -2.299,6.505 v 0.017 c 1.907,6.403 7.598,10.676 16.361,10.852 H 8.312 L 7.237,23.291 C 5.408,17.402 -1.29,15.303 -9.75,15.251 l 1.634,5.212 h -9.151 l -1.204,-3.884 c -0.264,-0.848 0,-1.54 0.623,-2.015 L -2.445,7.179 C 1.428,4.853 0,0 0,0" /></g><g
           transform="translate(321.7832,333.3848)"
           id="g340"><path
             id="path342"
             style="fill:#ffffff;fill-opacity:1;fill-rule:nonzero;stroke:none"
             d="m 0,0 -6.093,-0.145 c -1.719,-0.042 -2.951,0.451 -3.706,1.466 -0.421,0.563 -0.618,1.218 -0.71,1.911 -0.128,0.922 -0.087,3.185 -0.099,3.703 -0.031,1.328 0.407,2.144 0.86,2.663 0.473,0.535 1.302,1.018 2.03,1.037 0.637,0.023 0.641,0.018 1.269,0.03 l 3.115,0.074 c 1.432,0.032 2.433,-0.129 3.022,-0.503 C 0.494,9.734 0.913,8.732 0.952,7.216 0.962,5.796 0.541,4.819 -0.255,4.288 -0.832,3.898 -1.807,3.692 -3.176,3.661 c 0,0 -5.312,-0.087 -5.308,-0.121 0.009,-0.539 0.168,-1.17 0.721,-1.461 0.535,-0.29 1.191,-0.325 1.784,-0.313 l 5.985,0.14 z m -6.607,5.437 3.256,0.078 c 0.701,0.015 1.216,0.107 1.554,0.27 0.558,0.275 0.83,0.777 0.813,1.514 -0.023,0.694 -0.304,1.142 -0.836,1.353 -0.308,0.127 -0.836,0.181 -1.583,0.16 L -6.107,8.75 C -7.037,8.727 -7.71,8.563 -8.098,8.255 -8.461,7.962 -8.637,7.504 -8.623,6.884 -8.552,5.879 -7.881,5.398 -6.607,5.437" /></g><g
           transform="translate(307.5176,339.5527)"
           id="g344"><path
             id="path346"
             style="fill:#ffffff;fill-opacity:1;fill-rule:nonzero;stroke:none"
             d="M 0,0 C -0.533,0.441 -1.353,0.714 -2.224,0.874 L -6.07,1.587 c -0.513,0.095 -1.65,0.406 -1.475,1.36 l 0.155,0.847 c 0.124,0.665 0.445,0.955 1.757,0.711 0,0 6.497,-1.199 6.739,-1.246 0.042,0.242 0.25,1.356 0.295,1.598 C 1.168,4.899 -5.126,6.062 -5.126,6.062 -6.214,6.266 -7.059,6.285 -7.634,6.118 -8.548,5.864 -9.103,5.17 -9.321,3.984 L -9.479,3.13 C -9.644,2.239 -9.422,1.513 -8.814,0.913 -8.324,0.439 -7.7,0.126 -6.953,-0.01 l 4.451,-0.823 c 1.249,-0.234 1.407,-0.617 1.279,-1.3 L -1.357,-2.86 c -0.114,-0.631 -0.348,-1.039 -1.456,-0.832 0,0 -7.102,1.314 -7.396,1.369 -0.043,-0.242 -0.261,-1.407 -0.306,-1.652 0.295,-0.053 7.132,-1.32 7.132,-1.32 1.782,-0.33 2.944,-0.087 3.46,0.715 0.206,0.32 0.37,0.83 0.494,1.511 l 0.138,0.746 C 0.895,-1.329 0.722,-0.61 0,0" /></g><g
           transform="translate(286.667,349.9512)"
           id="g348"><path
             id="path350"
             style="fill:#ffffff;fill-opacity:1;fill-rule:nonzero;stroke:none"
             d="m 0,0 5.812,-1.886 c 1.647,-0.534 2.65,-1.407 3.024,-2.628 0.495,-1.561 -0.331,-3.241 -0.803,-4.699 -0.162,-0.5 -0.321,-0.993 -0.486,-1.492 -0.246,-0.762 -0.693,-1.408 -1.259,-1.812 -0.549,-0.385 -1.215,-0.545 -1.906,-0.322 -0.609,0.194 -1.213,0.392 -1.819,0.589 l -2.982,0.969 c -1.367,0.439 -2.258,0.929 -2.689,1.473 -0.598,0.744 -0.661,1.838 -0.191,3.285 0.455,1.348 1.177,2.135 2.115,2.374 0.674,0.174 1.664,0.046 2.972,-0.378 0,0 5.057,-1.673 5.069,-1.645 0.165,0.515 0.232,1.159 -0.195,1.623 -0.411,0.45 -1.021,0.704 -1.593,0.888 l -5.712,1.852 z m 4.447,-7.346 -3.106,1.007 c -0.674,0.215 -1.19,0.305 -1.567,0.26 -0.62,-0.074 -1.043,-0.463 -1.271,-1.166 -0.208,-0.666 -0.093,-1.185 0.346,-1.558 0.25,-0.222 0.73,-0.45 1.438,-0.679 l 2.586,-0.836 c 0.893,-0.29 1.58,-0.353 2.056,-0.191 0.439,0.151 0.753,0.526 0.948,1.121 0.269,0.975 -0.21,1.654 -1.43,2.042" /></g><g
           transform="translate(339.1787,346.7598)"
           id="g352"><path
             id="path354"
             style="fill:#ffffff;fill-opacity:1;fill-rule:nonzero;stroke:none"
             d="m 0,0 5.828,1.844 c 1.648,0.521 2.974,0.395 3.987,-0.38 1.308,-0.986 1.616,-2.831 2.075,-4.296 0.159,-0.498 0.315,-0.999 0.472,-1.494 0.244,-0.762 0.254,-1.555 0.027,-2.205 C 12.171,-7.169 11.721,-7.684 11.027,-7.905 10.419,-8.099 9.809,-8.292 9.205,-8.479 L 6.217,-9.428 C 4.85,-9.86 3.837,-9.979 3.17,-9.789 c -0.918,0.262 -1.608,1.111 -2.071,2.56 -0.407,1.364 -0.277,2.43 0.347,3.165 0.449,0.537 1.328,1.004 2.643,1.419 0,0 5.088,1.577 5.077,1.604 C 9.004,-0.525 8.682,0.041 8.065,0.169 7.468,0.298 6.827,0.146 6.255,-0.035 L 0.525,-1.843 Z M 7.891,-3.394 4.772,-4.38 C 4.104,-4.594 3.627,-4.822 3.349,-5.076 2.889,-5.501 2.767,-6.063 2.99,-6.766 3.206,-7.429 3.604,-7.783 4.179,-7.834 4.512,-7.87 5.033,-7.773 5.747,-7.547 l 2.587,0.816 c 0.895,0.283 1.491,0.632 1.782,1.04 0.273,0.379 0.31,0.866 0.122,1.462 -0.347,0.952 -1.133,1.228 -2.347,0.835" /></g><g
           transform="translate(357.3604,341.6738)"
           id="g356"><path
             id="path358"
             style="fill:#ffffff;fill-opacity:1;fill-rule:nonzero;stroke:none"
             d="m 0,0 -1.792,-0.686 -5.11,13.407 1.792,0.684 z" /></g><g
           transform="translate(362.1914,343.9316)"
           id="g360"><path
             id="path362"
             style="fill:#ffffff;fill-opacity:1;fill-rule:nonzero;stroke:none"
             d="m 0,0 -1.777,-0.736 -5.495,13.254 1.77,0.734 z" /></g><g
           transform="translate(281.1484,350.7949)"
           id="g364"><path
             id="path366"
             style="fill:#ffffff;fill-opacity:1;fill-rule:nonzero;stroke:none"
             d="M 0,0 C -0.395,-0.714 -1.216,-0.738 -2.431,-0.064 L -8.145,3.097 -6.239,6.54 -6.023,6.42 -0.728,3.491 C 0.623,2.744 1.088,1.964 0.653,1.18 Z m -2.888,-5.229 c -0.505,-0.68 -1.453,-0.639 -2.758,0.083 l -5.438,3.006 1.855,3.355 0.218,-0.118 5.388,-2.984 c 1.255,-0.691 1.717,-1.421 1.369,-2.186 z m 2.146,2.933 -0.086,0.089 c 0.798,-0.045 1.406,-0.032 1.988,0.59 0.291,0.309 0.654,0.858 1.084,1.638 C 2.665,0.787 2.832,1.567 2.74,2.349 2.65,3.086 2.348,3.735 1.835,4.271 1.479,4.643 0.909,5.045 0.143,5.473 c 0,0 -6.668,3.689 -7.012,3.879 l -6.902,-12.48 c 0.342,-0.189 7.223,-3.995 7.223,-3.995 0.991,-0.553 1.957,-0.783 2.858,-0.688 1.153,0.134 2.036,0.789 2.706,1.999 0.323,0.58 0.551,1.163 0.683,1.74 0.175,0.749 0.075,1.22 -0.441,1.776" /></g><g
           transform="translate(335.3828,339.376)"
           id="g368"><path
             id="path370"
             style="fill:#ffffff;fill-opacity:1;fill-rule:nonzero;stroke:none"
             d="m 0,0 c 0.112,-0.802 -0.051,-1.476 -0.49,-2.03 -0.435,-0.556 -0.737,-0.843 -1.635,-0.967 l -1.082,-0.154 -0.273,-0.04 -1.351,-0.19 c -0.898,-0.129 -1.273,0.067 -1.843,0.48 -0.573,0.413 -0.919,1.016 -1.033,1.813 l -0.171,1.228 -0.441,3.117 4.123,0.582 1.087,0.153 c 0.898,0.127 1.268,-0.068 1.838,-0.481 0.572,-0.41 0.917,-1.016 1.03,-1.811 z M 1.951,0.089 1.656,2.153 C 1.467,3.513 0.91,4.518 -0.016,5.158 -0.945,5.804 -1.82,6.064 -3.385,5.846 L -4.727,5.654 -8.58,5.112 l -0.476,3.345 -1.923,-0.271 0.475,-3.346 0.258,-1.855 0.439,-3.118 0.203,-1.409 c 0.19,-1.362 0.751,-2.364 1.677,-3.011 0.93,-0.644 1.803,-0.909 3.363,-0.686 l 1.617,0.23 1.076,0.15 c 1.56,0.224 2.333,0.716 3.043,1.591 0.719,0.876 0.971,1.996 0.779,3.357" /></g><g
           transform="translate(373.2549,369.0537)"
           id="g372"><path
             id="path374"
             style="fill:#ffffff;fill-opacity:1;fill-rule:nonzero;stroke:none"
             d="m 0,0 9.514,-10.645 c 0.142,0.126 1.198,1.072 1.438,1.284 C 10.694,-9.078 1.699,0.987 1.437,1.281 1.146,1.021 0.071,0.065 0,0" /></g><g
           transform="translate(365.373,358.7061)"
           id="g376"><path
             id="path378"
             style="fill:#ffffff;fill-opacity:1;fill-rule:nonzero;stroke:none"
             d="m 0,0 c 0.13,0.981 0.293,1.645 1.389,2.525 0,0 5.219,4.169 5.694,4.552 C 6.814,7.414 6.139,8.257 5.872,8.588 5.398,8.206 0.189,4.042 0.189,4.042 -1.532,2.667 -1.985,1.595 -2.197,0.21 c -0.216,-1.433 0.246,-2.877 1.365,-4.274 l 1.8,-2.258 c 1.127,-1.404 2.433,-2.166 3.884,-2.276 1.393,-0.095 2.534,0.114 4.252,1.491 0,0 5.21,4.162 5.686,4.546 -0.269,0.333 -0.937,1.172 -1.204,1.505 C 13.107,-1.434 7.893,-5.609 7.893,-5.609 6.794,-6.486 6.114,-6.494 5.124,-6.407 4.07,-6.314 3.15,-5.789 2.4,-4.85 L 0.917,-2.996 C 0.169,-2.061 -0.141,-1.049 0,0" /></g><g
           transform="translate(398.2207,384.8672)"
           id="g380"><path
             id="path382"
             style="fill:#ffffff;fill-opacity:1;fill-rule:nonzero;stroke:none"
             d="M 0,0 C 0.675,-0.442 1.071,-1.008 1.2,-1.706 1.332,-2.4 1.349,-2.816 0.848,-3.578 L 0.252,-4.485 0.102,-4.717 -0.646,-5.856 c -0.501,-0.765 -0.892,-0.918 -1.578,-1.077 -0.685,-0.157 -1.371,-0.017 -2.04,0.421 l -1.042,0.68 -2.63,1.724 2.279,3.49 0.597,0.911 c 0.499,0.762 0.892,0.911 1.578,1.068 0.687,0.16 1.371,0.019 2.04,-0.421 z M 1.452,1.886 -0.293,3.031 C -1.442,3.784 -2.802,3.658 -3.896,3.389 -4.988,3.118 -5.768,2.628 -6.63,1.312 l -0.742,-1.137 -2.136,-3.259 -2.825,1.852 -1.066,-1.626 2.827,-1.853 1.568,-1.025 2.635,-1.723 1.189,-0.782 c 1.15,-0.752 2.275,-0.989 3.371,-0.721 1.095,0.274 1.868,0.759 2.734,2.078 l 0.893,1.368 0.594,0.907 c 0.866,1.318 1.001,2.225 0.814,3.336 -0.191,1.115 -0.622,2.411 -1.774,3.159" /></g><g
           transform="translate(390.1104,365.8604)"
           id="g384"><path
             id="path386"
             style="fill:#ffffff;fill-opacity:1;fill-rule:nonzero;stroke:none"
             d="m 0,0 c -0.889,-1.007 -1.896,-1.532 -3.005,-1.561 -1.108,-0.024 -1.965,0.233 -3.126,1.262 l -4.646,4.095 1.32,1.494 4.646,-4.1 c 0.673,-0.592 1.081,-0.633 1.772,-0.605 0.695,0.029 1.298,0.342 1.824,0.936 l 0.916,1.04 C 0.226,3.152 0.464,3.798 0.402,4.489 0.346,5.179 0.25,5.579 -0.417,6.174 l -4.648,4.097 1.316,1.491 4.644,-4.093 C 2.055,6.644 2.416,5.819 2.532,4.717 2.646,3.616 2.254,2.555 1.36,1.542 Z" /></g><g
           transform="translate(246.9687,378.5635)"
           id="g388"><path
             id="path390"
             style="fill:#ffffff;fill-opacity:1;fill-rule:nonzero;stroke:none"
             d="m 0,0 c -0.637,-0.354 -1.624,-0.409 -2.708,1.361 l -3.25,5.286 4.023,2.254 0.131,-0.208 3.122,-5.074 C 1.556,3.229 1.723,2.778 1.82,2.287 1.969,1.532 1.816,1.02 1.354,0.763 Z m 4.227,2.021 c -0.055,0.9 -0.368,1.822 -0.938,2.745 0,0 -4.009,6.524 -4.257,6.924 -0.411,-0.229 -12.034,-6.749 -12.439,-6.978 0.183,-0.306 0.834,-1.363 1.023,-1.671 0.388,0.22 4.434,2.489 4.434,2.489 l 3.186,-5.192 c 0.649,-1.054 1.391,-1.8 2.213,-2.22 1.093,-0.565 2.236,-0.497 3.49,0.206 l 1.893,1.061 c 1.01,0.566 1.468,1.43 1.395,2.636" /></g><g
           transform="translate(242.7295,369.6738)"
           id="g392"><path
             id="path394"
             style="fill:#ffffff;fill-opacity:1;fill-rule:nonzero;stroke:none"
             d="m 0,0 c 0.285,0.243 5.681,4.876 5.681,4.876 1.721,1.479 3.377,1.223 5.049,-0.803 0,0 2.445,-2.965 2.639,-3.198 C 13.132,0.672 12.15,-0.173 11.918,-0.37 11.719,-0.127 9.286,2.819 9.286,2.819 8.301,4.014 7.37,3.646 6.959,3.294 c 0,0 -5.376,-4.617 -5.663,-4.862 C 1.11,-1.34 0.193,-0.229 0,0" /></g><g
           transform="translate(260.5933,358.1768)"
           id="g396"><path
             id="path398"
             style="fill:#ffffff;fill-opacity:1;fill-rule:nonzero;stroke:none"
             d="m 0,0 c -0.533,-0.612 -1.157,-0.933 -1.865,-0.968 -0.708,-0.034 -1.129,0.008 -1.819,0.608 l -1.037,0.903 -0.206,0.18 -1.663,1.446 c -0.694,0.601 -0.79,1.011 -0.855,1.717 -0.063,0.708 0.171,1.365 0.704,1.979 l 1.133,1.302 c 0.533,0.612 1.153,0.934 1.863,0.97 0.708,0.031 1.127,-0.008 1.817,-0.61 L -0.264,6.083 -0.057,5.9 0.98,4.999 C 1.67,4.398 1.77,3.988 1.829,3.282 1.896,2.573 1.668,1.916 1.131,1.304 Z M 3.914,3.414 C 3.788,4.548 3.407,5.387 2.213,6.428 L 1.182,7.327 -0.686,8.949 c -1.191,1.04 -2.078,1.302 -3.217,1.265 -1.134,-0.038 -2.155,-0.577 -3.06,-1.619 L -8.344,7.01 C -9.251,5.969 -9.64,4.885 -9.522,3.754 -9.4,2.622 -9.02,1.782 -7.823,0.745 l 1.659,-1.446 v -0.003 l 1.235,-1.077 c 1.197,-1.04 2.083,-1.296 3.222,-1.264 1.133,0.041 2.153,0.576 3.058,1.619 l 1.381,1.581 c 0.909,1.048 1.3,2.132 1.182,3.259" /></g><g
           transform="translate(261.519,493.2656)"
           id="g400"><path
             id="path402"
             style="fill:#ffffff;fill-opacity:1;fill-rule:nonzero;stroke:none"
             d="m 0,0 -1.306,-1.344 -5.346,5.196 -6.234,-6.412 5.341,-5.197 -1.308,-1.343 -10.276,9.993 1.306,1.346 3.385,-3.29 6.232,6.415 -3.378,3.286 1.305,1.346 z" /></g><g
           transform="translate(321.1094,525.2627)"
           id="g404"><path
             id="path406"
             style="fill:#ffffff;fill-opacity:1;fill-rule:nonzero;stroke:none"
             d="M 0,0 6.086,-0.487 C 7.81,-0.623 8.989,-1.239 9.634,-2.339 10.474,-3.741 10.065,-5.564 9.941,-7.095 9.9,-7.617 9.857,-8.136 9.813,-8.656 9.752,-9.452 9.469,-10.187 9.01,-10.708 c -0.442,-0.504 -1.052,-0.808 -1.775,-0.754 -0.638,0.049 -1.27,0.1 -1.91,0.152 l -3.12,0.248 c -1.428,0.113 -2.408,0.381 -2.955,0.81 -0.755,0.585 -1.068,1.633 -0.944,3.148 0.13,1.416 0.651,2.348 1.503,2.798 0.617,0.326 1.607,0.43 2.978,0.32 0,0 5.307,-0.454 5.307,-0.425 0.047,0.537 -0.042,1.184 -0.566,1.531 -0.502,0.343 -1.153,0.449 -1.749,0.496 l -5.986,0.479 z M 6.025,-6.111 2.771,-5.849 C 2.069,-5.794 1.542,-5.83 1.19,-5.959 0.603,-6.177 0.281,-6.651 0.222,-7.389 0.175,-8.084 0.407,-8.56 0.918,-8.823 1.213,-8.982 1.735,-9.09 2.479,-9.147 l 2.705,-0.218 c 0.935,-0.076 1.617,0.024 2.042,0.291 0.39,0.247 0.612,0.685 0.663,1.31 0.034,1.009 -0.588,1.559 -1.864,1.653" /></g><g
           transform="translate(275.2534,515.1777)"
           id="g408"><path
             id="path410"
             style="fill:#ffffff;fill-opacity:1;fill-rule:nonzero;stroke:none"
             d="M 0,0 C 1.219,0.64 2.358,0.771 3.419,0.398 4.49,0.02 5.214,-0.538 5.95,-1.937 L 8.881,-7.517 7.221,-8.39 4.28,-2.799 c -0.419,0.801 -0.795,0.992 -1.465,1.217 -0.667,0.223 -1.36,0.149 -2.072,-0.225 l -1.524,-0.8 c -0.714,-0.376 -1.168,-0.905 -1.359,-1.58 -0.199,-0.678 -0.254,-1.096 0.169,-1.9 l 2.937,-5.587 -1.661,-0.875 -2.932,5.581 c -0.732,1.4 -0.783,2.312 -0.488,3.408 0.295,1.087 1.052,1.951 2.27,2.589 z" /></g><g
           transform="translate(299.2222,523.5552)"
           id="g412"><path
             id="path414"
             style="fill:#ffffff;fill-opacity:1;fill-rule:nonzero;stroke:none"
             d="M 0,0 1.71,-5.881 C 1.969,-6.755 1.829,-7.15 1.501,-7.775 1.176,-8.402 0.63,-8.825 -0.146,-9.052 L -1.27,-9.377 c -0.772,-0.225 -1.464,-0.163 -2.072,0.192 -0.613,0.354 -0.944,0.612 -1.197,1.485 l -1.71,5.882 -1.888,-0.551 1.709,-5.88 c 0.256,-0.872 0.12,-1.268 -0.21,-1.896 -0.327,-0.625 -0.876,-1.047 -1.652,-1.276 l -1.118,-0.326 c -0.771,-0.223 -1.467,-0.159 -2.077,0.193 -0.612,0.352 -0.94,0.613 -1.198,1.487 l -1.709,5.88 -1.8,-0.523 1.757,-6.053 c 0.442,-1.514 1.042,-2.207 2.012,-2.786 0.968,-0.583 2.112,-0.682 3.436,-0.296 l 1.473,0.428 c 1.32,0.383 2.233,1.083 2.74,2.089 0.059,0.119 0.114,0.24 0.16,0.359 0.106,-0.074 0.22,-0.145 0.332,-0.215 0.968,-0.579 2.115,-0.677 3.434,-0.295 l 1.478,0.433 c 1.317,0.381 2.228,1.079 2.736,2.087 0.507,1.011 0.639,1.918 0.2,3.433 l -1.76,6.052 z" /></g><g
           transform="translate(315.0762,523.9619)"
           id="g416"><path
             id="path418"
             style="fill:#ffffff;fill-opacity:1;fill-rule:nonzero;stroke:none"
             d="M 0,0 C -0.832,0.759 -1.935,1.085 -3.301,0.976 L -5.385,0.807 C -6.381,0.727 -7.193,0.439 -7.839,-0.05 l -0.349,4.289 -1.877,-0.152 1.16,-14.382 1.91,0.155 -0.509,6.291 c -0.073,0.907 0.145,1.266 0.586,1.816 0.447,0.541 1.072,0.851 1.875,0.914 l 1.713,0.138 c 0.802,0.068 1.471,-0.138 1.998,-0.602 0.524,-0.469 0.797,-0.793 0.871,-1.699 L 0.043,-9.576 1.918,-9.423 1.41,-3.14 C 1.283,-1.566 0.83,-0.768 0,0" /></g><g
           transform="translate(257.6807,504.0088)"
           id="g420"><path
             id="path422"
             style="fill:#ffffff;fill-opacity:1;fill-rule:nonzero;stroke:none"
             d="m 0,0 4.902,3.656 c 1.381,1.032 2.677,1.349 3.883,0.948 1.559,-0.502 2.454,-2.142 3.369,-3.373 0.311,-0.421 0.628,-0.839 0.936,-1.255 0.478,-0.641 0.752,-1.379 0.746,-2.075 0.004,-0.672 -0.252,-1.304 -0.83,-1.741 -0.512,-0.382 -1.021,-0.762 -1.533,-1.141 L 8.96,-6.852 C 7.815,-7.712 6.896,-8.156 6.204,-8.194 5.25,-8.251 4.322,-7.673 3.413,-6.454 c -0.834,1.15 -1.056,2.196 -0.714,3.095 0.252,0.651 0.926,1.385 2.028,2.208 0,0 4.293,3.157 4.268,3.182 C 8.678,2.462 8.185,2.891 7.561,2.809 6.953,2.734 6.401,2.383 5.921,2.026 L 1.103,-1.567 Z M 8.565,-0.609 5.946,-2.565 C 5.382,-2.984 5.008,-3.359 4.827,-3.692 4.534,-4.239 4.603,-4.809 5.044,-5.402 5.47,-5.954 5.958,-6.158 6.515,-6.02 6.841,-5.947 7.3,-5.681 7.907,-5.237 l 2.17,1.624 c 0.753,0.561 1.198,1.082 1.345,1.565 0.128,0.444 0.006,0.919 -0.369,1.422 -0.634,0.779 -1.47,0.785 -2.488,0.017" /></g><g
           transform="translate(387.0098,501.5566)"
           id="g424"><path
             id="path426"
             style="fill:#ffffff;fill-opacity:1;fill-rule:nonzero;stroke:none"
             d="m 0,0 -10.077,-11.141 c 0.153,-0.134 1.249,-1.132 1.506,-1.358 C -8.303,-12.2 1.223,-1.667 1.502,-1.36 1.196,-1.086 0.076,-0.068 0,0" /></g><g
           transform="translate(387.2256,479.126)"
           id="g428"><path
             id="path430"
             style="fill:#ffffff;fill-opacity:1;fill-rule:nonzero;stroke:none"
             d="m 0,0 -4.255,4.79 c -1.2,1.347 -1.65,2.671 -1.343,3.967 0.165,0.719 0.558,1.326 1.048,1.87 0.654,0.734 2.495,2.241 2.903,2.603 1.045,0.929 1.998,1.13 2.717,1.118 0.755,-0.015 1.704,-0.351 2.217,-0.921 0.45,-0.498 0.445,-0.502 0.888,-0.999 L 6.353,9.978 C 7.354,8.852 7.905,7.938 8.005,7.214 8.151,6.229 7.63,5.203 6.444,4.147 5.308,3.171 4.241,2.844 3.273,3.122 2.565,3.322 1.739,3.963 0.781,5.038 c 0,0 -3.679,4.201 -3.708,4.177 C -3.353,8.838 -3.753,8.282 -3.608,7.643 -3.477,7.02 -3.062,6.465 -2.643,5.998 L 1.542,1.291 Z M -0.126,8.997 2.148,6.437 C 2.637,5.886 3.065,5.535 3.426,5.375 4.023,5.112 4.609,5.24 5.189,5.757 5.734,6.241 5.901,6.775 5.708,7.348 5.599,7.677 5.283,8.14 4.758,8.727 L 2.87,10.854 C 2.224,11.582 1.632,12.009 1.121,12.11 0.639,12.203 0.148,12.04 -0.338,11.6 -1.099,10.86 -1.025,9.994 -0.126,8.997" /></g><g
           transform="translate(399.1191,471.4565)"
           id="g432"><path
             id="path434"
             style="fill:#ffffff;fill-opacity:1;fill-rule:nonzero;stroke:none"
             d="m 0,0 c -0.04,0.726 -0.412,1.554 -0.913,2.342 l -2.196,3.481 c -0.291,0.466 -0.862,1.568 0,2.111 l 0.768,0.484 c 0.598,0.376 1.056,0.34 1.802,-0.848 0,0 3.709,-5.88 3.845,-6.098 C 3.525,1.61 4.532,2.245 4.75,2.384 4.616,2.596 1.029,8.285 1.029,8.285 0.407,9.271 -0.181,9.937 -0.718,10.264 -1.572,10.793 -2.5,10.722 -3.571,10.047 L -4.347,9.557 C -5.156,9.048 -5.559,8.363 -5.583,7.462 -5.604,6.744 -5.398,6.037 -4.973,5.366 l 2.542,-4.033 c 0.712,-1.128 0.526,-1.522 -0.087,-1.911 l -0.659,-0.414 c -0.574,-0.363 -1.053,-0.47 -1.686,0.531 0,0 -4.052,6.424 -4.215,6.689 -0.218,-0.137 -1.276,-0.804 -1.497,-0.943 0.169,-0.264 4.07,-6.449 4.07,-6.449 1.017,-1.612 2.032,-2.34 3.019,-2.164 0.392,0.071 0.905,0.308 1.523,0.693 l 0.672,0.427 C -0.388,-1.641 0.043,-0.994 0,0" /></g><g
           transform="translate(359.4717,516.5181)"
           id="g436"><path
             id="path438"
             style="fill:#ffffff;fill-opacity:1;fill-rule:nonzero;stroke:none"
             d="m 0,0 5.669,-3.036 c 1.602,-0.86 2.482,-1.951 2.641,-3.283 0.217,-1.709 -0.949,-3.292 -1.709,-4.715 -0.264,-0.488 -0.521,-0.97 -0.779,-1.457 -0.399,-0.738 -0.983,-1.326 -1.646,-1.638 -0.637,-0.3 -1.357,-0.338 -2.03,0.02 -0.594,0.316 -1.186,0.633 -1.774,0.949 l -2.906,1.557 c -1.328,0.712 -2.165,1.386 -2.509,2.03 -0.478,0.881 -0.344,2.024 0.413,3.436 0.725,1.31 1.619,1.99 2.635,2.063 0.727,0.055 1.73,-0.264 3.004,-0.946 0,0 4.925,-2.676 4.941,-2.648 0.271,0.501 0.457,1.158 0.1,1.716 -0.338,0.543 -0.924,0.918 -1.477,1.218 l -5.572,2.983 z m 3.24,-8.436 -3.032,1.625 c -0.653,0.349 -1.176,0.537 -1.57,0.559 -0.659,0.04 -1.168,-0.283 -1.534,-0.969 -0.342,-0.651 -0.318,-1.206 0.067,-1.676 0.215,-0.28 0.675,-0.602 1.364,-0.973 l 2.519,-1.348 c 0.869,-0.465 1.57,-0.661 2.092,-0.583 0.481,0.074 0.877,0.405 1.191,0.987 0.458,0.959 0.09,1.751 -1.097,2.378" /></g><g
           transform="translate(376.0254,496.937)"
           id="g440"><path
             id="path442"
             style="fill:#ffffff;fill-opacity:1;fill-rule:nonzero;stroke:none"
             d="m 0,0 c -1.267,-1.621 -2.793,-0.201 -2.793,-0.201 l -0.01,-0.015 -2.986,2.333 C -5.832,2.15 -5.866,2.184 -5.911,2.216 L -5.9,2.229 c 0,0 -1.775,1.151 -0.46,2.783 l -0.011,0.009 2.039,2.605 0.01,-0.008 c 1.269,1.678 2.819,0.228 2.819,0.228 l 0.019,0.029 C -0.864,7.385 1.153,5.808 1.153,5.808 1.268,5.719 1.429,5.588 1.605,5.427 L 1.6,5.418 c 0,0 0.056,-0.04 0.135,-0.105 C 1.88,5.184 2.022,5.039 2.152,4.877 2.526,4.395 2.826,3.613 2.079,2.66 Z M 4.652,4.263 4.671,4.284 4.643,4.31 C 4.594,4.523 4.553,4.742 4.463,4.961 4.124,5.843 3.533,6.614 2.706,7.259 l -2.797,2.189 c -2.25,1.758 -3.979,1.799 -5.289,0.126 L -8.303,5.835 c -1.44,-1.843 -1.05,-3.59 1.184,-5.338 l 3.277,-2.56 c 0.453,-0.266 1.088,-0.671 1.822,-0.544 l -0.604,-0.762 c -0.327,-0.366 -0.746,-0.703 -1.342,-0.687 -0.633,0.019 -1.359,0.395 -1.849,0.777 l -5.014,3.922 -1.056,-1.352 5.268,-4.12 c 0.785,-0.61 1.491,-0.972 2.177,-1.113 0.561,-0.119 1.108,-0.096 1.68,0.078 0.659,0.199 1.161,0.629 1.625,1.123 0.153,0.195 0.308,0.393 0.464,0.595 2.087,2.667 4.687,5.996 4.687,5.996 0.588,0.753 0.787,1.551 0.636,2.413" /></g><g
           transform="translate(344.4375,521.6992)"
           id="g444"><path
             id="path446"
             style="fill:#ffffff;fill-opacity:1;fill-rule:nonzero;stroke:none"
             d="m 0,0 c 0.265,0.769 0.98,1.285 2.435,1.011 0.498,-0.071 7.595,-2.557 8.694,-2.928 0.109,0.32 0.633,1.838 0.742,2.161 C 11.535,0.358 3.787,3.021 3.787,3.021 3.267,3.199 2.731,3.31 2.187,3.342 0.526,3.434 -1.121,2.817 -1.694,1.144 c 0,0 -0.188,-0.541 -0.438,-1.272 C -2.65,-1.631 -3.45,-3.967 -3.544,-4.234 -3.935,-5.378 -4.26,-6.32 -4.262,-6.32 -4.457,-6.893 -4.516,-7.506 -4.361,-8.1 c 0.384,-1.497 1.885,-2.592 3.27,-3.069 0,0 7.748,-2.661 8.088,-2.776 0.108,0.32 0.633,1.842 0.743,2.159 -1.096,0.38 -8.222,2.786 -8.66,3.027 -1.315,0.683 -1.564,1.532 -1.304,2.297 0,0 0.275,0.801 0.57,1.664 0.133,0.382 0.095,0.272 0.095,0.272 0,0 9.095,-3.122 9.488,-3.259 0.11,0.322 0.627,1.83 0.74,2.155 -0.393,0.135 -9.484,3.259 -9.484,3.259 l 0.548,1.603 z" /></g><g
           transform="translate(268.2783,355.415)"
           id="g448"><path
             id="path450"
             style="fill:#ffffff;fill-opacity:1;fill-rule:nonzero;stroke:none"
             d="M 0,0 -1.094,-1.576 -3.708,0.16 -2.614,1.735 Z" /></g></g></g></g></svg>