<?xml version="1.0" encoding="UTF-8" standalone="no"?>
<svg
   xmlns:dc="http://purl.org/dc/elements/1.1/"
   xmlns:cc="http://creativecommons.org/ns#"
   xmlns:rdf="http://www.w3.org/1999/02/22-rdf-syntax-ns#"
   xmlns:svg="http://www.w3.org/2000/svg"
   xmlns="http://www.w3.org/2000/svg"
   viewBox="0 0 816.38397 1145.196"
   height="1145.196"
   width="816.38397"
   xml:space="preserve"
   id="svg2"
   version="1.1"><metadata
     id="metadata8"><rdf:RDF><cc:Work
         rdf:about=""><dc:format>image/svg+xml</dc:format><dc:type
           rdf:resource="http://purl.org/dc/dcmitype/StillImage" /></cc:Work></rdf:RDF></metadata><defs
     id="defs6"><clipPath
       id="clipPath18"
       clipPathUnits="userSpaceOnUse"><path
         id="path16"
         d="M 0,858.897 H 612.288 V 0 H 0 Z" /></clipPath></defs><g
     transform="matrix(1.3333333,0,0,-1.3333333,0,1145.196)"
     id="g10"><g
       id="g12"><g
         clip-path="url(#clipPath18)"
         id="g14"><g
           transform="translate(400.5117,407.5957)"
           id="g20"><path
             id="path22"
             style="fill:#ebecec;fill-opacity:1;fill-rule:nonzero;stroke:none"
             d="m 0,0 22.751,37.875 h -37.442 c 3.164,10.96 7.619,21.287 13.61,30.27 -33.239,1.055 -68.654,9.038 -93.425,33.925 -24.771,-24.887 -60.186,-32.87 -93.423,-33.925 5.99,-8.983 10.445,-19.31 13.608,-30.27 h -37.442 L -189.011,0 -204.305,-29.859 h 35.076 c -0.831,-7.54 -2.088,-14.701 -3.704,-21.231 0,0 45.433,-8.433 78.427,-38.369 32.994,29.936 78.428,38.369 78.428,38.369 -1.615,6.53 -2.875,13.691 -3.705,21.231 h 35.074 z" /></g><g
           transform="translate(391.5713,407.5957)"
           id="g24"><path
             id="path26"
             style="fill:#332d2b;fill-opacity:1;fill-rule:nonzero;stroke:none"
             d="m 0,0 14.948,28.902 h -36.009 c 2.018,11.138 5.192,21.497 9.791,29.865 -23.249,0.247 -58.8,10.406 -74.295,27.25 -15.496,-16.844 -51.048,-27.003 -74.297,-27.25 4.599,-8.368 7.774,-18.727 9.792,-29.865 h -36.01 L -171.131,0 -184.18,-24.335 h 36.034 c -0.726,-7.813 -1.865,-15.032 -3.318,-21.166 0,0 32.607,-7.364 65.899,-36.522 33.292,29.158 65.897,36.522 65.897,36.522 -1.452,6.134 -2.593,13.353 -3.317,21.166 h 36.034 z" /></g><g
           transform="translate(306.0059,360.5566)"
           id="g28"><path
             id="path30"
             style="fill:#ebecec;fill-opacity:1;fill-rule:nonzero;stroke:none"
             d="M 0,0 C -12.633,-0.008 -23.524,-7.45 -28.543,-18.186 L 0,-37.322 28.543,-18.186 C 23.523,-7.45 12.633,-0.008 0,0" /></g><g
           transform="translate(257.4722,391.0312)"
           id="g32"><path
             id="path34"
             style="fill:#ffffff;fill-opacity:1;fill-rule:nonzero;stroke:none"
             d="m 0,0 -14.127,16.215 12.129,13.399 h -8.784 L -20.399,19.17 v 19.685 h -11.479 c 2.169,-1.831 4.011,-4.258 4.011,-7.53 V 0 h 7.468 V 12.535 L -9.309,0 Z" /></g><g
           transform="translate(354.2285,420.6455)"
           id="g36"><path
             id="path38"
             style="fill:#ffffff;fill-opacity:1;fill-rule:nonzero;stroke:none"
             d="m 0,0 v -29.614 h -7.467 v 22.083 c 0,3.27 -1.844,5.696 -4.013,7.531 z" /></g><g
           transform="translate(385.584,397.2734)"
           id="g40"><path
             id="path42"
             style="fill:#ffffff;fill-opacity:1;fill-rule:nonzero;stroke:none"
             d="M 0,0 3.573,-6.242 H -25.794 L -10.7,17.132 h -14.095 v 6.24 H 2.933 L -13.435,0 Z" /></g><g
           transform="translate(271.5942,399.5752)"
           id="g44"><path
             id="path46"
             style="fill:#ffffff;fill-opacity:1;fill-rule:nonzero;stroke:none"
             d="m 0,0 v 14.83 h 5.243 l 3.576,6.24 H 0 v 9.242 L -7.466,26.039 V 21.07 h -5.5 v -6.24 h 5.5 V -0.407 c 0,-4.494 3.642,-8.137 8.135,-8.137 H 6.59 v 6.242 H 2.301 C 1.029,-2.302 0,-1.271 0,0" /></g><g
           transform="translate(331.373,420.6455)"
           id="g48"><path
             id="path50"
             style="fill:#ffffff;fill-opacity:1;fill-rule:nonzero;stroke:none"
             d="M 0,0 -7.407,-15.599 -16.018,0.777 -24.63,-15.602 -32.036,0 h -11.619 c 2.638,-1.482 5.637,-3.979 7.44,-7.642 1.804,-3.662 11.222,-22.683 11.222,-22.683 l 8.975,17.143 8.974,-17.143 L 8.023,0 Z" /></g><g
           transform="translate(358.1172,453.6196)"
           id="g52"><path
             id="path54"
             style="fill:#ebecec;fill-opacity:1;fill-rule:nonzero;stroke:none"
             d="m 0,0 c -8.658,4.327 -12.371,8.448 -12.371,8.448 -10.443,61.946 -84.822,77.09 -118.044,64.092 21.122,-5.428 39.962,-13.226 52.755,-27.229 -17.698,4.477 -42.023,5.481 -56.268,1.077 17.822,-2.321 44.631,-14.414 60.918,-37.403 12.623,-17.82 19.634,-25.424 33.577,-33.169 8.867,3.41 16.456,11.821 18.939,17.955 C -13.236,-6.549 -4.337,-3.479 0,0" /></g><g
           transform="translate(353.4316,453.4434)"
           id="g56"><path
             id="path58"
             style="fill:#e6232a;fill-opacity:1;fill-rule:nonzero;stroke:none"
             d="m 0,0 c -34.358,6.951 -36.543,43.098 -92.948,43.098 31.59,-17.354 31.938,-47.393 58.647,-62.715 0,0 3.027,3.175 5.932,10.13 l 4.984,-1.18 c 0.918,6.164 -0.217,12.359 -0.217,12.359 C -20.151,0.305 -9.852,-3.175 0,0" /></g><g
           transform="translate(290.2314,496.2534)"
           id="g60"><path
             id="path62"
             style="fill:#332d2b;fill-opacity:1;fill-rule:nonzero;stroke:none"
             d="m 0,0 c 21.459,-6.685 37.937,-17.946 47.874,-27.768 -8.08,40.399 -58.32,65.544 -101.082,57.888 0,0 33.314,-4.747 53.208,-30.12" /></g><g
           transform="translate(313.0225,454.3022)"
           id="g64"><path
             id="path66"
             style="fill:#ffffff;fill-opacity:1;fill-rule:nonzero;stroke:none"
             d="M 0,0 C -0.676,5.228 -4.381,11.176 -9.656,15.502 -3.97,13.5 0.953,14.464 3.175,18.02 3.851,12.792 7.556,6.844 12.83,2.519 7.146,4.521 2.222,3.554 0,0" /></g><g
           transform="translate(339.4463,382.4258)"
           id="g68"><path
             id="path70"
             style="fill:#ebecec;fill-opacity:1;fill-rule:nonzero;stroke:none"
             d="m 0,0 c -1.583,0 -2.878,-0.604 -3.707,-1.654 l -0.407,1.383 h -3.96 c 0.825,-0.697 1.526,-1.621 1.526,-2.868 v -8.401 h 2.841 v 6.773 c 0.325,1.052 1.642,2.321 2.958,2.321 1.504,0 2.24,-1.361 2.24,-2.982 V -11.54 H 4.33 v 6.436 C 4.33,-1.535 2.063,0 0,0" /></g><g
           transform="translate(290.3208,376.0752)"
           id="g72"><path
             id="path74"
             style="fill:#ebecec;fill-opacity:1;fill-rule:nonzero;stroke:none"
             d="m 0,0 c 0,-1.864 -0.79,-3.062 -2.449,-3.062 -1.66,0 -2.449,1.198 -2.449,3.062 v 6.101 h -4.37 C -8.441,5.399 -7.741,4.477 -7.741,3.23 v -3.717 h 0.017 c 0,-3.917 3.353,-4.973 5.275,-4.973 1.921,0 5.276,1.056 5.276,4.973 V 6.101 H 0 Z" /></g><g
           transform="translate(311.8721,382.1553)"
           id="g76"><path
             id="path78"
             style="fill:#ebecec;fill-opacity:1;fill-rule:nonzero;stroke:none"
             d="M 0,0 -2.817,-6.023 -6.094,0.384 -9.372,-6.025 -12.192,0 h -4.421 c 1.005,-0.567 2.146,-1.515 2.832,-2.91 0.686,-1.393 4.27,-8.804 4.27,-8.804 l 3.415,6.785 3.415,-6.785 L 3.055,0 Z" /></g><g
           transform="translate(322.9727,372.8496)"
           id="g80"><path
             id="path82"
             style="fill:#ebecec;fill-opacity:1;fill-rule:nonzero;stroke:none"
             d="m 0,0 c -1.789,0 -3.241,1.539 -3.241,3.67 0,2.128 1.452,3.672 3.241,3.672 1.79,0 3.242,-1.544 3.242,-3.672 C 3.242,1.539 1.79,0 0,0 m 0,9.632 c -3.479,0 -6.237,-2.469 -6.237,-5.962 0,-3.49 2.758,-5.96 6.237,-5.96 3.48,0 6.237,2.47 6.237,5.96 C 6.237,7.163 3.48,9.632 0,9.632" /></g><g
           transform="translate(273.0459,372.8467)"
           id="g84"><path
             id="path86"
             style="fill:#ebecec;fill-opacity:1;fill-rule:nonzero;stroke:none"
             d="m 0,0 c -1.75,0 -3.283,1.226 -3.381,2.088 l -1.433,-2.95 c 0.955,-0.827 2.715,-1.377 4.908,-1.377 3.411,0 5.438,1.489 5.438,3.538 -0.031,1.677 -1.014,2.723 -3.822,3.468 -1.979,0.514 -3.12,0.714 -3.12,1.437 0,0.8 0.988,1.222 2.256,1.222 1.067,0 2.078,-0.255 2.992,-0.861 L 4.947,8.549 C 4.276,9.104 2.228,9.588 0.877,9.588 -2.422,9.588 -4.443,7.947 -4.443,5.944 -4.475,4.616 -3.525,3.488 -0.494,2.719 1.423,2.229 2.488,1.998 2.488,1.229 2.488,0.393 1.464,0 0,0" /></g><g
           transform="translate(321.6787,342.2793)"
           id="g88"><path
             id="path90"
             style="fill:#e6232a;fill-opacity:1;fill-rule:nonzero;stroke:none"
             d="m 0,0 c -0.508,0.453 -0.719,1.628 -0.444,2.557 l 0.002,0.008 c 0,0 0,-10e-4 -0.002,-10e-4 V 2.563 C -0.857,2.045 -1.587,1.729 -2.079,1.742 -2.48,1.752 -5.075,1.788 -5.075,1.788 -5.507,1.792 -5.86,1.45 -5.867,1.019 -5.874,0.587 -5.529,0.232 -5.1,0.226 c 0,0 2.297,-0.042 2.66,-0.04 0.432,0 0.999,0.248 1.281,0.592 l 0.157,0.4 C -1.107,0.899 -1.209,0.62 -1.312,0.34 -1.464,-0.389 -1.29,-0.792 -0.729,-1.269 -0.138,-1.783 0.76,-2.56 0.76,-2.56 h 0.001 c 0.3,-0.257 0.752,-0.225 1.01,0.076 0.259,0.298 0.227,0.75 -0.075,1.01 0,0 -1.42,1.226 -1.696,1.474" /></g><g
           transform="translate(323.4941,346.5117)"
           id="g92"><path
             id="path94"
             style="fill:#e6232a;fill-opacity:1;fill-rule:nonzero;stroke:none"
             d="m 0,0 c -0.452,0.509 -0.53,1.702 -0.154,2.592 l 0.007,0.009 c 0,0 -0.002,-0.002 -0.004,-0.002 L -0.152,2.598 C -0.621,2.128 -1.382,1.9 -1.866,1.97 -2.266,2.021 -4.84,2.352 -4.84,2.352 -5.268,2.406 -5.659,2.104 -5.714,1.677 -5.768,1.249 -5.469,0.858 -5.039,0.803 c 0,0 2.274,-0.302 2.637,-0.341 0.427,-0.048 1.02,0.133 1.338,0.442 l 0.204,0.38 C -0.995,1.026 -1.124,0.767 -1.253,0.509 c -0.25,-0.686 -0.111,-1.145 0.386,-1.684 0.531,-0.579 1.334,-1.452 1.334,-1.452 h 0.001 c 0.267,-0.291 0.719,-0.31 1.012,-0.041 0.291,0.269 0.308,0.72 0.041,1.013 0,0 -1.274,1.38 -1.521,1.655" /></g><g
           transform="translate(317.9609,331.0029)"
           id="g96"><path
             id="path98"
             style="fill:#e6232a;fill-opacity:1;fill-rule:nonzero;stroke:none"
             d="m 0,0 c -0.218,-0.625 -0.802,-1.164 -1.267,-1.317 -0.383,-0.125 -2.842,-0.955 -2.842,-0.955 -0.407,-0.139 -0.627,-0.582 -0.489,-0.99 0.138,-0.408 0.58,-0.628 0.989,-0.491 0,0 2.178,0.726 2.519,0.847 0.405,0.146 0.966,0.593 1.009,0.984 L 0.001,-0.006 0,0.002 Z" /></g><g
           transform="translate(327.1006,348.6982)"
           id="g100"><path
             id="path102"
             style="fill:#e6232a;fill-opacity:1;fill-rule:nonzero;stroke:none"
             d="m 0,0 c 0,0 -1.109,1.513 -1.324,1.814 -0.392,0.558 -0.335,1.751 0.141,2.594 L -1.178,4.418 -1.18,4.415 -1.183,4.413 C -1.7,4.001 -2.481,3.86 -2.958,3.981 -3.348,4.081 -5.869,4.698 -5.869,4.698 -6.284,4.801 -6.709,4.545 -6.812,4.128 -6.914,3.71 -6.66,3.285 -6.24,3.184 c 0,0 2.227,-0.558 2.581,-0.637 0.421,-0.096 1.028,0.017 1.379,0.288 l 0.245,0.351 C -2.196,2.947 -2.353,2.709 -2.507,2.471 -2.819,1.851 -2.752,1.337 -2.319,0.746 c 0.463,-0.635 1.162,-1.593 1.162,-1.593 0.234,-0.32 0.683,-0.389 1.001,-0.157 C 0.164,-0.77 0.234,-0.321 0,0" /></g><g
           transform="translate(321.5215,332.2773)"
           id="g104"><path
             id="path106"
             style="fill:#e6232a;fill-opacity:1;fill-rule:nonzero;stroke:none"
             d="m 0,0 c 0,0 -1.663,0.876 -1.987,1.056 -0.596,0.327 -1.069,1.425 -1.007,2.39 l 0.001,0.01 -0.001,-10e-4 V 3.453 L -2.996,3.452 C -3.28,2.854 -3.923,2.385 -4.403,2.286 -4.797,2.207 -7.332,1.658 -7.332,1.658 -7.754,1.567 -8.022,1.151 -7.933,0.729 -7.841,0.309 -7.428,0.042 -7.006,0.132 V 0.131 c 0,0 2.247,0.475 2.6,0.557 0.419,0.099 0.918,0.467 1.112,0.864 l 0.068,0.43 C -3.267,1.693 -3.302,1.403 -3.339,1.115 c 0.026,-0.717 0.277,-1.116 0.925,-1.46 0.694,-0.368 1.743,-0.922 1.743,-0.922 0.35,-0.184 0.784,-0.051 0.969,0.298 C 0.481,-0.62 0.35,-0.186 0,0" /></g><g
           transform="translate(320.3545,337.8652)"
           id="g108"><path
             id="path110"
             style="fill:#e6232a;fill-opacity:1;fill-rule:nonzero;stroke:none"
             d="M 0,0 C -0.558,0.395 -0.901,1.538 -0.732,2.492 L -0.729,2.502 -0.732,2.499 -0.733,2.496 C -1.085,1.935 -1.775,1.542 -2.263,1.498 -2.664,1.461 -5.247,1.203 -5.247,1.203 -5.676,1.16 -5.988,0.779 -5.945,0.35 c 0.042,-0.429 0.424,-0.742 0.852,-0.699 0,0 2.285,0.217 2.646,0.259 0.428,0.051 0.965,0.36 1.204,0.733 l 0.116,0.416 C -1.2,0.774 -1.271,0.486 -1.34,0.202 c -0.079,-0.681 0.151,-1.131 0.757,-1.542 0.648,-0.444 1.627,-1.114 1.627,-1.114 0.325,-0.225 0.772,-0.14 0.996,0.186 0.222,0.327 0.139,0.774 -0.186,0.997 0,0 -1.552,1.058 -1.854,1.271" /></g><g
           transform="translate(290.3311,342.2793)"
           id="g112"><path
             id="path114"
             style="fill:#e6232a;fill-opacity:1;fill-rule:nonzero;stroke:none"
             d="M 0,0 C 0.506,0.453 0.721,1.628 0.446,2.557 L 0.441,2.565 0.444,2.564 0.446,2.563 C 0.857,2.045 1.587,1.729 2.078,1.742 2.48,1.752 5.074,1.788 5.074,1.788 5.506,1.792 5.861,1.45 5.866,1.019 5.874,0.587 5.53,0.232 5.099,0.226 c 0,0 -2.296,-0.042 -2.658,-0.04 -0.432,0 -0.999,0.248 -1.281,0.592 l -0.159,0.4 C 1.107,0.899 1.209,0.62 1.312,0.34 1.465,-0.389 1.288,-0.792 0.729,-1.269 0.139,-1.783 -0.76,-2.56 -0.76,-2.56 h -0.001 c -0.299,-0.257 -0.753,-0.225 -1.01,0.076 -0.26,0.298 -0.227,0.75 0.073,1.01 0,0 1.421,1.226 1.698,1.474" /></g><g
           transform="translate(288.5146,346.5117)"
           id="g116"><path
             id="path118"
             style="fill:#e6232a;fill-opacity:1;fill-rule:nonzero;stroke:none"
             d="M 0,0 C 0.453,0.509 0.532,1.702 0.154,2.592 L 0.149,2.601 c 0.001,0 0.002,-0.002 0.002,-0.002 L 0.152,2.598 C 0.622,2.128 1.382,1.9 1.869,1.97 2.266,2.021 4.842,2.352 4.842,2.352 5.269,2.406 5.66,2.104 5.715,1.677 5.769,1.249 5.468,0.858 5.041,0.803 5.041,0.803 2.765,0.501 2.403,0.462 1.976,0.414 1.383,0.595 1.066,0.904 L 0.86,1.284 C 0.996,1.026 1.125,0.767 1.255,0.509 c 0.249,-0.686 0.11,-1.145 -0.387,-1.684 -0.53,-0.579 -1.334,-1.452 -1.334,-1.452 -0.268,-0.291 -0.721,-0.31 -1.014,-0.041 -0.289,0.269 -0.308,0.72 -0.041,1.013 0,0 1.275,1.38 1.521,1.655" /></g><g
           transform="translate(294.0498,331.0029)"
           id="g120"><path
             id="path122"
             style="fill:#e6232a;fill-opacity:1;fill-rule:nonzero;stroke:none"
             d="M 0,0 C 0.215,-0.625 0.801,-1.164 1.266,-1.317 1.648,-1.442 4.107,-2.272 4.107,-2.272 4.516,-2.411 4.735,-2.854 4.598,-3.262 4.46,-3.67 4.018,-3.89 3.609,-3.753 c 0,0 -2.179,0.726 -2.521,0.847 -0.406,0.146 -0.964,0.593 -1.009,0.984 l -0.08,1.916 v 0.008 z" /></g><g
           transform="translate(284.9106,348.6982)"
           id="g124"><path
             id="path126"
             style="fill:#e6232a;fill-opacity:1;fill-rule:nonzero;stroke:none"
             d="M 0,0 C 0,0 1.108,1.513 1.322,1.814 1.715,2.372 1.659,3.565 1.183,4.408 L 1.176,4.418 1.178,4.415 1.18,4.413 C 1.697,4.001 2.479,3.86 2.956,3.981 3.347,4.081 5.866,4.698 5.866,4.698 6.285,4.801 6.708,4.545 6.81,4.128 6.914,3.71 6.659,3.285 6.24,3.184 6.24,3.184 4.013,2.626 3.657,2.547 3.236,2.451 2.631,2.564 2.279,2.835 L 2.035,3.186 C 2.194,2.947 2.348,2.709 2.506,2.471 2.817,1.851 2.749,1.337 2.318,0.746 1.855,0.111 1.155,-0.847 1.155,-0.847 0.922,-1.167 0.475,-1.236 0.154,-1.004 -0.165,-0.77 -0.235,-0.321 0,0" /></g><g
           transform="translate(290.4883,332.2773)"
           id="g128"><path
             id="path130"
             style="fill:#e6232a;fill-opacity:1;fill-rule:nonzero;stroke:none"
             d="m 0,0 c 0,0 1.663,0.876 1.986,1.056 0.598,0.327 1.07,1.425 1.009,2.39 L 2.993,3.456 2.995,3.455 V 3.453 L 2.998,3.452 C 3.28,2.854 3.923,2.385 4.402,2.286 4.796,2.207 7.333,1.658 7.333,1.658 7.754,1.567 8.024,1.151 7.932,0.729 7.841,0.309 7.426,0.042 7.005,0.132 V 0.131 c 0,0 -2.247,0.475 -2.599,0.557 C 3.986,0.787 3.488,1.155 3.294,1.552 L 3.226,1.982 C 3.266,1.693 3.302,1.403 3.338,1.115 3.313,0.398 3.063,-0.001 2.414,-0.345 1.722,-0.713 0.671,-1.267 0.671,-1.267 0.322,-1.451 -0.112,-1.318 -0.299,-0.969 -0.482,-0.62 -0.349,-0.186 0,0" /></g><g
           transform="translate(291.6572,337.8652)"
           id="g132"><path
             id="path134"
             style="fill:#e6232a;fill-opacity:1;fill-rule:nonzero;stroke:none"
             d="M 0,0 C 0.555,0.395 0.898,1.538 0.73,2.492 L 0.728,2.502 0.73,2.499 0.732,2.496 C 1.083,1.935 1.772,1.542 2.263,1.498 2.662,1.461 5.244,1.203 5.244,1.203 5.672,1.16 5.985,0.779 5.945,0.35 5.902,-0.079 5.52,-0.392 5.092,-0.349 H 5.09 c 0,0 -2.285,0.217 -2.646,0.259 C 2.018,-0.039 1.48,0.27 1.241,0.643 L 1.125,1.059 C 1.2,0.774 1.268,0.486 1.337,0.202 1.415,-0.479 1.187,-0.929 0.582,-1.34 c -0.647,-0.444 -1.628,-1.114 -1.628,-1.114 -0.326,-0.225 -0.772,-0.14 -0.996,0.186 -0.223,0.327 -0.14,0.774 0.188,0.997 0,0 1.551,1.058 1.854,1.271" /></g></g></g></g></svg>