<svg xmlns="http://www.w3.org/2000/svg" xml:space="preserve" width="1000" height="751.164" viewBox="0 0 1000 751.164"><path d="M482.05 0C296.157 0 143.092 139.213 120.603 319.04c-3.544 15.39-5.77 30.578-7.308 45.607h-17.71c0 213.464 173 386.517 386.465 386.517 213.463 0 386.517-173.053 386.517-386.517h-21.87c0 15.812-1.355 31.286-3.308 46.568-3.65-15.64-9.641-31.22-18.563-46.568h21.87C846.697 163.237 683.425 0 482.05 0Z" style="fill:#022346;fill-opacity:1;fill-rule:nonzero;stroke:none;stroke-width:36.4149"/><path d="M482.071 729.288c201.374 0 364.622-163.247 364.622-364.621h-21.849c0 189.284-153.488 342.736-342.773 342.736-189.284 0-342.773-153.452-342.773-342.736H117.45c0 201.374 163.247 364.621 364.621 364.621" style="fill:#d00e31;fill-opacity:1;fill-rule:nonzero;stroke:none;stroke-width:36.4149"/><path d="M482.071 21.894a342.773 342.773 0 0 0-342.773 342.773h21.886A320.888 320.888 0 0 1 482.07 43.779 320.888 320.888 0 0 1 802.96 364.667h21.885A342.773 342.773 0 0 0 482.071 21.894" style="fill:#60b0e3;fill-opacity:1;fill-rule:nonzero;stroke:none;stroke-width:36.4149"/><path d="M700.852 364.667a218.78 218.78 0 1 1-437.561 0 218.78 218.78 0 0 1 437.56 0M255.571 185.396l32.846 28.695 20.757-23.779-6.154-5.389-14.348 16.387-26.655-23.306zM325.451 176.693c-11.434 9.541-20.501 5.79-29.095-4.515-8.558-10.269-10.67-19.992.728-29.496 11.653-9.723 20.684-5.644 29.168 4.515 8.667 10.415 10.815 19.81-.8 29.496m-23.015-27.566c-7.174 5.972-3.387 10.961 1.493 16.788 5.28 6.372 9.359 10.123 16.168 4.442 6.19-5.207 5.353-8.885-1.31-16.896-6.01-7.21-9.833-9.796-16.351-4.334" style="fill:#fff;fill-opacity:1;fill-rule:nonzero;stroke:none;stroke-width:36.4149"/><path d="m345.006 120.214 17.843 30.443-8.703 5.134-17.843-30.48-11.143 6.52-4.188-7.175 31.026-18.17 4.187 7.173zM386.155 101.278l12.672 32.956-9.395 3.641-12.709-32.955-12.017 4.624-3.022-7.756 33.574-12.927 2.986 7.756zM417.399 127.97l-8.886-42.714 31.28-6.482 1.676 8.157-21.594 4.479 1.893 9.103 18.681-3.86 1.675 8.012-18.68 3.896 1.93 9.359 21.593-4.48 1.675 8.048zM511.494 107.323c-.364 8.521-8.375 13.474-18.353 13.037-6.154-.255-11.944-2.477-14.566-5.827-3.058-3.933-4.442-10.487-4.042-17.078.219-5.426 1.311-11.362 3.824-14.639 4.333-5.717 8.958-7.028 16.314-6.7 8.849.364 16.678 5.425 17.297 15.658l-9.941-.437c-.219-3.933-2.732-6.591-7.648-6.81-3.568-.145-6.263.729-7.319 2.695a22.577 22.577 0 0 0-2.731 10.633c-.218 4.734.655 9.25 2.44 11.544 1.129 1.42 3.75 2.44 6.664 2.476 4.77.146 7.683-1.784 7.829-5.098l.145-3.205-8.776-.364.327-7.465 18.972.765zM519.724 122.617l9.76 1.748 7.574-42.97-9.76-1.747zM567.537 134.889l-.655-9.577-15.003-4.807-5.863 7.502-9.941-3.205L565.97 88.57l8.12 2.622 3.278 46.83zm-1.966-31.135-8.34 10.05 9.286 2.95zM607.63 154.189l-4.188-32.41-12.636 23.306-8.703-4.734 20.756-38.345 6.737 3.642 4.224 32.482 12.636-23.342 8.776 4.734-20.793 38.345zM660.213 148.399l-21.958 27.639-7.902-6.264 21.958-27.638-10.124-8.048 5.171-6.518 28.185 22.395-5.17 6.482zM661.524 199.343c-4.042-4.624-5.754-10.123-5.353-17.588l8.885-.182c-.546 5.68.291 8.812 3.132 12.017 3.204 3.75 6.336 4.624 8.74 2.585 1.383-1.165 1.965-3.86-.22-7.064l-2.73-4.334c-3.533-5.462-4.662-12.927 1.128-17.952 6.227-5.353 14.566-4.188 21.12 3.35a23.305 23.305 0 0 1 5.427 15.877l-8.63.291c.29-6.19-1.676-8.74-3.35-10.67-2.695-3.13-5.39-3.531-7.976-1.347-1.784 1.566-1.529 3.57.219 6.41.51.873 2.112 3.24 2.549 3.86 4.552 6.663 4.77 14.493-.801 19.263-6.264 5.462-15.294 3.423-22.14-4.516M930.811 357.056 1000 287.868H757.659l12.709-47.303h-75.234l-12.672 47.303h-472.7l47.338-47.34H96.948a55.788 55.788 0 0 0-53.785 41.295L1.578 437.059a44.681 44.681 0 0 0 7.792 39.146c8.594 11.253 21.667 17.662 35.796 17.662h831.715a55.715 55.715 0 0 0 53.785-41.258l24.835-92.676h-27.567z" style="fill:#fff;fill-opacity:1;fill-rule:nonzero;stroke:none;stroke-width:36.4149"/><path d="m221.16 482.942 49.341-184.15h6.919l-49.342 184.15ZM370.132 462.623h-37.871a17.843 17.843 0 0 1-17.37-22.614l27.384-102.18a25.272 25.272 0 0 1 24.398-18.717h85.793l-43.916 163.83h-6.92l42.096-157.166h-77.053a18.572 18.572 0 0 0-17.916 13.8l-27.384 102.181a11.18 11.18 0 0 0 10.888 14.165h44.535zM490.774 482.942l38.418-143.365a18.572 18.572 0 0 1 17.953-13.765h77.053l-42.132 157.13h6.956l43.88-163.83h-85.757a25.345 25.345 0 0 0-24.435 18.717l-38.854 145.113zM747.535 462.623h-54.33a17.734 17.734 0 0 1-14.239-7.028 17.77 17.77 0 0 1-3.131-15.586l50.543-188.52h6.92l-18.135 67.623h78.729l-6.7 6.7h-73.814l-31.062 115.945a11.18 11.18 0 0 0 10.889 14.165h56.115zM778.889 455.922h95.589a18.572 18.572 0 0 0 17.916-13.764l12.854-47.959h-86.995l15.076-56.37a25.345 25.345 0 0 1 24.434-18.754h95.516l-6.7 6.7h-88.816a18.644 18.644 0 0 0-17.952 13.766l-12.855 47.958h87.032l-15.113 56.37a25.308 25.308 0 0 1-24.397 18.754h-97.374zM99.388 271.809a25.272 25.272 0 0 0-24.398 18.717L34.934 440.01a17.843 17.843 0 0 0 3.095 15.586 17.807 17.807 0 0 0 14.238 7.028h99.048l26.729-99.74h-58.7l-6.701 6.663h56.698l-23.16 86.413H52.267a11.143 11.143 0 0 1-8.922-4.406 11.143 11.143 0 0 1-1.966-9.796l40.056-149.483a18.572 18.572 0 0 1 17.953-13.765h104.328l6.664-6.7z" style="fill:#fff;fill-opacity:1;fill-rule:nonzero;stroke:none;stroke-width:36.4149"/><path d="m878.01 410.877-6.628 24.762h-87.031l-5.426 20.32h95.553a18.572 18.572 0 0 0 17.952-13.802l12.855-47.921h-87.032l15.112-56.37a25.308 25.308 0 0 1 24.398-18.754h95.553l20.32-20.32H855.36a44.79 44.79 0 0 0-43.225 33.174l-21.157 78.911z" style="fill:#d00e31;fill-opacity:1;fill-rule:nonzero;stroke:none;stroke-width:36.4149"/><path d="M771.678 482.942h105.203a44.79 44.79 0 0 0 43.26-33.174l21.121-78.91h-86.995l6.628-24.726h65.4l20.32-20.32h-88.852a18.572 18.572 0 0 0-17.916 13.765l-12.854 47.958h86.995l-15.113 56.37a25.272 25.272 0 0 1-24.397 18.718h-97.374zM300.252 298.756h-22.796l-49.342 184.15h22.796zM247.706 298.756l-49.343 184.15h22.833l49.342-184.15zM364.27 298.792a44.79 44.79 0 0 0-43.225 33.174l-28.913 107.897a34.23 34.23 0 0 0 33.028 43.08h24.653l20.32-20.32H332.26a17.843 17.843 0 0 1-17.37-22.614l27.384-102.18a25.272 25.272 0 0 1 24.398-18.717h85.793l-43.916 163.83h22.832l49.342-184.15zM522.71 337.829a25.272 25.272 0 0 1 24.398-18.717h85.794l-43.917 163.83h22.832l49.342-184.15H544.705a44.79 44.79 0 0 0-43.225 33.174l-40.456 150.976h22.795L522.71 337.83" style="fill:#d00e31;fill-opacity:1;fill-rule:nonzero;stroke:none;stroke-width:36.4149"/><path d="m550.24 346.095-36.67 136.81h-22.796l38.418-143.364a18.572 18.572 0 0 1 17.916-13.765h77.054l-42.096 157.13h-22.795l36.67-136.81zM756.057 251.49H733.26l-18.135 67.622h78.693l20.32-20.32h-70.755ZM682.316 441.757a11.216 11.216 0 0 0 10.889 14.202h56.115l5.462-20.32h-47.995l23.961-89.507h36.124l20.32-20.32h-73.814Z" style="fill:#d00e31;fill-opacity:1;fill-rule:nonzero;stroke:none;stroke-width:36.4149"/><path d="M726.342 251.49h-22.796L653.04 439.9a34.23 34.23 0 0 0 33.065 43.042h55.97l5.425-20.32h-54.33a17.807 17.807 0 0 1-14.24-7.027 17.843 17.843 0 0 1-3.094-15.586zM366.673 325.812a18.644 18.644 0 0 0-17.953 13.765c-6.81 25.563-27.384 102.18-27.384 102.18a11.252 11.252 0 0 0 10.888 14.202h44.572l12.636-12.636-10.633 39.62h22.832l42.095-157.13zM391.47 435.64h-45.664l23.997-89.507h45.665zM876.881 482.942a44.79 44.79 0 0 0 43.224-33.174M81.435 292.238 41.38 441.72a11.143 11.143 0 0 0 1.966 9.795 11.143 11.143 0 0 0 8.922 4.406h93.914l23.16-86.412h-56.698l-16.751 16.75h46.138l-13.219 49.343H65.85l36.67-136.81h80.877l20.32-20.32H99.386a18.572 18.572 0 0 0-17.952 13.765" style="fill:#d00e31;fill-opacity:1;fill-rule:nonzero;stroke:none;stroke-width:36.4149"/><path d="M151.315 462.623H52.267a17.843 17.843 0 0 1-17.333-22.614L74.99 290.526a25.272 25.272 0 0 1 24.398-18.717H210.38l20.32-20.32H96.984a44.79 44.79 0 0 0-43.26 33.174l-41.586 155.2a34.23 34.23 0 0 0 33.065 43.08h123.482l36.67-136.848h-69.297l-16.715 16.751h58.7zM383.933 252c0 1.492.364 2.548 2.258 2.548h19.118v4.48h-27.857c-3.06 0-4.807-1.567-4.807-4.917v-32.227h11.288zM433.785 260.63c-15.04 0-23.378-9.505-23.378-20.174 0-10.706 7.938-20.174 23.378-20.174 15.477 0 23.415 9.468 23.415 20.174 0 10.67-8.667 20.174-23.415 20.174m-12.38-20.174c0 8.776 5.352 15.913 12.38 15.913 7.028 0 12.381-7.137 12.381-15.913 0-8.74-5.353-16.023-12.38-16.023-7.029 0-12.382 7.283-12.382 16.023M489.172 226.29v32.7h-11.398v-32.7h-14.566v-4.442h40.567v4.442zM534.836 226.29v32.7H523.44v-32.7h-14.566v-4.442h40.53v4.442zM591.097 237.07v4.405h-23.56v10.488c0 1.493.074 2.622 2.622 2.622h21.302v4.479h-29.568c-3.205 0-5.645-.51-5.645-5.426v-26.364c0-4.844 2.586-5.39 5.28-5.39h29.933v4.443h-21.01c-2.04 0-2.914.291-2.914 2.658v8.084z" style="fill:#d00e31;fill-opacity:1;fill-rule:nonzero;stroke:none;stroke-width:36.4149"/><path d="m237.51 549.217 33.465-27.967 20.465 24.508-6.373 5.316-14.129-16.933-7.174 5.972L276 554.752l-6.3 5.28-12.199-14.639-7.356 6.155 14.13 16.896-6.3 5.28zM275.49 591.495c-4.48-4.188-6.737-9.505-7.065-16.97l8.85-1.056c0 5.681 1.165 8.74 4.296 11.617 3.532 3.459 6.737 4.005 8.958 1.748 1.238-1.311 1.53-4.042-.91-7.029l-3.168-4.042c-4.079-5.061-5.9-12.38-.656-17.952 5.645-5.972 14.093-5.608 21.34 1.238a23.378 23.378 0 0 1 6.991 15.258l-8.594 1.165c-.291-6.19-2.512-8.557-4.37-10.305-3.022-2.877-5.717-2.986-8.084-.546-1.602 1.711-1.165 3.677.838 6.336a93.95 93.95 0 0 0 2.95 3.605c5.17 6.19 6.19 13.947 1.128 19.227-5.717 6.045-14.893 4.916-22.504-2.294M335.283 592.187l-19.7 29.277-8.376-5.644 19.7-29.278-10.705-7.21 4.66-6.882 29.825 20.1-4.661 6.883zM326.944 632.57l10.342 5.718 5.462-9.978-10.342-5.717zM377.015 613.161l-3.715 9.832 10.888-2.476-11.398 30.26 9.068 3.424 15.585-41.331-7.392-2.768zM419.984 619.06c9.431 2.295 14.056 10.27 12.235 17.698a27.238 27.238 0 0 1-5.79 10.27l-14.201 15.84-10.78-2.622 12.855-13.801a13.838 13.838 0 0 1-13.655-16.897c1.893-7.72 9.358-12.927 19.336-10.487m-4.989 19.59c4.625 1.13 6.81-1.019 7.574-4.223.765-3.095-.764-6.19-4.588-7.137-4.078-.984-6.81.983-7.647 4.479-.838 3.386.874 5.972 4.661 6.882M449.808 670.114c-10.852-1.128-15.877-7.902-15.076-15.658a11.289 11.289 0 0 1 7.028-9.14 9.905 9.905 0 0 1-4.115-9.286c.801-7.683 7.429-12.053 16.715-11.07 10.014 1.02 15.075 6.955 14.347 14.202a9.76 9.76 0 0 1-5.9 8.339 11.69 11.69 0 0 1 4.953 10.269c-.764 7.392-6.882 13.51-17.952 12.344m1.857-19.3c-3.605-.4-6.518 2.04-6.81 4.698-.291 2.804 1.311 5.535 5.754 5.972 4.625.51 6.7-1.857 6.992-4.661.291-2.695-1.967-5.608-5.936-6.008m1.82-17.662c-3.568-.364-5.716 1.348-6.008 4.079-.254 2.512 1.857 4.734 5.062 5.098 3.569.364 5.936-1.457 6.263-4.042.328-2.658-1.602-4.734-5.316-5.135M475.48 670.915l-.218-7.1 17.188-18.5c1.966-2.22 3.022-4.442 2.986-6.226-.074-2.44-1.894-4.443-5.463-4.333-4.187.109-6.008 3.277-6.227 7.028l-9.65.291c-.109-9.65 7.575-15.476 15.586-15.695 8.266-.218 15.55 4.224 15.768 12.49.109 3.642-1.166 7.32-4.88 11.362l-11.143 11.871 17.042-.473.254 8.412zM557.596 661.193l-19.227 4.66-10.306-42.386 18.135-4.406c9.431-2.294 16.423 1.31 18.28 8.921a13.656 13.656 0 0 1-1.784 8.886c2.804 1.711 5.753 4.442 6.59 7.902 1.967 8.01-2.585 14.201-11.688 16.423m-8.521-34.267-9.505 2.33 2.149 8.813 9.832-2.403c2.913-.692 3.787-3.46 3.314-5.426a4.661 4.661 0 0 0-5.79-3.314m4.442 16.605-9.904 2.404 2.367 9.65 10.16-2.477c3.022-.728 3.896-3.423 3.313-5.826-.582-2.44-2.731-4.515-5.936-3.75M612.473 626.417c3.787 8.994-1.93 16.532-11.544 20.574-9.358 3.97-18.935 2.877-22.723-6.118l-11.47-27.165 9.286-3.897 11.58 27.42c1.602 3.715 5.753 3.897 10.086 2.04 4.407-1.857 7.174-4.952 5.608-8.667l-11.58-27.42 9.286-3.933zM641.605 626.708c-5.28 3.132-10.998 3.787-18.28 2.04l1.456-8.813c5.499 1.602 8.74 1.347 12.381-.838 4.297-2.44 5.754-5.39 4.188-8.12-.91-1.603-3.46-2.622-6.992-1.093l-4.77 1.894c-6.009 2.476-13.583 2.185-17.443-4.406-4.115-7.101-1.42-15.076 7.174-20.138a23.305 23.305 0 0 1 16.605-2.44l-1.275 8.558c-6.045-1.42-8.921.036-11.106 1.31-3.605 2.113-4.516 4.662-2.804 7.612 1.201 2.039 3.204 2.184 6.336.983.947-.364 3.569-1.493 4.26-1.821 7.393-3.241 15.113-2.003 18.79 4.333 4.225 7.138.547 15.659-8.52 20.939M687.706 591.422l-8.448-4.552-12.054 10.16 3.205 8.958-7.975 6.736-14.784-44.608 6.518-5.498 41.44 22.176zm-27.42-14.894 4.078 12.381 7.465-6.3zM721.28 555.626l-32.554-2.731 20.1 17.26-6.445 7.502-33.101-28.367 4.952-5.79 32.665 2.695-20.174-17.261 6.482-7.574 33.137 28.367z" style="fill:#fff;fill-opacity:1;fill-rule:nonzero;stroke:none;stroke-width:36.4149"/></svg>