<?xml version="1.0" encoding="UTF-8" standalone="no"?>
<svg
   xmlns:dc="http://purl.org/dc/elements/1.1/"
   xmlns:cc="http://creativecommons.org/ns#"
   xmlns:rdf="http://www.w3.org/1999/02/22-rdf-syntax-ns#"
   xmlns:svg="http://www.w3.org/2000/svg"
   xmlns="http://www.w3.org/2000/svg"
   viewBox="0 0 816.38397 1145.196"
   height="1145.196"
   width="816.38397"
   xml:space="preserve"
   id="svg2"
   version="1.1"><metadata
     id="metadata8"><rdf:RDF><cc:Work
         rdf:about=""><dc:format>image/svg+xml</dc:format><dc:type
           rdf:resource="http://purl.org/dc/dcmitype/StillImage" /></cc:Work></rdf:RDF></metadata><defs
     id="defs6"><clipPath
       id="clipPath18"
       clipPathUnits="userSpaceOnUse"><path
         id="path16"
         d="M 0,858.897 H 612.288 V 0 H 0 Z" /></clipPath></defs><g
     transform="matrix(1.3333333,0,0,-1.3333333,0,1145.196)"
     id="g10"><g
       id="g12"><g
         clip-path="url(#clipPath18)"
         id="g14"><g
           transform="translate(392.8027,429.5459)"
           id="g20"><path
             id="path22"
             style="fill:#ffffff;fill-opacity:1;fill-rule:nonzero;stroke:none"
             d="m 0,0 c 0,-43.945 -35.625,-79.574 -79.571,-79.574 -43.946,0 -79.574,35.629 -79.574,79.574 0,43.95 35.628,79.575 79.574,79.575 C -35.625,79.575 0,43.95 0,0" /></g><g
           transform="translate(312.7373,464.4038)"
           id="g24"><path
             id="path26"
             style="fill:#0f396e;fill-opacity:1;fill-rule:nonzero;stroke:none"
             d="m 0,0 1.929,18.927 c 0.192,1.859 1.821,3.602 3.64,3.84 L 32.6,26.146 c 0.361,0.029 0.638,-0.228 0.595,-0.612 l -0.39,-3.855 C 32.761,21.294 32.438,20.964 32.072,20.92 L 13.048,18.548 C 13.007,18.536 11.983,18.426 11.16,17.589 10.646,17.061 10.337,16.374 10.257,15.533 L 9.231,5.525 C 9.018,3.441 10.385,3.074 11.146,3.172 l 19.363,2.412 c 0.644,0.082 0.607,-0.437 0.592,-0.596 L 30.706,1.149 C 30.664,0.804 30.33,0.432 29.982,0.36 L 2.901,-3.027 C 1.116,-3.223 -0.196,-1.88 0,0" /></g><g
           transform="translate(306.9102,485.7534)"
           id="g28"><path
             id="path30"
             style="fill:#0f396e;fill-opacity:1;fill-rule:nonzero;stroke:none"
             d="m 0,0 c 1.604,0.198 2.759,-0.974 2.592,-2.596 l -2.335,-22.822 -8.784,-1.09 1.918,18.698 c 0.15,1.872 -1.457,1.64 -1.457,1.64 l -14.107,-1.76 -2.088,-20.548 -9.039,-1.131 2.633,25.775 z" /></g><g
           transform="translate(350.5439,461.3989)"
           id="g32"><path
             id="path34"
             style="fill:#c9b487;fill-opacity:1;fill-rule:nonzero;stroke:none"
             d="M 0,0 C 0,0 4.337,1.439 6.293,0.966 L 6.882,2.509 C 5.202,3.325 0.987,2.343 0.987,2.343 c 0,0 -2.005,3.66 -3.443,3.983 L -3.164,4.58 C -1.156,3.426 0,0 0,0" /></g><g
           transform="translate(334.1396,358.6387)"
           id="g36"><path
             id="path38"
             style="fill:#c9b487;fill-opacity:1;fill-rule:nonzero;stroke:none"
             d="M 0,0 C 0,0 -1.769,2.445 -2.878,2.672 L -3.397,1.383 c 1.554,-0.975 2.544,-3.013 2.544,-3.013 0,0 3.902,0.809 5.45,0.35 l 0.556,1.263 C 3.831,0.692 0,0 0,0" /></g><g
           transform="translate(342.0596,378.0225)"
           id="g40"><path
             id="path42"
             style="fill:#c9b487;fill-opacity:1;fill-rule:nonzero;stroke:none"
             d="M 0,0 C 0,0 -3.404,3.336 -4.826,3.265 L -5.02,1.48 c 2.212,-0.677 4.517,-3.814 4.517,-3.814 0,0 4.041,2.831 6.045,2.797 l 0.291,1.77 C 4.01,2.652 0,0 0,0" /></g><g
           transform="translate(353.5029,467.0801)"
           id="g44"><path
             id="path46"
             style="fill:#c9b487;fill-opacity:1;fill-rule:nonzero;stroke:none"
             d="M 0,0 C 0,0 4.319,0.682 6.305,0.416 L 7.201,2.208 C 5.445,2.841 0.967,2.135 0.967,2.135 c 0,0 -1.911,3.501 -3.368,3.67 L -3.11,4.071 C -1.003,3.127 0,0 0,0" /></g><g
           transform="translate(356.9873,472.6919)"
           id="g48"><path
             id="path50"
             style="fill:#c9b487;fill-opacity:1;fill-rule:nonzero;stroke:none"
             d="M 0,0 C 0,0 3.41,0.171 5.359,-0.213 L 6.374,1.531 C 4.679,2.274 1.16,2.165 1.16,2.165 c 0,0 -2.269,2.835 -3.594,3.369 L -3.247,3.978 C -1.217,2.924 0,0 0,0" /></g><g
           transform="translate(360.0908,477.7949)"
           id="g52"><path
             id="path54"
             style="fill:#c9b487;fill-opacity:1;fill-rule:nonzero;stroke:none"
             d="m 0,0 c 0,0 3.262,0.343 5.171,-0.175 l 1.162,1.808 c -1.63,0.836 -5.028,0.451 -5.028,0.451 0,0 -1.812,3.103 -3.219,3.455 L -2.764,4.117 C -0.823,2.93 0,0 0,0" /></g><g
           transform="translate(363.3379,482.5884)"
           id="g56"><path
             id="path58"
             style="fill:#c9b487;fill-opacity:1;fill-rule:nonzero;stroke:none"
             d="M 0,0 C 0,0 2.876,-0.234 4.736,-0.869 L 5.788,0.524 C 4.217,1.478 1.074,1.641 1.074,1.641 c 0,0 -1.616,3.011 -2.993,3.456 L -2.804,3.795 C -0.951,2.497 0,0 0,0" /></g><g
           transform="translate(332.0303,354.8652)"
           id="g60"><path
             id="path62"
             style="fill:#c9b487;fill-opacity:1;fill-rule:nonzero;stroke:none"
             d="M 0,0 C 0,0 -1.793,2.409 -2.817,2.636 L -3.296,1.353 c 1.44,-0.975 2.506,-2.991 2.506,-2.991 0,0 3.478,0.784 4.918,0.325 l 0.511,1.267 C 3.421,0.662 0,0 0,0" /></g><g
           transform="translate(336.2324,362.8115)"
           id="g64"><path
             id="path66"
             style="fill:#c9b487;fill-opacity:1;fill-rule:nonzero;stroke:none"
             d="M 0,0 C 0,0 -2.437,3.088 -3.727,3.271 L -4.202,1.648 c 1.874,-1.041 3.383,-3.716 3.383,-3.716 0,0 4.204,1.523 6.018,1.099 l 0.522,1.6 C 4.147,1.368 0,0 0,0" /></g><g
           transform="translate(338.4873,367.1426)"
           id="g68"><path
             id="path70"
             style="fill:#c9b487;fill-opacity:1;fill-rule:nonzero;stroke:none"
             d="M 0,0 C 0,0 -3.036,3.558 -4.451,3.599 L -4.78,1.826 c 2.131,-0.897 4.121,-4.129 4.121,-4.129 0,0 4.274,2.567 6.266,2.344 l 0.4,1.749 C 4.232,2.387 0,0 0,0" /></g><g
           transform="translate(340.4297,372.7197)"
           id="g72"><path
             id="path74"
             style="fill:#c9b487;fill-opacity:1;fill-rule:nonzero;stroke:none"
             d="M 0,0 C 0,0 -3.204,3.471 -4.618,3.459 L -4.893,1.684 c 2.167,-0.796 4.31,-3.996 4.31,-3.996 0,0 4.174,2.684 6.173,2.544 L 5.935,2.001 C 4.141,2.516 0,0 0,0" /></g><g
           transform="translate(278.083,486.8896)"
           id="g76"><path
             id="path78"
             style="fill:#c9b487;fill-opacity:1;fill-rule:nonzero;stroke:none"
             d="m 0,0 1.471,1.26 c -1.233,0.703 -2.539,4.781 -2.539,4.781 0,0 -2.852,0.084 -4.156,0.485 L -7.103,5.18 -2.605,4.651 c 0,0 1.047,-3.862 2.605,-4.651" /></g><g
           transform="translate(283.1611,490.4907)"
           id="g80"><path
             id="path82"
             style="fill:#c9b487;fill-opacity:1;fill-rule:nonzero;stroke:none"
             d="m 0,0 1.545,1.17 c -1.565,0.789 -2.619,4.69 -2.619,4.69 0,0 -2.932,0.29 -4.025,0.93 L -6.616,5.622 c 0.996,-0.777 4.06,-1.095 4.06,-1.095 0,0 0.937,-3.847 2.556,-4.527" /></g><g
           transform="translate(273.2212,482.8091)"
           id="g84"><path
             id="path86"
             style="fill:#c9b487;fill-opacity:1;fill-rule:nonzero;stroke:none"
             d="m 0,0 c 0.405,0.407 0.879,0.858 1.343,1.263 -1.425,1.779 -1.923,5.146 -1.923,5.146 0,0 -3.331,0.144 -4.928,0.24 C -5.999,6.21 -6.692,5.352 -6.692,5.352 L -2.308,4.837 C -2.308,4.837 -1.43,1.62 0,0" /></g><g
           transform="translate(269.1685,478.2905)"
           id="g88"><path
             id="path90"
             style="fill:#c9b487;fill-opacity:1;fill-rule:nonzero;stroke:none"
             d="m 0,0 c 0.398,0.404 0.862,0.921 1.335,1.328 -1.43,1.789 -2.131,5.428 -2.131,5.428 0,0 -3.201,0.14 -4.784,0.243 C -6.085,6.556 -6.515,6.192 -6.768,5.693 l 4.295,-0.472 c 0,0 1.037,-3.609 2.473,-5.221" /></g><g
           transform="translate(288.0801,494.1045)"
           id="g92"><path
             id="path94"
             style="fill:#c9b487;fill-opacity:1;fill-rule:nonzero;stroke:none"
             d="m 0,0 1.648,1.085 c -1.924,0.394 -2.894,4.606 -2.894,4.606 0,0 -2.581,0.03 -3.443,0.6 -0.665,-0.359 -1.361,-0.608 -2.026,-1.04 0.979,-0.47 3.868,-0.693 3.868,-0.693 0,0 1.373,-3.903 2.847,-4.558" /></g><g
           transform="translate(266.0586,474.9053)"
           id="g96"><path
             id="path98"
             style="fill:#c9b487;fill-opacity:1;fill-rule:nonzero;stroke:none"
             d="m 0,0 c -1.346,1.468 -2.532,5.225 -2.532,5.225 0,0 -3.025,-0.149 -4.624,-0.111 l -1.405,-1.49 c 1.586,-0.263 4.476,-0.121 4.476,-0.121 0,0 0.986,-3.261 2.823,-5.145 z" /></g><g
           transform="translate(292.7974,497.9653)"
           id="g100"><path
             id="path102"
             style="fill:#c9b487;fill-opacity:1;fill-rule:nonzero;stroke:none"
             d="m 0,0 c 0.421,0.309 1.521,0.905 1.521,0.905 -1.762,0.686 -1.88,3.752 -1.88,3.752 0,0 -3.875,0.063 -4.778,0.488 -0.552,-0.365 -1.141,-0.562 -1.668,-1.01 0.738,-0.626 4.659,-0.802 4.659,-0.802 0,0 0.41,-2.966 2.146,-3.333" /></g><g
           transform="translate(255.1987,474.7617)"
           id="g104"><path
             id="path106"
             style="fill:#c9b487;fill-opacity:1;fill-rule:nonzero;stroke:none"
             d="m 0,0 c -0.454,-0.618 -0.795,-1.007 -1.23,-1.619 l 4.114,-0.2 c 0,0 0.872,-3.784 2.261,-5.13 l 1.156,1.713 C 5.125,-3.851 4.374,0.015 4.374,0.015 4.374,0.015 1.382,-0.11 0,0" /></g><g
           transform="translate(255.1509,469.0176)"
           id="g108"><path
             id="path110"
             style="fill:#c9b487;fill-opacity:1;fill-rule:nonzero;stroke:none"
             d="m 0,0 c 0,0 -2.618,-0.362 -3.981,-0.032 l -1.168,-1.442 c 1.078,-0.391 3.953,-0.398 3.953,-0.398 0,0 1.493,-4.951 2.667,-5.559 L 2.54,-5.573 C 1.029,-4.331 0,0 0,0" /></g><g
           transform="translate(247.6284,462.791)"
           id="g112"><path
             id="path114"
             style="fill:#c9b487;fill-opacity:1;fill-rule:nonzero;stroke:none"
             d="m 0,0 -1.071,-1.682 3.854,0.004 c 0,0 0.929,-4.053 2.604,-5.339 l 1.011,1.791 C 5.285,-4.042 4.129,0.099 4.129,0.099 Z" /></g><g
           transform="translate(244.2285,456.2456)"
           id="g116"><path
             id="path118"
             style="fill:#c9b487;fill-opacity:1;fill-rule:nonzero;stroke:none"
             d="m 0,0 -0.798,-1.793 3.764,0.199 c 0,0 1.498,-3.708 2.892,-5.006 0.374,0.616 0.56,1.457 0.894,2.062 C 5.106,-2.94 4.056,0.191 4.056,0.191 Z" /></g><g
           transform="translate(295.3115,504.1846)"
           id="g120"><path
             id="path122"
             style="fill:#c9b487;fill-opacity:1;fill-rule:nonzero;stroke:none"
             d="m 0,0 c 0.182,-1.593 1.806,-3.236 1.806,-3.236 l 1.381,0.925 C 1.94,-1.262 1.437,0.951 1.437,0.951 L -1.07,1.231 C -2.329,1.302 -4.997,0.372 -4.997,0.372 -3.746,0.415 0,0 0,0" /></g><g
           transform="translate(439.0947,422.5225)"
           id="g124"><path
             id="path126"
             style="fill:#c9b487;fill-opacity:1;fill-rule:nonzero;stroke:none"
             d="m 0,0 -0.179,-0.972 c -0.138,-0.709 -7.99,-2.106 -15.839,-3.735 0.248,2.362 0.412,4.747 0.51,7.148 C -7.459,1.176 0,0 0,0 m -66.52,15.689 -2.884,-23.708 c -0.236,-1.452 -0.746,-3.266 -1.984,-3.623 l -7.843,-0.826 2.884,23.701 c 0.219,1.479 0.747,3.282 1.971,3.636 z m -59.347,-90.099 c -24.468,10e-4 -46.399,10.806 -61.328,27.892 0.896,0.089 1.562,0.164 1.908,0.198 0.192,0.015 0.3,0.158 0.331,0.416 0.691,5.662 8.703,71.33 8.719,71.459 0.003,0.139 -0.163,0.193 -0.285,0.171 -0.12,-0.019 -4.358,-0.789 -8.322,-1.54 -2.251,-0.433 -4.473,-1.225 -6.608,-2.297 0.022,0.092 0.043,0.182 0.064,0.25 -1.652,1.574 -1.953,5.117 -1.953,5.117 l -4.538,-0.654 -0.543,-1.748 3.611,0.525 c 0,0 0.215,-2.45 1.643,-4.431 -6.124,-3.604 -11.335,-9.554 -14.072,-16.275 -0.022,0.786 -0.059,1.566 -0.059,2.354 0,44.979 36.459,81.43 81.432,81.436 33.544,0 62.338,-20.28 74.816,-49.245 -12.679,-1.338 -27.955,-2.953 -27.955,-2.953 -1.916,-0.199 -3.795,-0.637 -5.621,-1.232 l 0.218,0.641 c -1.713,0.699 -5.867,-0.573 -5.867,-0.573 0,0 -2.329,3.589 -3.772,3.813 l -0.64,-1.755 c 2.058,-1.016 3.528,-4.402 3.528,-4.402 0,0 1.727,0.674 3.487,1.076 -2.041,-0.937 -3.983,-2.097 -5.795,-3.458 -0.896,1.003 -2.109,2.181 -2.935,2.253 l -0.56,-1.771 c 0.747,-0.313 1.45,-0.944 2.056,-1.621 -5.947,-5.031 -10.182,-12.227 -11.131,-20.036 0,0 -5.601,-46.021 -5.633,-46.355 -0.038,-0.331 -0.058,-0.615 0.405,-0.588 0.138,0.011 4.594,0.479 10.632,1.116 l -0.022,-0.487 c 2.248,-0.527 4.791,-3.548 4.791,-3.548 0,0 3.851,3.03 5.848,3.141 l 0.202,1.77 c -1.841,0.303 -5.691,-2.564 -5.691,-2.564 0,0 -1.265,1.09 -2.595,1.956 13.127,1.38 31.34,3.314 31.34,3.314 5.448,0.57 10.615,2.867 14.973,6.288 -0.328,-0.668 -0.593,-1.265 -0.803,-1.776 -13.205,-27.156 -41.051,-45.876 -73.276,-45.877 M 36.243,48.953 C 35.844,48.909 -7.056,44.39 -7.056,44.39 c -4.712,-0.495 -9.215,-2.289 -13.172,-4.974 -13.842,45.209 -55.895,78.085 -105.646,78.085 -48.857,0 -90.281,-31.732 -104.854,-75.706 -11.954,-1.208 -42.209,-4.375 -42.209,-4.375 -22.019,-2.319 -28.256,-19.441 -30.006,-29.452 -1.512,-8.579 -0.761,-14.634 -0.672,-16.331 0.011,-0.288 0.122,-0.64 0.313,-0.699 0.26,-0.084 0.613,0.053 1.066,0.572 0.487,0.561 8.697,10.725 9.909,12.069 1.21,1.34 6.457,7.613 16.694,8.686 l 34.691,3.658 c -0.07,-0.735 -4.554,-39.928 -4.554,-39.928 -0.777,-5.164 -4.183,-8.364 -10.536,-9.504 0,0 5.447,47.446 5.452,47.524 0.022,0.078 0,0.175 -0.129,0.152 -0.139,-0.027 -7.855,-1.343 -7.855,-1.343 -12.16,-2.618 -22.47,-13.948 -23.972,-26.333 l -2.647,-23.036 c -7.312,-0.746 -12.102,-0.073 -15.104,0.16 -1.015,0.069 -1.968,0.195 -2.781,0.291 -0.338,0.043 -0.597,-0.276 -0.409,-0.556 1.237,-1.922 4.191,-7.147 8.015,-11.183 5.161,-5.474 12.694,-8.19 22.042,-8.19 l 23.252,2.101 c 13.893,1.466 22.207,4.327 27.296,8.049 18.746,-34.309 55.153,-57.582 96.998,-57.582 48.889,0 90.325,31.764 104.885,75.767 14.06,1.476 27.417,2.888 27.417,2.888 21.422,2.256 22.24,12.356 22.683,17.779 0.044,0.51 1.053,9.335 1.184,11.812 0.422,6.568 -4.392,12.472 -11.412,14.025 -2.846,0.633 -14.417,2.645 -21.836,3.918 0.178,0.135 0.349,0.197 0.448,0.22 l 20.864,2.227 c 7.257,0.763 12.903,6.092 15.515,14.625 l 2.703,8.831 c 0,0 0.054,0.367 -0.334,0.316" /></g><g
           transform="translate(333.5322,455.4893)"
           id="g128"><path
             id="path130"
             style="fill:#c9b487;fill-opacity:1;fill-rule:nonzero;stroke:none"
             d="m 0,0 c -0.332,-0.032 -44.484,-4.679 -44.484,-4.679 -13.494,-1.433 -25.368,-13.324 -27.05,-27.084 0,0 -5.669,-46.604 -5.685,-46.71 -0.012,-0.106 0.096,-0.214 0.245,-0.193 0.121,0.011 26.157,2.709 29.263,3.02 0.191,0.019 0.307,0.233 0.336,0.363 0.021,0.133 5.629,46.344 5.629,46.344 0.263,1.103 0.777,2.506 1.758,2.817 l 7.984,0.84 c 0,0 -5.839,-47.979 -5.929,-48.683 -0.053,-0.389 0.143,-0.626 0.535,-0.593 4.213,0.447 28.683,3.026 28.806,3.043 0.125,0.008 0.415,0.148 0.43,0.369 0.638,5.157 8.578,70.317 8.599,70.681 C 0.489,-0.087 0.365,0.044 0,0" /></g><g
           transform="translate(223.8936,457.6045)"
           id="g132"><path
             id="path134"
             style="fill:#0f396e;fill-opacity:1;fill-rule:nonzero;stroke:none"
             d="m 0,0 c -3.216,3.318 -7.721,4.863 -12.923,4.309 l -44.7,-4.726 c -15.596,-1.631 -24.109,-12.416 -26.667,-21.154 -1.587,-5.468 -1.893,-8.803 -2.078,-11.031 0,0 -0.309,-5.1 -0.238,-6.691 0,-0.224 -0.012,-0.321 0.117,-0.386 0.075,-0.033 0.183,-0.009 0.337,0.157 0.831,0.924 2.923,3.829 3.425,4.464 1.711,2.122 4.861,6.135 6.939,7.927 2.595,2.233 8.006,6.101 15.268,6.864 l 36.095,3.798 c 0.643,0.081 1.058,-0.045 1.104,-0.124 0.555,-0.568 0.238,-1.646 0.238,-1.646 l -4.599,-41.075 c -0.995,-6.746 -6.116,-10.789 -15.783,-12.03 0,0 5.226,46.888 5.246,47.073 0.017,0.226 -0.109,0.351 -0.353,0.303 -0.249,-0.047 -4.4,-0.908 -4.4,-0.908 -11.032,-2.37 -20.37,-12.625 -21.746,-23.842 l -2.297,-20.087 -0.663,-5.073 -1.31,-0.148 c -2.649,-0.279 -6.007,-0.472 -12.713,0 -1.165,0.082 -1.751,0.216 -1.885,0.042 -0.098,-0.173 -0.042,-0.382 0.291,-0.946 0.137,-0.239 2.782,-5.24 8.516,-9.451 3.569,-2.609 9.217,-4.07 16.356,-4.07 3.921,0 8.074,0.376 11.997,0.797 l 5.997,0.633 c 27.911,2.945 36.416,6.65 38.861,25.578 l 5.674,47.967 C 4.759,-8.165 3.302,-3.386 0,0" /></g><g
           transform="translate(211.1084,459.3062)"
           id="g136"><path
             id="path138"
             style="fill:#315093;fill-opacity:1;fill-rule:nonzero;stroke:none"
             d="m 0,0 -44.708,-4.718 c -22.804,-2.399 -25.605,-23.933 -25.751,-24.804 -0.164,-0.87 -0.533,-4.352 -0.557,-4.611 -0.047,-0.247 0.055,-0.35 0.25,-0.095 0.205,0.273 2.808,3.693 2.808,3.693 0.059,0.096 7.433,9.65 20.083,10.98 l 36.108,3.805 c 1.375,0.148 2.426,-0.123 3.1,-0.837 1.347,-1.421 0.92,-4.228 0.5,-7.199 -0.109,-0.72 -4.232,-37.558 -4.232,-37.558 -1.734,-12.058 -15.066,-13.468 -19.46,-13.924 l -1.264,-0.139 c 0,0 5.071,46.61 5.081,46.813 0.011,0.204 -0.186,0.283 -0.382,0.24 -0.184,-0.044 -1.425,-0.308 -1.425,-0.308 -10.139,-2.19 -18.726,-11.597 -19.974,-21.883 l -3.383,-26.971 c -2.483,-0.233 -5.221,-0.453 -7.566,-0.453 -1.421,0 -5.86,0.306 -6.198,0.34 -0.316,0.029 -0.403,-0.145 -0.208,-0.371 0.196,-0.238 1.602,-2.003 1.602,-2.003 4.613,-5.474 11.441,-8.305 19.492,-7.906 8.045,0.385 13.927,1.211 19.686,1.714 16.746,1.487 32.544,3.171 35.151,23.1 l 5.662,48.011 c 0.554,4.534 -0.684,8.619 -3.454,11.465 C 8.287,-0.861 4.309,0.462 0,0" /></g><g
           transform="translate(436.2529,448.0098)"
           id="g140"><path
             id="path142"
             style="fill:#0f396e;fill-opacity:1;fill-rule:nonzero;stroke:none"
             d="m 0,0 21.106,2.238 c 5.298,0.563 10.148,4.986 12.134,9.954 0.763,1.919 2.156,6.885 2.477,8.031 0.038,0.157 -0.082,0.221 -0.266,0.212 -0.184,-0.039 -39.56,-4.278 -39.56,-4.278 -12.023,-1.268 -23.03,-12.281 -24.513,-24.541 0,0 -1.029,-9.051 -1.041,-9.142 0,-0.085 0.036,-0.135 0.097,-0.142 0.041,-0.011 35.349,-5.999 35.349,-5.999 0,0 -0.262,-1.482 -0.598,-3.756 -0.358,-2.263 -15.612,-4.085 -21.777,-5.851 -9.32,-2.664 -18.687,-4.98 -27.372,-15.339 -1.322,-1.591 -2.334,-3.828 -2.877,-4.678 -0.11,-0.184 -0.039,-0.41 0.229,-0.39 0.291,0.023 56.693,6.033 56.693,6.033 11.581,1.218 17.95,5.617 18.925,13.062 l 0.113,0.906 c 0.428,3.114 1.191,8.917 1.406,12.868 0.322,5.238 -3.767,10.166 -9.511,11.45 C 17.541,-8.601 1.005,-5.759 -3.965,-4.917 -3.341,-2.143 -1.977,-0.484 0,0" /></g><g
           transform="translate(436.0156,450.3931)"
           id="g144"><path
             id="path146"
             style="fill:#315093;fill-opacity:1;fill-rule:nonzero;stroke:none"
             d="m 0,0 21.217,2.259 c 6.791,0.722 9.701,7.035 10.845,10.721 0,0 0.484,1.635 0.506,1.791 0.033,0.157 -0.081,0.206 -0.299,0.187 -0.212,-0.018 -35.997,-3.796 -35.997,-3.796 -10.883,-1.141 -20.811,-11.121 -22.17,-22.25 0,0 -0.82,-6.964 -0.824,-7.045 0,-0.08 0.038,-0.139 0.109,-0.154 0.077,-0.005 35.332,-6.259 35.332,-6.259 -0.014,-0.213 -0.05,-0.504 -0.072,-0.696 l -0.418,-3.424 c -0.783,-4.815 -4.22,-5.467 -18.514,-8.131 -3.365,-0.63 -23.153,-5.105 -30.039,-13.857 -0.733,-0.962 -1.257,-1.7 -1.535,-2.154 -0.191,-0.308 -0.113,-0.452 0.203,-0.427 3.672,0.413 43.097,4.657 48.438,5.221 12.45,1.311 18.618,3.426 19.996,11.957 0.782,4.92 1.285,9.223 1.491,12.784 0.247,4.083 -3.044,7.916 -7.673,8.952 -3.979,0.879 -26.274,4.681 -26.49,4.708 -0.192,0.027 -0.635,0.261 -0.599,0.701 C -5.79,-2.59 -2.598,-0.568 0,0" /></g><g
           transform="translate(434.0303,458.5059)"
           id="g148"><path
             id="path150"
             style="fill:#ffffff;fill-opacity:1;fill-rule:nonzero;stroke:none"
             d="M 0,0 32.025,3.384 C 32.299,4.068 32.532,4.72 32.7,5.277 L -1.579,1.658 C -11.862,0.58 -21.253,-8.855 -22.517,-19.355 l -0.679,-5.872 1.748,-0.315 0.521,4.539 C -19.558,-9.908 -10.269,-1.081 0,0" /></g><g
           transform="translate(431.4824,437.7354)"
           id="g152"><path
             id="path154"
             style="fill:#ffffff;fill-opacity:1;fill-rule:nonzero;stroke:none"
             d="m 0,0 c 2.315,-0.383 22.73,-3.869 26.426,-4.69 1.422,-0.311 2.698,-0.934 3.73,-1.758 -1.176,1.646 -3.048,2.981 -5.322,3.426 -3.89,0.748 -24.116,4.288 -26.437,4.695 -0.043,0 -0.085,0.019 -0.11,0.023 C -1.565,0.795 -0.806,0.143 0,0" /></g><g
           transform="translate(447.2187,419.8467)"
           id="g156"><path
             id="path158"
             style="fill:#ffffff;fill-opacity:1;fill-rule:nonzero;stroke:none"
             d="m 0,0 0.395,3.167 c 0.132,1.064 0.403,2.271 -0.629,2.472 l -0.86,0.156 c -0.023,-0.319 -0.5,-4.132 -0.5,-4.132 -1.021,-6.226 -3.58,-6.386 -19.641,-9.284 -6.155,-1.124 -25.072,-7.023 -29.094,-13.239 1.157,0.125 2.295,0.231 3.408,0.349 6.186,5.452 21.792,10.235 27.285,11.226 C -3.561,-6.395 -1.013,-6.211 0,0" /></g><g
           transform="translate(252.1377,443.3301)"
           id="g160"><path
             id="path162"
             style="fill:#0f396e;fill-opacity:1;fill-rule:nonzero;stroke:none"
             d="m 0,0 c -9.486,-2.798 -18.303,-13.204 -19.557,-23.504 0,0 -5.238,-43.023 -5.27,-43.388 -0.016,-0.365 0.228,-0.45 0.455,-0.439 0.209,0.033 21.814,2.307 23.849,2.52 0.092,0.019 0.155,0.083 0.171,0.189 C 0.119,-60.83 7.698,1.562 7.705,1.71 7.71,1.823 7.579,1.971 7.398,1.916 7.231,1.881 3.768,1.115 0,0" /></g><g
           transform="translate(255.0332,441.4404)"
           id="g164"><path
             id="path166"
             style="fill:#315093;fill-opacity:1;fill-rule:nonzero;stroke:none"
             d="m 0,0 c -10.125,-2.184 -18.7,-11.586 -19.957,-21.887 0,0 -4.886,-40.251 -4.914,-40.486 -0.056,-0.25 0.02,-0.382 0.392,-0.352 0.334,0.051 17.145,1.823 18.84,1.994 0.098,0.016 0.138,0.071 0.15,0.163 0.41,3.332 7.372,60.603 7.381,60.727 C 1.92,0.28 1.822,0.394 1.666,0.363 1.508,0.324 0,0 0,0" /></g><g
           transform="translate(255.082,437.918)"
           id="g168"><path
             id="path170"
             style="fill:#ffffff;fill-opacity:1;fill-rule:nonzero;stroke:none"
             d="M 0,0 0.266,2.165 C -9.227,0.1 -17.423,-8.818 -18.604,-18.532 l -4.766,-39.137 1.825,0.192 4.527,37.296 C -15.938,-10.383 -8.673,-2.731 0,0" /></g><g
           transform="translate(289.1455,448.0571)"
           id="g172"><path
             id="path174"
             style="fill:#0f396e;fill-opacity:1;fill-rule:nonzero;stroke:none"
             d="m 0,0 c -12.039,-1.272 -23.042,-12.292 -24.544,-24.574 0,0 -5.289,-43.479 -5.301,-43.606 -0.021,-0.152 0.041,-0.26 0.211,-0.24 0.167,0.017 21.41,2.249 24.014,2.544 0.176,0.001 0.278,0.182 0.297,0.319 0.012,0.118 5.38,44.229 5.38,44.229 0.661,2.946 2.04,4.683 3.993,5.167 l 11.336,1.205 c 0,0 -5.847,-48.31 -5.943,-48.723 -0.087,-0.396 0.115,-0.618 0.474,-0.576 3.592,0.376 23.561,2.497 23.695,2.507 0.132,0 0.27,0.108 0.279,0.27 0.546,4.381 7.944,64.929 7.944,65.318 0.023,0.411 -0.324,0.54 -0.582,0.513 C 40.991,4.312 0,0 0,0" /></g><g
           transform="translate(289.2744,445.4497)"
           id="g176"><path
             id="path178"
             style="fill:#315093;fill-opacity:1;fill-rule:nonzero;stroke:none"
             d="m 0,0 c -10.866,-1.152 -20.816,-11.128 -22.161,-22.238 0,0 -4.921,-40.408 -4.941,-40.606 -0.018,-0.186 0.014,-0.27 0.174,-0.251 0.161,0.019 16.66,1.762 18.944,2.004 0.184,0.019 0.285,0.149 0.317,0.313 0.006,0.098 5.123,42.271 5.123,42.271 1.181,5.424 4.376,6.935 6.219,7.349 l 13.696,1.457 c 0.137,0 0.323,0 0.504,-0.163 0.133,-0.136 0.177,-0.316 0.14,-0.528 0,0 -5.829,-47.652 -5.829,-48.012 -0.028,-0.348 0.129,-0.553 0.517,-0.509 3.221,0.337 18.339,1.94 18.484,1.945 0.257,0.014 0.356,0.26 0.373,0.399 0.459,3.773 7.307,60.208 7.363,60.384 C 38.927,3.991 38.786,4.083 38.635,4.07 38.463,4.051 0,0 0,0" /></g><g
           transform="translate(291.0264,442.3994)"
           id="g180"><path
             id="path182"
             style="fill:#ffffff;fill-opacity:1;fill-rule:nonzero;stroke:none"
             d="M 0,0 35.37,3.72 35.58,5.566 -1.6,1.655 C -11.887,0.566 -21.255,-8.847 -22.535,-19.36 l -4.749,-39.136 1.821,0.196 4.542,37.279 C -19.657,-10.515 -10.271,-1.085 0,0" /></g><g
           transform="translate(309.7402,434.8955)"
           id="g184"><path
             id="path186"
             style="fill:#ffffff;fill-opacity:1;fill-rule:nonzero;stroke:none"
             d="m 0,0 c -0.269,0.3 -0.658,0.488 -1.064,0.55 0.025,-0.175 0.031,-0.37 0.01,-0.558 l -5.713,-46.843 1.825,0.193 5.481,44.976 C 0.621,-1.036 0.417,-0.436 0,0" /></g><g
           transform="translate(160.7529,378.8525)"
           id="g188"><path
             id="path190"
             style="fill:#ffffff;fill-opacity:1;fill-rule:nonzero;stroke:none"
             d="m 0,0 3.514,28.072 c 1.117,9.11 8.369,17.496 17.09,20.208 0.153,1.458 0.202,2.143 0.202,2.143 C 11.305,48.378 3.108,39.449 1.909,29.736 L -1.592,1.661 c -4.727,-0.479 -9.7,-0.565 -12.561,-0.307 0.588,-0.701 1.506,-1.569 1.593,-1.662 C -9.568,-0.837 -4.709,-0.466 0,0" /></g><g
           transform="translate(168.1465,451.5435)"
           id="g192"><path
             id="path194"
             style="fill:#ffffff;fill-opacity:1;fill-rule:nonzero;stroke:none"
             d="m 0,0 44.713,4.71 c 3.508,0.371 6.663,-0.508 9.019,-2.478 -0.245,0.322 -0.519,0.641 -0.81,0.939 -2.408,2.47 -5.894,3.611 -9.795,3.201 L -1.601,1.65 c -21.95,-2.316 -24.506,-23.569 -24.506,-23.569 0,0 0.927,1.223 2.7,2.876 C -21.295,-12.645 -15.463,-1.632 0,0" /></g><g
           transform="translate(181.002,380.9863)"
           id="g196"><path
             id="path198"
             style="fill:#ffffff;fill-opacity:1;fill-rule:nonzero;stroke:none"
             d="m 0,0 c 4.54,0.482 18.787,1.974 20.687,15.114 0,0 4.117,36.848 4.234,37.54 0.488,3.323 0.932,6.475 -0.866,8.376 -0.284,0.294 -0.6,0.535 -0.949,0.73 1.018,-1.927 0.627,-4.608 0.227,-7.432 C 23.207,53.615 19.09,16.771 19.09,16.771 17.198,3.624 2.958,2.135 -1.605,1.662 L -2.977,1.54 -3.197,-0.317 Z" /></g><g
           transform="translate(368.1016,408.1738)"
           id="g200"><path
             id="path202"
             style="fill:#0f396e;fill-opacity:1;fill-rule:nonzero;stroke:none"
             d="m 0,0 -11.213,-1.184 3.258,26.848 c 0.365,2.393 1.391,5.397 4.195,6.059 L 7.469,32.908 4.183,6.085 C 3.834,3.674 2.795,0.668 0,0 m -7.91,47.875 c -12.023,-1.265 -23.036,-12.284 -24.528,-24.57 0,0 -5.259,-43.286 -5.273,-43.477 -0.022,-0.187 0.051,-0.397 0.313,-0.361 0.257,0.025 41.567,4.381 41.567,4.381 12,1.272 23.012,12.293 24.514,24.572 0,0 5.252,43.208 5.283,43.456 0.019,0.271 -0.24,0.397 -0.453,0.364 C 33.27,52.224 -7.91,47.875 -7.91,47.875" /></g><g
           transform="translate(374.8115,414.1045)"
           id="g204"><path
             id="path206"
             style="fill:#315093;fill-opacity:1;fill-rule:nonzero;stroke:none"
             d="m 0,0 -0.041,-0.216 c -0.848,-5.871 -3.922,-7.77 -6.372,-8.319 l -13.608,-1.436 c -0.144,-0.017 -0.317,-0.012 -0.5,0.173 -0.133,0.125 -0.181,0.309 -0.153,0.526 l 3.539,29.126 c 0.868,5.93 3.974,7.81 6.388,8.333 l 0.185,0.022 13.408,1.419 c 0.204,0.018 0.38,-0.044 0.513,-0.164 0.126,-0.135 0.179,-0.323 0.15,-0.541 z m 24.135,43.407 c -0.14,-0.017 -38.62,-4.071 -38.62,-4.071 -10.862,-1.149 -20.83,-11.13 -22.154,-22.241 0,0 -4.912,-40.246 -4.928,-40.456 -0.026,-0.224 0.204,-0.392 0.397,-0.372 0.184,0.013 38.476,4.049 38.476,4.049 10.873,1.154 20.834,11.125 22.198,22.248 0,0 4.876,40.425 4.918,40.607 0.02,0.184 -0.145,0.256 -0.287,0.236" /></g><g
           transform="translate(379.7178,442.8711)"
           id="g208"><path
             id="path210"
             style="fill:#ffffff;fill-opacity:1;fill-rule:nonzero;stroke:none"
             d="m 0,0 -3.549,-29.178 c -1.04,-7.079 -5.18,-8.994 -7.561,-9.502 l -13.686,-1.45 c -0.19,-0.021 -0.387,-0.007 -0.571,0.04 0.067,-0.422 0.24,-0.812 0.534,-1.117 0.419,-0.433 1.03,-0.648 1.656,-0.586 l 13.674,1.443 c 2.371,0.505 6.504,2.433 7.547,9.507 L 1.593,-1.655 C 1.691,-1.037 1.481,-0.424 1.042,0.016 0.764,0.305 0.395,0.495 -0.012,0.57 0,0.379 0.021,0.185 0,0" /></g><g
           transform="translate(362.0723,450.3828)"
           id="g212"><path
             id="path214"
             style="fill:#ffffff;fill-opacity:1;fill-rule:nonzero;stroke:none"
             d="M 0,0 35.357,3.727 35.583,5.571 -1.597,1.664 C -11.871,0.587 -21.253,-8.839 -22.521,-19.356 l -4.759,-39.129 1.824,0.193 4.529,37.286 C -19.657,-10.506 -10.258,-1.077 0,0" /></g><g
           transform="translate(427.9355,424.2812)"
           id="g216"><path
             id="path218"
             style="fill:#0f396e;fill-opacity:1;fill-rule:nonzero;stroke:none"
             d="M 0,0 C -1.403,0.221 -2.864,0.45 -4.349,0.683 V 0.682 c -0.036,-0.901 -0.091,-1.79 -0.147,-2.681 -0.055,-0.847 -0.121,-1.688 -0.193,-2.528 -0.055,-0.646 -0.102,-1.295 -0.169,-1.939 1.506,0.315 3.015,0.616 4.469,0.912 C -0.219,-3.71 -0.085,-1.86 0,0" /></g><g
           transform="translate(208.3667,464.3174)"
           id="g220"><path
             id="path222"
             style="fill:#0f396e;fill-opacity:1;fill-rule:nonzero;stroke:none"
             d="m 0,0 c 1.813,5.468 4.04,10.747 6.646,15.798 0.024,0.045 0.046,0.09 0.069,0.133 0.642,1.238 1.307,2.468 1.994,3.683 0.014,0.027 0.031,0.051 0.043,0.075 2.744,4.831 5.837,9.43 9.252,13.769 0.134,0.17 0.265,0.342 0.399,0.511 0.775,0.97 1.563,1.929 2.368,2.874 0.163,0.192 0.329,0.382 0.492,0.569 2.576,2.983 5.301,5.818 8.177,8.513 0.125,0.116 0.246,0.234 0.372,0.353 0.803,0.746 1.625,1.468 2.45,2.189 0.371,0.325 0.74,0.648 1.114,0.966 0.78,0.663 1.568,1.315 2.366,1.956 0.434,0.348 0.877,0.693 1.319,1.032 0.788,0.616 1.577,1.235 2.381,1.824 0.43,0.317 0.869,0.622 1.305,0.928 1.418,1.011 2.863,1.994 4.33,2.939 0.606,0.393 1.208,0.788 1.821,1.167 0.715,0.444 1.442,0.863 2.168,1.291 0.678,0.401 1.359,0.794 2.047,1.179 0.707,0.395 1.416,0.779 2.13,1.16 0.759,0.401 1.528,0.79 2.299,1.175 0.664,0.332 1.327,0.672 2.001,0.989 1.093,0.524 2.202,1.016 3.315,1.502 0.678,0.294 1.357,0.582 2.043,0.863 1.13,0.465 2.264,0.917 3.41,1.344 0.604,0.226 1.216,0.436 1.824,0.65 0.965,0.34 1.935,0.671 2.912,0.984 0.631,0.201 1.259,0.401 1.891,0.59 1.03,0.309 2.065,0.599 3.107,0.882 0.569,0.155 1.132,0.311 1.702,0.457 1.55,0.391 3.109,0.755 4.687,1.08 0.151,0.034 0.306,0.062 0.46,0.092 1.537,0.308 3.086,0.582 4.642,0.829 0.545,0.085 1.09,0.155 1.637,0.234 1.155,0.165 2.315,0.314 3.479,0.441 0.602,0.064 1.204,0.128 1.807,0.186 1.187,0.111 2.38,0.196 3.575,0.27 0.54,0.033 1.078,0.073 1.621,0.096 1.724,0.082 3.457,0.133 5.199,0.133 1.757,0 3.498,-0.051 5.236,-0.133 0.547,-0.025 1.091,-0.065 1.638,-0.1 1.194,-0.071 2.384,-0.158 3.568,-0.271 0.62,-0.059 1.238,-0.124 1.855,-0.191 1.139,-0.129 2.271,-0.274 3.398,-0.431 0.584,-0.085 1.169,-0.163 1.75,-0.256 1.306,-0.208 2.601,-0.44 3.891,-0.694 0.372,-0.072 0.752,-0.133 1.123,-0.21 1.642,-0.341 3.271,-0.717 4.888,-1.13 0.447,-0.115 0.886,-0.242 1.333,-0.364 1.176,-0.316 2.343,-0.641 3.503,-0.993 0.584,-0.179 1.165,-0.365 1.742,-0.555 1.024,-0.331 2.045,-0.673 3.054,-1.032 0.591,-0.21 1.182,-0.419 1.769,-0.641 1.044,-0.391 2.077,-0.802 3.106,-1.225 0.505,-0.208 1.022,-0.408 1.526,-0.622 1.485,-0.633 2.956,-1.297 4.407,-1.992 0.314,-0.149 0.619,-0.318 0.931,-0.47 1.153,-0.571 2.299,-1.149 3.428,-1.756 0.559,-0.3 1.109,-0.616 1.663,-0.922 0.876,-0.492 1.747,-0.989 2.608,-1.501 0.588,-0.352 1.172,-0.705 1.755,-1.066 0.826,-0.512 1.644,-1.041 2.457,-1.577 0.56,-0.368 1.124,-0.732 1.679,-1.111 0.911,-0.626 1.806,-1.269 2.697,-1.919 0.423,-0.308 0.854,-0.602 1.271,-0.919 1.234,-0.923 2.441,-1.877 3.629,-2.849 0.534,-0.438 1.052,-0.891 1.579,-1.338 0.704,-0.599 1.404,-1.195 2.09,-1.81 0.566,-0.505 1.126,-1.022 1.679,-1.538 0.627,-0.585 1.247,-1.177 1.86,-1.775 0.557,-0.539 1.11,-1.086 1.657,-1.636 0.605,-0.616 1.194,-1.247 1.785,-1.875 0.517,-0.551 1.043,-1.097 1.549,-1.659 0.892,-0.994 1.764,-2.002 2.62,-3.023 0.593,-0.716 1.172,-1.439 1.749,-2.166 0.513,-0.646 1.034,-1.29 1.533,-1.952 0.51,-0.669 1.001,-1.346 1.493,-2.027 0.451,-0.62 0.897,-1.246 1.334,-1.878 0.489,-0.704 0.971,-1.413 1.442,-2.129 0.414,-0.624 0.816,-1.259 1.218,-1.895 0.462,-0.734 0.927,-1.467 1.374,-2.211 0.382,-0.643 0.746,-1.296 1.117,-1.946 0.792,-1.385 1.554,-2.791 2.287,-4.217 0.333,-0.642 0.673,-1.282 0.991,-1.936 0.397,-0.806 0.768,-1.626 1.144,-2.443 0.302,-0.655 0.603,-1.311 0.892,-1.974 0.361,-0.828 0.711,-1.665 1.053,-2.504 0.27,-0.669 0.533,-1.335 0.792,-2.011 0.326,-0.852 0.648,-1.7 0.957,-2.558 0.238,-0.678 0.461,-1.361 0.689,-2.045 0.292,-0.869 0.589,-1.731 0.857,-2.606 1.24,0.837 2.534,1.579 3.867,2.232 -1.075,3.399 -2.3,6.761 -3.7,10.072 -5.786,13.678 -14.058,25.96 -24.603,36.499 -10.551,10.545 -22.828,18.833 -36.501,24.612 -14.164,5.985 -29.213,9.015 -44.709,9.015 -15.494,0 -30.529,-3.03 -44.692,-9.015 C 46.492,65.26 34.208,56.972 23.662,46.427 13.119,35.888 4.841,23.606 -0.946,9.928 -2.392,6.506 -3.657,3.032 -4.758,-0.487 -2.983,-0.304 -1.368,-0.14 0,0" /></g><g
           transform="translate(418.1055,394.834)"
           id="g224"><path
             id="path226"
             style="fill:#0f396e;fill-opacity:1;fill-rule:nonzero;stroke:none"
             d="m 0,0 v 0 c -1.81,-5.465 -4.029,-10.735 -6.629,-15.782 -0.032,-0.063 -0.062,-0.123 -0.093,-0.188 -0.637,-1.235 -1.299,-2.45 -1.981,-3.657 -0.016,-0.028 -0.034,-0.06 -0.052,-0.087 -2.737,-4.827 -5.825,-9.421 -9.233,-13.76 -0.14,-0.175 -0.282,-0.356 -0.424,-0.534 -0.769,-0.971 -1.555,-1.928 -2.354,-2.866 -0.167,-0.193 -0.336,-0.386 -0.503,-0.58 -2.55,-2.95 -5.25,-5.771 -8.095,-8.436 -0.157,-0.145 -0.305,-0.297 -0.461,-0.438 -0.797,-0.737 -1.609,-1.457 -2.426,-2.171 -0.379,-0.329 -0.755,-0.662 -1.137,-0.984 -0.776,-0.659 -1.558,-1.308 -2.352,-1.944 -0.441,-0.357 -0.89,-0.704 -1.337,-1.052 -0.782,-0.611 -1.565,-1.222 -2.366,-1.811 -0.441,-0.324 -0.894,-0.631 -1.339,-0.951 -1.399,-0.998 -2.82,-1.964 -4.265,-2.9 -0.622,-0.4 -1.237,-0.804 -1.866,-1.193 -0.712,-0.437 -1.433,-0.862 -2.151,-1.279 -0.688,-0.407 -1.374,-0.804 -2.068,-1.194 -0.703,-0.389 -1.406,-0.776 -2.119,-1.15 -0.764,-0.407 -1.537,-0.799 -2.313,-1.185 -0.662,-0.333 -1.317,-0.665 -1.987,-0.986 -1.124,-0.533 -2.262,-1.045 -3.407,-1.536 -0.65,-0.284 -1.303,-0.56 -1.961,-0.829 -1.127,-0.463 -2.263,-0.92 -3.409,-1.346 -0.605,-0.223 -1.215,-0.431 -1.821,-0.645 -0.969,-0.345 -1.939,-0.678 -2.917,-0.99 -0.63,-0.202 -1.256,-0.397 -1.887,-0.587 -1.031,-0.309 -2.073,-0.604 -3.119,-0.884 -0.564,-0.152 -1.125,-0.314 -1.695,-0.454 -1.557,-0.399 -3.128,-0.76 -4.712,-1.089 -0.157,-0.035 -0.316,-0.059 -0.472,-0.092 -1.526,-0.306 -3.061,-0.579 -4.606,-0.822 -0.545,-0.087 -1.094,-0.16 -1.64,-0.234 -1.154,-0.167 -2.311,-0.316 -3.478,-0.442 -0.601,-0.067 -1.205,-0.127 -1.81,-0.186 -1.187,-0.108 -2.377,-0.197 -3.571,-0.269 -0.541,-0.033 -1.081,-0.074 -1.626,-0.1 -1.724,-0.078 -3.455,-0.134 -5.203,-0.134 -1.695,0 -3.381,0.056 -5.058,0.13 -0.443,0.023 -0.884,0.043 -1.327,0.067 -1.484,0.087 -2.96,0.198 -4.429,0.339 -0.202,0.019 -0.407,0.032 -0.609,0.051 -1.635,0.168 -3.261,0.381 -4.874,0.62 -0.423,0.066 -0.844,0.135 -1.265,0.2 -1.349,0.216 -2.69,0.455 -4.018,0.717 -0.312,0.063 -0.623,0.118 -0.935,0.183 -1.57,0.324 -3.126,0.685 -4.672,1.079 -0.393,0.095 -0.779,0.204 -1.169,0.306 -1.258,0.334 -2.507,0.687 -3.746,1.065 -0.371,0.111 -0.743,0.22 -1.109,0.334 -1.501,0.471 -2.989,0.976 -4.459,1.509 -0.346,0.128 -0.687,0.263 -1.03,0.389 -1.196,0.447 -2.381,0.913 -3.556,1.399 -0.402,0.167 -0.807,0.332 -1.204,0.506 -1.425,0.608 -2.835,1.241 -4.225,1.909 -0.286,0.138 -0.563,0.281 -0.847,0.424 -1.151,0.561 -2.294,1.149 -3.423,1.751 -0.418,0.224 -0.837,0.445 -1.25,0.675 -1.339,0.736 -2.664,1.495 -3.971,2.283 -0.191,0.117 -0.377,0.24 -0.569,0.355 -1.142,0.707 -2.274,1.434 -3.39,2.177 -0.418,0.278 -0.834,0.562 -1.25,0.847 -1.065,0.727 -2.121,1.479 -3.16,2.243 -0.224,0.169 -0.452,0.321 -0.672,0.488 -1.193,0.897 -2.355,1.82 -3.51,2.76 -0.406,0.329 -0.807,0.666 -1.206,1.002 -0.89,0.745 -1.767,1.509 -2.633,2.282 -0.31,0.277 -0.625,0.545 -0.933,0.829 -1.08,0.988 -2.137,1.998 -3.175,3.026 -0.377,0.373 -0.745,0.75 -1.118,1.13 -0.766,0.778 -1.517,1.569 -2.261,2.373 -0.339,0.366 -0.682,0.724 -1.016,1.101 -0.967,1.068 -1.915,2.159 -2.838,3.275 -0.337,0.401 -0.663,0.813 -0.994,1.221 -0.669,0.826 -1.326,1.665 -1.969,2.507 -0.334,0.44 -0.67,0.871 -0.998,1.317 -0.855,1.159 -1.691,2.328 -2.503,3.517 -0.28,0.414 -0.548,0.838 -0.823,1.252 -0.591,0.893 -1.17,1.796 -1.735,2.705 -0.307,0.494 -0.612,0.987 -0.909,1.486 -0.742,1.238 -1.465,2.487 -2.16,3.753 -1.084,-0.794 -2.329,-1.545 -3.732,-2.257 5.222,-9.535 11.759,-18.263 19.538,-26.05 10.546,-10.546 22.83,-18.822 36.5,-24.601 14.163,-5.989 29.199,-9.022 44.692,-9.022 15.496,0 30.545,3.033 44.709,9.022 13.673,5.778 25.95,14.055 36.501,24.601 C -13.13,-35.941 -4.857,-23.66 0.929,-9.989 2.386,-6.544 3.66,-3.04 4.767,0.501 3.198,0.337 1.604,0.17 0,0" /></g><g
           transform="translate(247.7251,502.0156)"
           id="g228"><path
             id="path230"
             style="fill:#0f396e;fill-opacity:1;fill-rule:nonzero;stroke:none"
             d="M 0,0 -0.654,0.712 C -1.086,1.178 -1.487,1.469 -1.857,1.577 -2.235,1.69 -2.554,1.622 -2.813,1.391 -3.194,1.027 -3.373,0.7 -3.347,0.379 c 0.036,-0.323 0.226,-0.682 0.591,-1.083 l 5.057,-5.512 c 0.299,-0.32 0.605,-0.509 0.906,-0.534 0.304,-0.039 0.621,0.101 0.944,0.402 0.21,0.186 0.336,0.389 0.381,0.618 0.038,0.225 0.02,0.441 -0.06,0.646 -0.076,0.22 -0.181,0.421 -0.329,0.619 -0.147,0.196 -0.308,0.403 -0.498,0.596 l -0.937,1.023 2.615,2.399 1.257,-1.36 C 7.509,-2.817 7.93,-3.898 7.855,-5.039 7.777,-6.184 7.091,-7.354 5.808,-8.532 4.635,-9.606 3.511,-10.087 2.433,-9.975 c -1.081,0.112 -2.16,0.747 -3.24,1.915 l -4.202,4.575 c -1.116,1.206 -1.645,2.359 -1.614,3.462 0.043,1.101 0.655,2.213 1.847,3.303 1.147,1.064 2.275,1.611 3.362,1.66 C -0.32,4.981 0.735,4.453 1.752,3.336 L 2.616,2.411 Z" /></g><g
           transform="translate(262.1816,501.1411)"
           id="g232"><path
             id="path234"
             style="fill:#0f396e;fill-opacity:1;fill-rule:nonzero;stroke:none"
             d="m 0,0 -8.066,12.8 3.001,1.893 3.1,-4.916 2.088,1.311 -3.105,4.914 3.009,1.9 8.06,-12.811 -3,-1.882 -3.365,5.323 -2.079,-1.308 3.36,-5.329 z" /></g><g
           transform="translate(275.9448,522.4722)"
           id="g236"><path
             id="path238"
             style="fill:#0f396e;fill-opacity:1;fill-rule:nonzero;stroke:none"
             d="M 0,0 -0.037,-0.015 1.508,-6.698 3.427,-5.93 Z M -0.483,-13.53 -3.003,1.756 0.972,3.329 9.627,-9.507 6.285,-10.83 4.731,-8.286 2.144,-9.315 2.837,-12.207 Z" /></g><g
           transform="translate(292.6235,523.4854)"
           id="g240"><path
             id="path242"
             style="fill:#0f396e;fill-opacity:1;fill-rule:nonzero;stroke:none"
             d="m 0,0 -0.03,-0.045 1.949,-8.211 -3.3,-0.652 -2.926,14.846 3.581,0.701 4.322,-7.763 0.066,0.009 L 1.69,7.116 4.986,7.771 7.916,-7.074 4.352,-7.779 Z" /></g><g
           transform="translate(314.1348,517.1543)"
           id="g244"><path
             id="path246"
             style="fill:#0f396e;fill-opacity:1;fill-rule:nonzero;stroke:none"
             d="M 0,0 -0.166,1.337 H -0.213 C -0.574,0.704 -0.972,0.261 -1.418,0.005 -1.865,-0.247 -2.48,-0.375 -3.259,-0.384 -3.978,-0.386 -4.606,-0.287 -5.12,-0.057 -5.631,0.171 -6.043,0.508 -6.365,0.937 -6.69,1.372 -6.92,1.871 -7.069,2.45 -7.207,3.037 -7.278,3.67 -7.289,4.393 L -7.363,10.6 c -0.017,1.643 0.348,2.854 1.116,3.656 0.768,0.795 1.96,1.201 3.591,1.221 1.561,0.024 2.755,-0.321 3.593,-1.013 0.838,-0.697 1.262,-1.802 1.285,-3.306 L 2.233,10.03 -1.323,9.983 -1.338,10.821 c 0,0.69 -0.08,1.192 -0.232,1.493 -0.154,0.282 -0.45,0.428 -0.892,0.446 -0.526,-0.018 -0.888,-0.142 -1.076,-0.399 -0.189,-0.256 -0.286,-0.66 -0.273,-1.194 L -3.727,3.685 C -3.719,3.24 -3.61,2.91 -3.401,2.684 c 0.225,-0.236 0.555,-0.348 0.999,-0.338 0.282,0.006 0.507,0.06 0.691,0.168 0.168,0.109 0.293,0.257 0.373,0.421 0.076,0.189 0.129,0.383 0.146,0.586 0.014,0.213 0.023,0.469 0.023,0.78 L -1.181,5.493 -2.453,5.475 -2.494,8.199 2.33,8.253 2.424,0.026 Z" /></g><g
           transform="translate(333.9619,519.3184)"
           id="g248"><path
             id="path250"
             style="fill:#0f396e;fill-opacity:1;fill-rule:nonzero;stroke:none"
             d="M 0,0 0.047,-0.01 3.189,10.173 6.484,9.527 1.094,-4.831 -2.827,-4.052 -1.84,6.6 -1.875,6.612 -5.089,-3.612 l -3.852,0.763 0.423,15.328 3.37,-0.658 -1.005,-10.638 0.047,0.042 3.451,10.111 3.361,-0.668 z" /></g><g
           transform="translate(352.8633,519.4707)"
           id="g252"><path
             id="path254"
             style="fill:#0f396e;fill-opacity:1;fill-rule:nonzero;stroke:none"
             d="M 0,0 C 0.119,0.268 0.217,0.507 0.274,0.726 0.337,0.944 0.362,1.15 0.362,1.354 0.362,1.56 0.312,1.751 0.204,1.935 0.091,2.109 -0.084,2.242 -0.349,2.358 -0.597,2.47 -0.815,2.496 -1.031,2.455 -1.239,2.404 -1.413,2.321 -1.566,2.172 -1.717,2.017 -1.854,1.849 -1.973,1.651 -2.093,1.455 -2.208,1.233 -2.319,0.986 l -2.437,-5.714 c -0.093,-0.228 -0.183,-0.466 -0.257,-0.699 -0.056,-0.244 -0.092,-0.483 -0.099,-0.707 0,-0.233 0.052,-0.439 0.16,-0.637 0.11,-0.196 0.288,-0.341 0.526,-0.448 0.252,-0.102 0.484,-0.131 0.697,-0.079 0.213,0.057 0.399,0.167 0.54,0.331 0.153,0.164 0.293,0.354 0.404,0.55 0.116,0.205 0.232,0.438 0.345,0.697 z m 0.942,-6.837 c -0.697,-1.631 -1.545,-2.69 -2.543,-3.174 -0.996,-0.5 -2.295,-0.396 -3.895,0.288 -1.597,0.693 -2.587,1.566 -2.929,2.639 -0.344,1.067 -0.17,2.416 0.52,4.035 l 2.417,5.651 c 0.571,1.341 1.402,2.194 2.48,2.584 1.079,0.393 2.323,0.282 3.746,-0.334 C 2.166,4.25 3.103,3.426 3.542,2.382 3.99,1.345 3.93,0.156 3.365,-1.183 Z" /></g><g
           transform="translate(364.9023,510.4292)"
           id="g256"><path
             id="path258"
             style="fill:#0f396e;fill-opacity:1;fill-rule:nonzero;stroke:none"
             d="M 0,0 -0.055,-0.008 -4.458,-7.204 -7.268,-5.345 1.123,7.249 4.158,5.231 1.759,-3.325 1.806,-3.365 6.21,3.862 9.016,1.988 0.623,-10.6 -2.394,-8.58 Z" /></g><g
           transform="translate(237.7344,493.5322)"
           id="g260"><path
             id="path262"
             style="fill:#0f396e;fill-opacity:1;fill-rule:nonzero;stroke:none"
             d="m 0,0 1.221,-3.541 3.128,2.048 -1.342,-3.492 3.717,-0.446 -3.28,-1.812 2.565,-2.725 -3.674,0.716 0.206,-3.74 -2.354,2.918 -2.244,-2.996 0.072,3.745 -3.643,-0.864 2.455,2.827 -3.343,1.693 3.701,0.581 -1.472,3.437 3.209,-1.931 z" /></g><g
           transform="translate(378.7588,504.5991)"
           id="g264"><path
             id="path266"
             style="fill:#0f396e;fill-opacity:1;fill-rule:nonzero;stroke:none"
             d="M 0,0 1.214,-3.541 4.35,-1.497 3.005,-4.984 6.723,-5.429 3.442,-7.247 6.008,-9.97 l -3.679,0.715 0.213,-3.735 -2.359,2.915 -2.238,-2.998 0.069,3.739 -3.643,-0.853 2.455,2.824 -3.337,1.688 3.698,0.591 -1.477,3.435 3.203,-1.934 z" /></g><g
           transform="translate(262.9907,348.2734)"
           id="g268"><path
             id="path270"
             style="fill:#0f396e;fill-opacity:1;fill-rule:nonzero;stroke:none"
             d="M 0,0 3.285,1.818 -0.44,2.266 0.906,5.757 -2.222,3.703 -3.436,7.24 -4.523,3.669 l -3.204,1.93 1.474,-3.447 -3.7,-0.586 3.338,-1.683 -2.454,-2.827 3.641,0.856 -0.067,-3.743 2.237,2.999 2.358,-2.911 -0.208,3.735 3.675,-0.714 z" /></g><g
           transform="translate(383.7285,363.002)"
           id="g272"><path
             id="path274"
             style="fill:#0f396e;fill-opacity:1;fill-rule:nonzero;stroke:none"
             d="m 0,0 1.355,3.484 -3.139,-2.047 -1.22,3.542 -1.08,-3.581 -3.198,1.937 1.471,-3.449 -3.703,-0.585 3.338,-1.687 -2.456,-2.818 3.64,0.855 -0.065,-3.742 2.243,2.996 2.353,-2.913 -0.204,3.739 3.669,-0.719 -2.56,2.727 3.277,1.815 z" /></g><g
           transform="translate(274.0381,349.9248)"
           id="g276"><path
             id="path278"
             style="fill:#0f396e;fill-opacity:1;fill-rule:nonzero;stroke:none"
             d="m 0,0 8.034,-3.436 -1.233,-2.884 -4.5,1.92 -0.989,-2.315 4.217,-1.802 -1.186,-2.772 -4.217,1.801 -1.149,-2.697 4.67,-1.996 -1.231,-2.885 -8.205,3.504 z" /></g><g
           transform="translate(291.0986,339.4619)"
           id="g280"><path
             id="path282"
             style="fill:#0f396e;fill-opacity:1;fill-rule:nonzero;stroke:none"
             d="M 0,0 0.084,0.343 C 0.293,1.182 0.127,1.968 -0.593,2.15 -1.395,2.351 -1.909,1.818 -2.071,1.179 -2.779,-1.648 3.661,-1.79 2.351,-7.022 c -0.761,-3.049 -2.888,-3.961 -6.175,-3.141 -3.086,0.773 -4.545,2.267 -3.802,5.236 l 0.127,0.498 3.605,-0.903 -0.084,-0.337 c -0.306,-1.224 0.084,-1.793 0.808,-1.974 0.76,-0.19 1.352,0.3 1.547,1.082 0.707,2.828 -5.497,2.89 -4.228,7.961 0.724,2.885 2.663,4.086 5.81,3.298 3.249,-0.816 4.294,-2.5 3.525,-5.57 z" /></g><g
           transform="translate(302.1172,338.5244)"
           id="g284"><path
             id="path286"
             style="fill:#0f396e;fill-opacity:1;fill-rule:nonzero;stroke:none"
             d="M 0,0 -2.878,0.268 -2.579,3.517 7.006,2.632 6.709,-0.618 3.826,-0.353 2.77,-11.79 l -3.828,0.353 z" /></g><g
           transform="translate(311.5664,330.5352)"
           id="g288"><path
             id="path290"
             style="fill:#0f396e;fill-opacity:1;fill-rule:nonzero;stroke:none"
             d="M 0,0 3.475,0.057 3.541,-4.035 0.068,-4.089 Z" /></g><g
           transform="translate(324.4893,336.7529)"
           id="g292"><path
             id="path294"
             style="fill:#0f396e;fill-opacity:1;fill-rule:nonzero;stroke:none"
             d="M 0,0 C -0.248,1.488 -0.282,2.719 0.255,3.698 0.793,4.677 1.882,5.378 3.835,5.729 7.612,6.41 8.783,4.798 9.174,2.642 9.525,0.691 9.039,-0.676 8.157,-1.948 L 6.312,-4.524 C 6.044,-4.908 5.655,-5.417 5.59,-5.872 l 4.959,0.895 0.514,-2.846 -9.471,-1.706 c -0.358,1.991 -0.179,3.911 1.161,5.895 l 2.059,3.017 C 5.409,0.244 5.598,0.841 5.4,1.92 5.18,3.14 4.726,3.456 4.139,3.35 3.608,3.256 3.132,2.877 3.424,1.248 L 3.535,0.641 Z" /></g><g
           transform="translate(343.96,336.3291)"
           id="g296"><path
             id="path298"
             style="fill:#0f396e;fill-opacity:1;fill-rule:nonzero;stroke:none"
             d="m 0,0 c 0.69,-1.971 1.187,-2.385 1.946,-2.12 0.763,0.266 0.889,0.902 0.2,2.871 L 0.548,5.312 C -0.143,7.281 -0.638,7.7 -1.399,7.436 -2.159,7.168 -2.285,6.532 -1.598,4.564 Z m -2.189,9.694 c 3.233,1.136 5.208,0.184 7.162,-5.391 1.953,-5.577 1.003,-7.55 -2.235,-8.687 -3.235,-1.131 -5.208,-0.178 -7.163,5.396 -1.951,5.576 -1.001,7.55 2.236,8.682" /></g><g
           transform="translate(359.998,337.9932)"
           id="g300"><path
             id="path302"
             style="fill:#0f396e;fill-opacity:1;fill-rule:nonzero;stroke:none"
             d="M 0,0 -4.727,8.765 -7.164,7.448 -8.301,9.56 c 2.065,1.136 2.713,2.025 2.305,3.826 l 2.434,1.309 6.946,-12.876 z" /></g><g
           transform="translate(371.8975,345.2314)"
           id="g304"><path
             id="path306"
             style="fill:#0f396e;fill-opacity:1;fill-rule:nonzero;stroke:none"
             d="m 0,0 -5.861,8.049 -2.237,-1.63 -1.413,1.937 c 1.891,1.402 2.415,2.373 1.77,4.098 l 2.237,1.631 8.613,-11.822 z" /></g><g
           transform="translate(387.3066,395.7656)"
           id="g308"><path
             id="path310"
             style="fill:#0f396e;fill-opacity:1;fill-rule:nonzero;stroke:none"
             d="m 0,0 c -0.977,-0.762 -1.996,-1.465 -3.046,-2.108 -3.232,-6.389 -7.301,-12.282 -12.063,-17.538 -0.879,-0.967 -1.778,-1.916 -2.703,-2.845 -0.823,-0.814 -1.666,-1.611 -2.518,-2.395 -0.083,-0.078 -0.16,-0.156 -0.246,-0.232 -0.263,-0.244 -0.543,-0.467 -0.813,-0.702 -14.035,-12.421 -32.476,-19.974 -52.686,-19.974 h -0.004 c -21.981,0 -41.861,8.908 -56.27,23.303 -1,1.001 -1.964,2.038 -2.909,3.089 -0.057,-0.089 -0.131,-0.153 -0.241,-0.161 -0.346,-0.035 -1.012,-0.109 -1.905,-0.198 0.001,-0.006 0.005,-0.01 0.007,-0.014 6.51,-7.447 14.354,-13.701 23.159,-18.387 0.109,-0.057 0.22,-0.112 0.33,-0.165 1.101,-0.584 2.216,-1.139 3.348,-1.67 0.267,-0.124 0.538,-0.239 0.804,-0.36 0.98,-0.448 1.971,-0.878 2.974,-1.288 0.365,-0.149 0.735,-0.289 1.104,-0.437 0.919,-0.356 1.842,-0.701 2.773,-1.026 0.433,-0.152 0.869,-0.297 1.305,-0.442 0.885,-0.293 1.774,-0.565 2.67,-0.829 0.483,-0.141 0.964,-0.283 1.452,-0.413 0.867,-0.235 1.74,-0.451 2.617,-0.658 0.517,-0.122 1.034,-0.245 1.556,-0.359 0.866,-0.189 1.739,-0.351 2.615,-0.512 0.534,-0.094 1.069,-0.2 1.609,-0.285 0.893,-0.142 1.792,-0.258 2.692,-0.372 0.531,-0.068 1.058,-0.147 1.59,-0.205 0.973,-0.102 1.956,-0.175 2.941,-0.241 0.464,-0.035 0.924,-0.083 1.395,-0.109 1.45,-0.076 2.912,-0.12 4.384,-0.12 1.255,0 2.503,0.043 3.743,0.096 0.351,0.015 0.699,0.036 1.049,0.058 0.982,0.057 1.961,0.131 2.932,0.225 0.284,0.023 0.568,0.044 0.848,0.074 1.211,0.126 2.411,0.28 3.606,0.459 0.273,0.041 0.544,0.09 0.816,0.131 0.953,0.155 1.896,0.325 2.837,0.507 0.349,0.072 0.694,0.139 1.039,0.21 1.098,0.234 2.188,0.48 3.269,0.754 0.084,0.022 0.169,0.038 0.253,0.064 1.147,0.293 2.277,0.62 3.406,0.963 0.343,0.105 0.679,0.215 1.023,0.325 0.854,0.273 1.703,0.56 2.546,0.861 0.306,0.109 0.611,0.213 0.911,0.324 1.079,0.4 2.149,0.82 3.205,1.266 0.279,0.113 0.55,0.24 0.826,0.358 0.815,0.354 1.62,0.718 2.418,1.095 0.354,0.167 0.706,0.335 1.057,0.503 0.865,0.428 1.724,0.861 2.571,1.321 0.187,0.097 0.373,0.189 0.558,0.291 0.982,0.534 1.945,1.092 2.901,1.666 0.349,0.209 0.693,0.425 1.036,0.636 0.677,0.421 1.348,0.853 2.014,1.293 0.326,0.216 0.656,0.428 0.977,0.647 0.902,0.614 1.793,1.247 2.667,1.894 0.296,0.219 0.584,0.452 0.875,0.677 0.625,0.476 1.246,0.96 1.853,1.457 0.354,0.282 0.705,0.567 1.053,0.862 0.617,0.518 1.228,1.05 1.83,1.589 0.291,0.256 0.589,0.513 0.877,0.776 0.75,0.686 1.48,1.388 2.204,2.102 0.334,0.332 0.663,0.667 0.994,1.002 0.489,0.5 0.967,1.008 1.445,1.515 0.318,0.347 0.642,0.687 0.955,1.038 0.699,0.775 1.381,1.568 2.05,2.371 0.283,0.336 0.55,0.68 0.827,1.024 0.44,0.548 0.876,1.101 1.304,1.659 0.308,0.407 0.615,0.816 0.915,1.227 0.418,0.569 0.826,1.144 1.227,1.721 0.303,0.435 0.602,0.865 0.896,1.304 0.524,0.786 1.035,1.583 1.534,2.389 0.268,0.439 0.529,0.882 0.792,1.325 0.33,0.558 0.652,1.12 0.97,1.687 0.252,0.454 0.506,0.902 0.747,1.355 0.462,0.864 0.908,1.735 1.34,2.615 0.027,0.055 0.054,0.104 0.08,0.161 0.21,0.51 0.475,1.108 0.803,1.776" /></g><g
           transform="translate(235.7036,447.436)"
           id="g312"><path
             id="path314"
             style="fill:#0f396e;fill-opacity:1;fill-rule:nonzero;stroke:none"
             d="m 0,0 c 3.395,14.787 10.884,28.005 21.254,38.38 7.204,7.203 15.779,13.026 25.299,17.051 9.52,4.026 19.986,6.254 30.975,6.254 32.563,0 60.543,-19.573 72.856,-47.585 0.658,0.07 1.313,0.135 1.956,0.205 -0.661,1.528 -1.371,3.023 -2.116,4.504 -0.211,0.407 -0.417,0.816 -0.629,1.221 -0.316,0.601 -0.641,1.196 -0.97,1.787 -0.223,0.399 -0.455,0.797 -0.688,1.192 -0.745,1.279 -1.523,2.545 -2.338,3.787 -0.088,0.136 -0.173,0.275 -0.266,0.411 -0.364,0.551 -0.745,1.087 -1.125,1.631 -0.278,0.396 -0.556,0.79 -0.841,1.181 -0.38,0.526 -0.771,1.042 -1.162,1.558 -0.307,0.403 -0.622,0.797 -0.936,1.188 -0.547,0.69 -1.102,1.37 -1.671,2.04 -0.481,0.565 -0.964,1.13 -1.46,1.684 -0.402,0.445 -0.811,0.88 -1.224,1.319 -0.377,0.401 -0.756,0.804 -1.144,1.198 -0.416,0.427 -0.836,0.849 -1.259,1.264 -0.428,0.421 -0.863,0.831 -1.299,1.239 -0.413,0.39 -0.825,0.781 -1.246,1.16 -0.749,0.671 -1.51,1.331 -2.282,1.977 -0.405,0.336 -0.819,0.664 -1.228,0.993 -0.503,0.402 -1.007,0.801 -1.519,1.194 -0.418,0.319 -0.836,0.636 -1.26,0.949 -0.587,0.433 -1.184,0.853 -1.78,1.265 -0.349,0.244 -0.691,0.491 -1.046,0.731 -0.899,0.602 -1.81,1.183 -2.734,1.751 -0.388,0.239 -0.783,0.466 -1.174,0.7 -0.631,0.376 -1.269,0.74 -1.911,1.099 -0.407,0.225 -0.811,0.45 -1.219,0.67 -0.767,0.408 -1.54,0.8 -2.317,1.184 -0.273,0.135 -0.538,0.274 -0.809,0.404 -1.023,0.493 -2.057,0.956 -3.099,1.404 -0.368,0.155 -0.739,0.305 -1.109,0.457 -0.756,0.31 -1.516,0.611 -2.279,0.897 -0.385,0.145 -0.769,0.291 -1.157,0.431 -0.946,0.341 -1.899,0.662 -2.865,0.968 -0.173,0.054 -0.348,0.117 -0.52,0.174 -1.129,0.349 -2.264,0.666 -3.412,0.967 -0.353,0.094 -0.709,0.177 -1.067,0.265 -0.852,0.211 -1.71,0.412 -2.573,0.595 -0.371,0.08 -0.739,0.16 -1.111,0.236 -1.114,0.22 -2.232,0.421 -3.359,0.597 -0.082,0.011 -0.161,0.029 -0.247,0.043 -1.203,0.184 -2.42,0.332 -3.643,0.462 -0.362,0.04 -0.723,0.068 -1.082,0.102 -0.918,0.088 -1.838,0.158 -2.765,0.211 -0.367,0.022 -0.737,0.044 -1.107,0.063 -1.25,0.055 -2.506,0.092 -3.768,0.092 -44.973,-0.007 -81.432,-36.458 -81.432,-81.437 0,-0.787 0.037,-1.568 0.059,-2.354 0.52,1.279 1.156,2.517 1.845,3.728 C -1.905,-10.845 -1.224,-5.319 0,0" /></g></g></g></g></svg>