<?xml version="1.0" encoding="UTF-8" standalone="no"?>
<svg
   xmlns:dc="http://purl.org/dc/elements/1.1/"
   xmlns:cc="http://creativecommons.org/ns#"
   xmlns:rdf="http://www.w3.org/1999/02/22-rdf-syntax-ns#"
   xmlns:svg="http://www.w3.org/2000/svg"
   xmlns="http://www.w3.org/2000/svg"
   viewBox="0 0 793.70135 1122.52"
   height="1122.52"
   width="793.70135"
   xml:space="preserve"
   id="svg2"
   version="1.1"><metadata
     id="metadata8"><rdf:RDF><cc:Work
         rdf:about=""><dc:format>image/svg+xml</dc:format><dc:type
           rdf:resource="http://purl.org/dc/dcmitype/StillImage" /></cc:Work></rdf:RDF></metadata><defs
     id="defs6"><clipPath
       id="clipPath18"
       clipPathUnits="userSpaceOnUse"><path
         id="path16"
         d="M 0,841.89 H 595.276 V 0 H 0 Z" /></clipPath></defs><g
     transform="matrix(1.3333333,0,0,-1.3333333,0,1122.52)"
     id="g10"><g
       id="g12"><g
         clip-path="url(#clipPath18)"
         id="g14"><g
           transform="translate(302.9512,303.5889)"
           id="g20"><path
             id="path22"
             style="fill:#c0c2c4;fill-opacity:1;fill-rule:nonzero;stroke:none"
             d="m 0,0 c -48.197,-0.631 -89.984,28.537 -107.796,70.385 0.778,0.315 1.524,0.724 2.237,1.199 17.335,-41.065 58.228,-69.653 105.525,-69.03 51.208,0.693 93.991,35.345 107.2,82.24 0.795,-0.293 1.612,-0.514 2.458,-0.624 C 96.102,36.236 52.292,0.708 0,0 m -116.959,113.915 c -0.822,63.62 50.288,116.095 113.933,116.974 62.481,0.778 114.177,-48.444 116.85,-110.411 -0.833,0.209 -1.693,0.322 -2.57,0.335 -2.839,60.504 -53.191,108.282 -114.248,107.522 -62.36,-0.86 -112.215,-52.051 -111.408,-114.388 0.035,-2.639 0.168,-5.256 0.381,-7.849 -0.861,-0.153 -1.7,-0.393 -2.504,-0.734 -0.247,2.823 -0.396,5.673 -0.434,8.551 M 125.34,102.45 c 0,8.071 -4.043,14.909 -9.657,17.378 -2.339,63.291 -55.017,113.681 -118.733,112.887 -64.652,-0.893 -116.57,-54.196 -115.736,-118.823 0.043,-3.183 0.218,-6.334 0.512,-9.45 -4.766,-2.975 -8.059,-9.248 -8.059,-16.529 0,-10.147 6.383,-18.375 14.257,-18.375 0.863,0 1.704,0.115 2.526,0.306 18.051,-42.603 60.547,-72.315 109.574,-71.67 53.275,0.721 97.885,37.019 111.48,85.929 7.677,0.289 13.836,8.382 13.836,18.347" /></g><g
           transform="translate(225.7627,441.0234)"
           id="g24"><path
             id="path26"
             style="fill:#ffffff;fill-opacity:1;fill-rule:nonzero;stroke:none"
             d="M 0,0 C 12.161,41.628 55.785,65.531 97.441,53.36 139.082,41.201 162.974,-2.415 150.813,-44.058 138.646,-85.688 95.021,-109.577 53.37,-97.421 11.736,-85.253 -12.167,-41.646 0,0" /></g><g
           transform="translate(343.2354,472.1279)"
           id="g28"><path
             id="path30"
             style="fill:#c0c2c4;fill-opacity:1;fill-rule:nonzero;stroke:none"
             d="m 0,0 2.315,7.962 2.152,0.937 -7.956,4.174 c -0.728,0.392 -1.302,0.147 -1.499,-0.236 l -0.238,-0.504 c -0.21,-0.409 0.028,-1.047 0.674,-1.384 L 1.631,7.688 -0.48,6.756 -2.206,0.673 c -0.215,-0.705 0.069,-1.309 0.515,-1.458 l 0.507,-0.154 C -0.78,-1.06 -0.217,-0.797 0,0" /></g><g
           transform="translate(335.1064,469.3311)"
           id="g32"><path
             id="path34"
             style="fill:#c0c2c4;fill-opacity:1;fill-rule:nonzero;stroke:none"
             d="m 0,0 2.843,7.761 2.2,0.775 -7.647,4.746 c -0.703,0.439 -1.289,0.238 -1.513,-0.13 L -4.388,12.685 C -4.62,12.274 -4.436,11.63 -3.811,11.246 L 2.136,7.55 -0.025,6.773 -2.182,0.837 c -0.252,-0.7 -0.011,-1.325 0.412,-1.498 l 0.506,-0.19 C -0.864,-1.003 -0.284,-0.776 0,0" /></g><g
           transform="translate(326.7881,467.1348)"
           id="g36"><path
             id="path38"
             style="fill:#c0c2c4;fill-opacity:1;fill-rule:nonzero;stroke:none"
             d="m 0,0 3.36,7.527 2.262,0.623 -7.315,5.282 c -0.666,0.482 -1.268,0.337 -1.515,-0.019 L -3.521,12.95 c -0.25,-0.379 -0.109,-1.035 0.486,-1.464 L 2.643,7.369 0.438,6.748 -2.116,0.983 c -0.299,-0.677 -0.097,-1.316 0.31,-1.524 l 0.492,-0.224 C -0.922,-0.947 -0.326,-0.762 0,0" /></g><g
           transform="translate(318.3398,465.5293)"
           id="g40"><path
             id="path42"
             style="fill:#c0c2c4;fill-opacity:1;fill-rule:nonzero;stroke:none"
             d="m 0,0 3.869,7.276 2.291,0.458 -6.936,5.789 c -0.62,0.544 -1.235,0.424 -1.511,0.081 l -0.339,-0.423 c -0.288,-0.358 -0.182,-1.032 0.384,-1.495 L 3.149,7.171 0.897,6.704 -2.043,1.135 c -0.344,-0.638 -0.189,-1.299 0.212,-1.519 l 0.475,-0.281 C -0.983,-0.863 -0.38,-0.736 0,0" /></g><g
           transform="translate(309.8027,464.5508)"
           id="g44"><path
             id="path46"
             style="fill:#c0c2c4;fill-opacity:1;fill-rule:nonzero;stroke:none"
             d="m 0,0 4.363,6.977 2.318,0.281 -6.542,6.286 c -0.584,0.581 -1.194,0.514 -1.493,0.194 l -0.367,-0.403 c -0.308,-0.346 -0.246,-1.013 0.276,-1.521 L 3.629,6.92 1.354,6.618 -1.95,1.29 c -0.392,-0.637 -0.281,-1.303 0.087,-1.554 l 0.467,-0.295 C -1.042,-0.797 -0.432,-0.7 0,0" /></g><g
           transform="translate(301.2275,464.2002)"
           id="g48"><path
             id="path50"
             style="fill:#c0c2c4;fill-opacity:1;fill-rule:nonzero;stroke:none"
             d="m 0,0 4.81,6.637 2.348,0.106 -6.098,6.74 c -0.544,0.618 -1.18,0.603 -1.484,0.308 l -0.401,-0.377 c -0.321,-0.32 -0.314,-0.998 0.178,-1.533 L 4.081,6.621 1.798,6.491 -1.874,1.409 c -0.43,-0.59 -0.362,-1.259 0,-1.543 l 0.431,-0.335 C -1.104,-0.723 -0.483,-0.682 0,0" /></g><g
           transform="translate(292.6338,464.4541)"
           id="g52"><path
             id="path54"
             style="fill:#c0c2c4;fill-opacity:1;fill-rule:nonzero;stroke:none"
             d="M 0,0 5.259,6.272 7.604,6.224 1.982,13.382 c -0.505,0.66 -1.133,0.679 -1.461,0.41 l -0.417,-0.35 c -0.352,-0.294 -0.388,-0.97 0.068,-1.541 L 4.523,6.315 2.229,6.354 -1.76,1.549 C -2.234,0.995 -2.219,0.32 -1.882,0.007 l 0.413,-0.362 C -1.156,-0.64 -0.532,-0.636 0,0" /></g><g
           transform="translate(284.0791,465.3379)"
           id="g56"><path
             id="path58"
             style="fill:#c0c2c4;fill-opacity:1;fill-rule:nonzero;stroke:none"
             d="M 0,0 5.675,5.874 8.011,5.659 2.885,13.202 c -0.453,0.69 -1.071,0.757 -1.413,0.516 L 1.022,13.399 C 0.645,13.138 0.562,12.456 0.988,11.855 L 4.944,5.98 2.669,6.175 -1.653,1.681 C -2.165,1.155 -2.19,0.472 -1.87,0.132 l 0.381,-0.371 C -1.183,-0.551 -0.569,-0.6 0,0" /></g><g
           transform="translate(275.5996,466.8379)"
           id="g60"><path
             id="path62"
             style="fill:#c0c2c4;fill-opacity:1;fill-rule:nonzero;stroke:none"
             d="M 0,0 6.063,5.439 8.38,5.057 3.785,12.955 c -0.41,0.723 -1.023,0.837 -1.387,0.614 L 1.927,13.296 C 1.544,13.046 1.426,12.383 1.796,11.751 L 5.349,5.6 3.08,5.966 -1.534,1.782 C -2.073,1.306 -2.146,0.634 -1.851,0.285 L -1.494,-0.14 C -1.217,-0.466 -0.598,-0.558 0,0" /></g><g
           transform="translate(267.25,468.9473)"
           id="g64"><path
             id="path66"
             style="fill:#c0c2c4;fill-opacity:1;fill-rule:nonzero;stroke:none"
             d="M 0,0 6.419,4.992 8.695,4.441 4.646,12.643 C 4.301,13.405 3.687,13.556 3.31,13.364 L 2.829,13.115 C 2.43,12.899 2.263,12.255 2.589,11.59 L 5.719,5.193 3.478,5.732 -1.41,1.896 C -1.988,1.451 -2.098,0.783 -1.832,0.415 l 0.327,-0.444 C -1.251,-0.385 -0.632,-0.517 0,0" /></g><g
           transform="translate(259.0625,471.6475)"
           id="g68"><path
             id="path70"
             style="fill:#c0c2c4;fill-opacity:1;fill-rule:nonzero;stroke:none"
             d="m 0,0 6.742,4.52 2.24,-0.723 -3.48,8.489 C 5.193,13.054 4.602,13.255 4.21,13.09 L 3.713,12.882 C 3.303,12.697 3.076,12.062 3.37,11.374 L 6.051,4.781 3.87,5.465 -1.279,1.993 C -1.887,1.598 -2.059,0.942 -1.804,0.542 L -1.508,0.089 C -1.279,-0.276 -0.673,-0.457 0,0" /></g><g
           transform="translate(251.0684,474.9443)"
           id="g72"><path
             id="path74"
             style="fill:#c0c2c4;fill-opacity:1;fill-rule:nonzero;stroke:none"
             d="M 0,0 7.041,4.024 9.219,3.136 6.324,11.842 c -0.25,0.801 -0.822,1.049 -1.236,0.909 L 4.585,12.573 C 4.159,12.416 3.894,11.797 4.136,11.103 L 6.364,4.32 4.221,5.173 -1.134,2.079 C -1.766,1.728 -1.971,1.085 -1.764,0.685 L -1.498,0.199 C -1.289,-0.195 -0.701,-0.409 0,0" /></g><g
           transform="translate(254.5205,364.1494)"
           id="g76"><path
             id="path78"
             style="fill:#c0c2c4;fill-opacity:1;fill-rule:nonzero;stroke:none"
             d="M 0,0 -1.193,-7.608 -3.121,-8.77 4.93,-11.547 c 0.731,-0.264 1.249,0.033 1.382,0.419 l 0.171,0.483 c 0.14,0.404 -0.152,0.948 -0.809,1.185 l -6.26,2.183 1.874,1.138 0.899,5.808 C 2.293,0.351 1.947,0.872 1.519,0.94 L 1.012,1.022 C 0.608,1.08 0.104,0.759 0,0" /></g><g
           transform="translate(261.8828,367.79)"
           id="g80"><path
             id="path82"
             style="fill:#c0c2c4;fill-opacity:1;fill-rule:nonzero;stroke:none"
             d="m 0,0 -1.739,-7.515 -1.991,-1.008 7.831,-3.342 c 0.715,-0.317 1.25,-0.056 1.416,0.317 l 0.197,0.477 c 0.177,0.394 -0.087,0.965 -0.723,1.238 l -6.093,2.618 1.962,0.999 1.286,5.735 C 2.312,0.185 2.004,0.729 1.566,0.838 L 1.074,0.945 C 0.685,1.035 0.162,0.751 0,0" /></g><g
           transform="translate(269.4727,370.9053)"
           id="g84"><path
             id="path86"
             style="fill:#c0c2c4;fill-opacity:1;fill-rule:nonzero;stroke:none"
             d="m 0,0 -2.256,-7.366 -2.054,-0.859 7.581,-3.893 c 0.691,-0.365 1.238,-0.14 1.432,0.215 l 0.229,0.45 c 0.2,0.394 -0.016,0.979 -0.631,1.292 l -5.894,3.037 2.019,0.858 1.7,5.631 C 2.328,0.029 2.061,0.592 1.647,0.722 L 1.155,0.864 C 0.764,0.983 0.218,0.735 0,0" /></g><g
           transform="translate(277.2734,373.4736)"
           id="g88"><path
             id="path90"
             style="fill:#c0c2c4;fill-opacity:1;fill-rule:nonzero;stroke:none"
             d="m 0,0 -2.756,-7.182 -2.124,-0.725 7.293,-4.409 c 0.66,-0.404 1.224,-0.23 1.437,0.11 l 0.271,0.451 c 0.221,0.368 0.043,0.964 -0.547,1.325 l -5.658,3.442 2.063,0.718 2.092,5.497 C 2.32,-0.127 2.091,0.451 1.692,0.618 L 1.206,0.79 C 0.826,0.935 0.266,0.727 0,0" /></g><g
           transform="translate(285.2344,375.5039)"
           id="g92"><path
             id="path94"
             style="fill:#c0c2c4;fill-opacity:1;fill-rule:nonzero;stroke:none"
             d="m 0,0 -3.255,-6.979 -2.159,-0.573 6.954,-4.903 c 0.628,-0.467 1.207,-0.319 1.446,0.017 l 0.297,0.414 c 0.252,0.347 0.113,0.965 -0.453,1.358 l -5.411,3.829 2.12,0.574 2.475,5.349 C 2.301,-0.306 2.121,0.299 1.726,0.477 L 1.255,0.703 C 0.889,0.866 0.317,0.705 0,0" /></g><g
           transform="translate(293.3174,376.9639)"
           id="g96"><path
             id="path98"
             style="fill:#c0c2c4;fill-opacity:1;fill-rule:nonzero;stroke:none"
             d="m 0,0 -3.745,-6.735 -2.192,-0.413 6.603,-5.391 c 0.596,-0.5 1.174,-0.403 1.438,-0.08 l 0.325,0.394 c 0.276,0.338 0.177,0.949 -0.354,1.392 l -5.125,4.202 2.153,0.417 2.835,5.146 c 0.333,0.611 0.19,1.221 -0.176,1.43 L 1.302,0.604 C 0.945,0.803 0.37,0.676 0,0" /></g><g
           transform="translate(301.4775,377.8467)"
           id="g100"><path
             id="path102"
             style="fill:#c0c2c4;fill-opacity:1;fill-rule:nonzero;stroke:none"
             d="m 0,0 -4.195,-6.455 -2.236,-0.254 6.215,-5.838 c 0.556,-0.539 1.159,-0.481 1.436,-0.19 l 0.356,0.373 c 0.288,0.315 0.242,0.949 -0.259,1.409 l -4.818,4.56 2.164,0.269 3.202,4.934 C 2.24,-0.617 2.139,0.003 1.776,0.237 L 1.348,0.523 C 1.004,0.736 0.42,0.652 0,0" /></g><g
           transform="translate(309.6846,378.1641)"
           id="g104"><path
             id="path106"
             style="fill:#c0c2c4;fill-opacity:1;fill-rule:nonzero;stroke:none"
             d="m 0,0 -4.642,-6.146 -2.245,-0.111 5.791,-6.249 c 0.522,-0.581 1.117,-0.561 1.414,-0.289 l 0.379,0.353 c 0.317,0.29 0.308,0.919 -0.159,1.42 l -4.478,4.882 2.19,0.118 3.524,4.699 c 0.416,0.54 0.359,1.169 0.025,1.438 L 1.381,0.419 C 1.063,0.667 0.472,0.622 0,0" /></g><g
           transform="translate(317.8955,377.8984)"
           id="g108"><path
             id="path110"
             style="fill:#c0c2c4;fill-opacity:1;fill-rule:nonzero;stroke:none"
             d="m 0,0 -5.063,-5.802 -2.245,0.045 5.337,-6.649 c 0.475,-0.604 1.07,-0.629 1.379,-0.383 l 0.414,0.326 c 0.342,0.263 0.379,0.901 -0.06,1.431 l -4.124,5.183 2.183,-0.04 3.857,4.44 c 0.455,0.516 0.438,1.154 0.116,1.447 L 1.405,0.317 C 1.097,0.585 0.506,0.591 0,0" /></g><g
           transform="translate(326.0664,377.0635)"
           id="g112"><path
             id="path114"
             style="fill:#c0c2c4;fill-opacity:1;fill-rule:nonzero;stroke:none"
             d="m 0,0 -5.452,-5.428 -2.23,0.202 4.84,-7.01 c 0.437,-0.642 1.026,-0.706 1.363,-0.475 l 0.434,0.282 c 0.352,0.253 0.424,0.87 0.032,1.435 l -3.755,5.465 2.185,-0.195 4.155,4.166 c 0.484,0.48 0.515,1.104 0.215,1.41 L 1.419,0.218 C 1.138,0.509 0.543,0.551 0,0" /></g><g
           transform="translate(334.1572,375.6436)"
           id="g116"><path
             id="path118"
             style="fill:#c0c2c4;fill-opacity:1;fill-rule:nonzero;stroke:none"
             d="m 0,0 -5.827,-5.034 -2.203,0.369 4.345,-7.332 c 0.376,-0.68 0.972,-0.78 1.322,-0.576 l 0.441,0.259 c 0.37,0.223 0.491,0.832 0.141,1.425 l -3.363,5.712 2.167,-0.348 4.435,3.864 c 0.524,0.444 0.592,1.07 0.313,1.399 L 1.436,0.127 C 1.175,0.438 0.574,0.519 0,0" /></g><g
           transform="translate(342.126,373.6738)"
           id="g120"><path
             id="path122"
             style="fill:#c0c2c4;fill-opacity:1;fill-rule:nonzero;stroke:none"
             d="m 0,0 -6.168,-4.617 -2.176,0.528 3.827,-7.628 c 0.337,-0.692 0.919,-0.845 1.278,-0.665 l 0.462,0.228 c 0.38,0.199 0.556,0.799 0.241,1.413 l -2.952,5.929 2.12,-0.487 4.703,3.543 c 0.56,0.402 0.68,1.02 0.417,1.371 L 1.443,0.021 C 1.205,0.345 0.614,0.47 0,0" /></g><g
           transform="translate(349.9395,371.1416)"
           id="g124"><path
             id="path126"
             style="fill:#c0c2c4;fill-opacity:1;fill-rule:nonzero;stroke:none"
             d="m 0,0 -6.472,-4.176 -2.132,0.683 3.278,-7.87 c 0.288,-0.727 0.846,-0.912 1.233,-0.759 l 0.465,0.195 c 0.4,0.175 0.617,0.759 0.345,1.389 l -2.526,6.131 2.095,-0.647 4.924,3.207 c 0.577,0.366 0.739,0.975 0.515,1.332 L 1.444,-0.084 C 1.223,0.268 0.645,0.425 0,0" /></g><g
           transform="translate(357.5596,368.0654)"
           id="g128"><path
             id="path130"
             style="fill:#c0c2c4;fill-opacity:1;fill-rule:nonzero;stroke:none"
             d="m 0,0 -6.75,-3.694 -2.082,0.816 2.715,-8.078 c 0.238,-0.74 0.78,-0.974 1.166,-0.848 l 0.494,0.168 c 0.407,0.135 0.658,0.711 0.438,1.358 l -2.087,6.289 2.034,-0.792 5.151,2.863 c 0.602,0.322 0.807,0.913 0.599,1.291 L 1.434,-0.175 C 1.23,0.18 0.668,0.386 0,0" /></g><g
           transform="translate(247.3662,471.4932)"
           id="g132"><path
             id="path134"
             style="fill:#a4a3a7;fill-opacity:1;fill-rule:nonzero;stroke:none"
             d="m 0,0 c -8.057,-1.428 -14.737,-8.169 -15.211,-15.349 -0.019,-0.278 -0.026,-0.554 -0.026,-0.826 0,-3.208 1.259,-6.091 3.6,-8.19 2.92,-2.615 7.196,-3.658 11.727,-2.854 8.052,1.418 14.737,8.157 15.216,15.346 0.23,3.544 -1.035,6.744 -3.574,9.019 C 8.81,-0.235 4.536,0.804 0,0" /></g><g
           transform="translate(169.5791,451.1074)"
           id="g136"><path
             id="path138"
             style="fill:#a4a3a7;fill-opacity:1;fill-rule:nonzero;stroke:none"
             d="m 0,0 -3.577,-13.884 c 0,0 2.736,0.735 4.657,1.252 -2.376,-10.59 -14.604,-65.181 -14.684,-65.549 -0.633,-2.068 -3.344,-3.59 -5.691,-4.332 l -1.994,-0.63 -6.269,-20.75 7.728,3.21 c 25.302,10.503 63.139,20.642 63.519,20.742 l 1.999,0.534 8.771,24.222 -9.46,-2.229 c -1.284,-0.3 -2.086,-0.848 -2.607,-1.47 -1.185,-1.451 -5.012,-5.428 -8.611,-6.607 -0.268,-0.073 -16.478,-4.539 -16.659,-4.588 -0.029,-0.008 -0.054,-0.013 -0.08,-0.02 0.08,0.358 18.986,82.8 18.986,82.8 z" /></g><g
           transform="translate(227.3154,438.2441)"
           id="g140"><path
             id="path142"
             style="fill:#a4a3a7;fill-opacity:1;fill-rule:nonzero;stroke:none"
             d="m 0,0 -3.444,-13.476 c 0,0 2.076,0.541 3.964,1.039 -2.222,-8.492 -7.088,-27.12 -7.088,-27.12 -0.551,-2.25 -0.819,-4.431 -0.819,-6.489 0,-4.538 1.309,-8.476 3.837,-11.278 2.38,-2.637 6.975,-5.543 15.35,-4.391 6.496,0.886 12.528,4.028 17.939,9.349 l 3.652,3.589 -11.231,6.741 -2.186,-2.085 c -0.16,-0.155 -0.323,-0.286 -0.477,-0.416 0.063,0.485 0.16,1.057 0.317,1.718 -0.01,-0.033 11.593,47.494 11.593,47.494 l 1.741,7.136 z" /></g><g
           transform="translate(298.1436,446.9189)"
           id="g144"><path
             id="path146"
             style="fill:#a4a3a7;fill-opacity:1;fill-rule:nonzero;stroke:none"
             d="M 0,0 C 0.469,0.053 0.972,0.059 1.443,0.033 -0.792,-9.004 -8.713,-41.02 -8.713,-41.02 c -0.389,-1.502 -2.684,-2.803 -5.332,-2.99 -0.112,-0.008 -0.227,0.021 -0.348,0.05 0.532,2.107 10.504,41.937 10.556,42.149 C -3.463,-1.237 -1.564,-0.176 0,0 m 2.464,15.404 c -19.143,-2.358 -33.57,-13.783 -37.639,-29.81 -0.006,-0.027 -5.7,-23.063 -5.7,-23.063 l 0.022,0.097 c -2.02,-7.364 -1.236,-13.179 2.336,-17.285 4.126,-4.737 11.332,-6.469 21.423,-5.152 19.237,2.514 33.478,12.987 37.177,27.337 0.002,0.016 6.445,25.518 6.445,25.518 1.81,7.429 0.898,13.222 -2.689,17.26 -4.126,4.623 -11.315,6.343 -21.375,5.098" /></g><g
           transform="translate(379.502,478.7451)"
           id="g148"><path
             id="path150"
             style="fill:#a4a3a7;fill-opacity:1;fill-rule:nonzero;stroke:none"
             d="m 0,0 v 0 c -3.969,-0.642 -8.589,-2.26 -12.766,-4.327 0.361,1.434 0.751,2.973 0.751,2.973 l -33.461,-12.442 -3.205,-13.386 c 0,0 2.07,0.624 3.975,1.2 -2.532,-10.37 -13.359,-54.713 -13.359,-54.713 l 28.255,6.915 11.436,47.322 c 0.647,2.798 2.042,4.551 4.459,5.607 -0.936,-3.94 -6.777,-28.521 -6.777,-28.521 0.011,0.038 -0.373,-1.458 -0.373,-1.458 -1.507,-5.776 -3.566,-13.691 0.776,-18.577 2.398,-2.701 6.119,-3.73 11.059,-3.054 8.736,1.2 16.422,5.754 22.852,13.546 l 2.86,3.461 c 0,0 -9.622,6.101 -10.531,6.674 2.142,8.938 7.425,31.007 7.425,31.007 0.536,2.189 0.811,4.201 0.811,6.036 0,3.507 -0.994,6.355 -2.964,8.497 C 8.646,-0.444 4.557,0.731 0,0" /></g><g
           transform="translate(163.749,332.1855)"
           id="g152"><path
             id="path154"
             style="fill:#a4a3a7;fill-opacity:1;fill-rule:nonzero;stroke:none"
             d="M 0,0 -1.757,5.054 4.2,7.758 c 31.8,13.574 75.656,28.837 120.324,41.88 45.821,13.376 86.527,22.594 111.687,25.29 l 4.472,0.481 -0.253,-12.783 -3.147,-0.61 C 215.579,57.828 138.809,40.152 62.248,-11.52 l -2.135,-1.439 -2.184,1.368 C 41.321,-1.199 18.126,0.227 5.779,0.154 3.95,0.183 0,0 0,0" /></g><g
           transform="translate(421.4082,486.1738)"
           id="g156"><path
             id="path158"
             style="fill:#a4a3a7;fill-opacity:1;fill-rule:nonzero;stroke:none"
             d="m 0,0 v 0 c -16.191,-3.397 -25.281,-15.004 -24.932,-31.857 0.207,-10.086 6.473,-18.406 12.534,-26.451 5.2,-6.899 10.111,-13.419 10.274,-19.972 0.299,-12.177 -5.07,-13.891 -6.852,-14.294 -3.136,-0.704 -5.457,1.195 -6.11,1.992 5.448,2.542 10.923,7.381 10.923,14.324 0,0.453 -0.024,0.913 -0.069,1.383 -0.455,4.479 -2.622,6.932 -4.357,8.206 -3.864,2.825 -8.443,2.15 -9.753,1.877 -9.533,-1.985 -15.594,-11.4 -13.799,-21.436 2.907,-16.248 18.094,-21.257 30.978,-19.028 9.324,1.614 17.115,6.303 21.933,13.21 4.766,6.843 6.377,15.4 4.656,24.74 -1.78,9.675 -6.954,17.302 -11.956,24.685 -5.19,7.656 -10.1,14.893 -10.46,23.58 -0.117,2.771 0.685,4.843 1.531,5.665 0.329,0.319 0.541,0.337 0.742,0.324 0.303,-0.021 1.011,-0.072 1.767,-1.219 1.683,-2.564 1.915,-7.871 0.521,-11.833 l -0.465,-1.321 2.4,-6.781 22.844,10.683 -0.32,2.821 C 31.282,-13.91 27.892,-8.025 22.499,-4.113 16.397,0.301 8.41,1.761 0,0" /></g><g
           transform="translate(247.8613,468.6914)"
           id="g160"><path
             id="path162"
             style="fill:#ffffff;fill-opacity:1;fill-rule:nonzero;stroke:none"
             d="m 0,0 c -6.707,-1.187 -12.481,-6.901 -12.864,-12.737 -0.017,-0.205 -0.022,-0.416 -0.022,-0.623 0,-2.395 0.929,-4.535 2.653,-6.08 2.264,-2.032 5.665,-2.825 9.332,-2.173 6.709,1.181 12.483,6.893 12.872,12.733 0.174,2.647 -0.762,5.029 -2.635,6.706 C 7.072,-0.14 3.671,0.65 0,0" /></g><g
           transform="translate(171.958,448.9277)"
           id="g164"><path
             id="path166"
             style="fill:#ffffff;fill-opacity:1;fill-rule:nonzero;stroke:none"
             d="m 0,0 -1.981,-7.684 c 0,0 3.216,0.864 4.488,1.209 -0.765,-3.422 -15.72,-70.18 -15.746,-70.29 -1.131,-3.867 -5.677,-5.684 -7.578,-6.282 l -0.563,-0.179 -4.091,-13.547 2.173,0.9 c 25.479,10.575 63.491,20.762 63.871,20.861 l 0.565,0.156 6.471,17.873 -3.387,-0.794 c -1.456,-0.344 -1.995,-0.475 -2.165,-0.918 -0.882,-1.033 -5.165,-5.835 -9.81,-7.335 l -16.842,-4.638 c -1.68,-0.404 -2.912,-0.343 -3.427,0.179 -0.463,0.473 -0.513,1.537 -0.14,3.006 0.009,0.027 17.879,77.958 17.879,77.958 z" /></g><g
           transform="translate(229.6953,436.0762)"
           id="g168"><path
             id="path170"
             style="fill:#ffffff;fill-opacity:1;fill-rule:nonzero;stroke:none"
             d="m 0,0 -1.871,-7.328 c 0,0 2.922,0.764 3.995,1.046 -0.862,-3.289 -8.303,-31.762 -8.303,-31.762 -0.502,-2.047 -0.744,-4.014 -0.744,-5.852 0,-3.821 1.058,-7.081 3.11,-9.355 1.917,-2.123 5.709,-4.454 12.845,-3.478 5.871,0.805 11.369,3.685 16.333,8.562 l 1.03,1.007 -6.221,3.735 -0.61,-0.589 c -1.329,-1.262 -2.655,-1.991 -3.952,-2.165 -0.601,-0.087 -0.798,0.129 -0.884,0.221 -0.54,0.591 -0.877,2.5 -0.063,5.958 L 26.75,9.525 Z" /></g><g
           transform="translate(291.5723,445.916)"
           id="g172"><path
             id="path174"
             style="fill:#ffffff;fill-opacity:1;fill-rule:nonzero;stroke:none"
             d="M 0,0 C 0.485,1.961 4.021,3.577 6.248,3.833 8.122,4.044 10.693,3.757 11.316,3.047 11.379,2.979 11.413,2.923 11.374,2.755 L 0.621,-40.701 c -0.711,-2.747 -3.956,-4.865 -7.895,-5.146 -1.19,-0.083 -2.489,0.399 -3.175,1.172 -0.292,0.333 -0.431,0.674 -0.431,1.038 0,0.093 0.011,0.19 0.03,0.291 C -10.831,-43.265 0,0 0,0 m 9.387,13.584 v 0 C -8.57,11.369 -22.071,0.763 -25.846,-14.106 c 0,-10e-4 -5.693,-23.043 -5.693,-23.043 -1.75,-6.363 -1.165,-11.291 1.74,-14.633 3.412,-3.919 9.948,-5.37 18.909,-4.202 18.058,2.363 31.388,12.021 34.786,25.226 l 6.448,25.506 C 31.907,1.19 31.217,6.121 28.28,9.411 24.819,13.302 18.458,14.704 9.387,13.584" /></g><g
           transform="translate(379.96,475.9355)"
           id="g176"><path
             id="path178"
             style="fill:#ffffff;fill-opacity:1;fill-rule:nonzero;stroke:none"
             d="m 0,0 v 0 c -5.6,-0.905 -12.813,-4.003 -17.659,-7.407 0.275,1.084 1.093,4.301 1.093,4.301 l -26.953,-10.02 -1.699,-7.091 c 0,0 2.934,0.882 4.001,1.206 -0.863,-3.533 -13.429,-54.995 -13.429,-54.995 l 22.021,5.386 11.029,45.644 c 0.93,4.041 3.275,6.646 7.16,7.972 1.507,0.511 2.668,0.295 3.151,-0.15 0.109,-0.1 0.442,-0.408 0.231,-1.227 -0.004,-0.015 -7.327,-30.839 -7.327,-30.839 0.007,0.009 -0.389,-1.516 -0.389,-1.516 -1.341,-5.16 -3.177,-12.224 0.147,-15.971 1.732,-1.951 4.605,-2.661 8.548,-2.121 8.005,1.096 15.087,5.312 21.045,12.534 l 0.804,0.973 -6.376,4.044 -0.608,-0.864 c -1.438,-2.024 -3.056,-2.93 -3.715,-2.84 -0.028,0.076 -0.051,0.186 -0.051,0.356 0,0.187 0.026,0.423 0.109,0.685 l 0.013,0.038 9,37.6 c 0.489,1.975 0.729,3.768 0.729,5.365 0,2.779 -0.73,4.981 -2.202,6.577 C 6.756,-0.283 3.594,0.579 0,0" /></g><g
           transform="translate(400.2607,404.2822)"
           id="g180"><path
             id="path182"
             style="fill:#ffffff;fill-opacity:1;fill-rule:nonzero;stroke:none"
             d="m 0,0 c -24.998,-2.676 -65.521,-11.86 -111.19,-25.193 -44.561,-13.009 -88.303,-28.234 -120.002,-41.763 l -1.19,-0.516 0.462,-1.596 1.169,-0.028 c 12.658,0.079 36.459,-1.405 53.68,-12.182 l 0.616,-0.387 0.597,0.407 c 77.009,51.977 154.248,69.761 176.087,73.972 l 0.888,0.172 0.142,7.25 z" /></g><g
           transform="translate(421.9932,483.3848)"
           id="g184"><path
             id="path186"
             style="fill:#ffffff;fill-opacity:1;fill-rule:nonzero;stroke:none"
             d="m 0,0 v 0 c -14.94,-3.132 -22.991,-13.434 -22.671,-29.011 0.188,-9.168 6.175,-17.112 11.963,-24.793 5.483,-7.275 10.661,-14.152 10.841,-21.621 0.236,-9.579 -2.785,-15.249 -8.982,-16.85 -2.364,-0.608 -5.383,0 -7.695,1.561 -1.671,1.126 -2.773,2.657 -3.248,4.366 5.226,1.614 12.196,6.138 12.196,12.938 0,0.344 -0.017,0.684 -0.052,1.034 -0.28,2.759 -1.362,4.846 -3.206,6.199 -2.316,1.693 -5.387,1.827 -7.489,1.387 -8.148,-1.697 -13.127,-9.498 -11.579,-18.142 2.565,-14.339 16.15,-18.721 27.687,-16.731 8.572,1.481 15.702,5.754 20.08,12.035 4.329,6.207 5.781,14.016 4.196,22.597 -1.673,9.084 -6.674,16.463 -11.515,23.605 -5.425,8 -10.556,15.555 -10.948,25.053 -0.138,3.259 0.78,6.258 2.389,7.824 0.845,0.821 1.832,1.197 2.929,1.123 1.604,-0.114 2.931,-0.949 3.946,-2.492 2.179,-3.325 2.539,-9.487 0.827,-14.343 l -0.128,-0.37 1.016,-2.877 18.15,8.489 -0.089,0.794 C 27.956,-12.242 24.979,-7.063 20.239,-3.632 14.801,0.308 7.615,1.599 0,0" /></g><g
           transform="translate(258.7188,459.8809)"
           id="g188"><path
             id="path190"
             style="fill:#006db5;fill-opacity:1;fill-rule:nonzero;stroke:none"
             d="m 0,0 c -0.359,-5.361 -5.709,-10.608 -11.951,-11.704 -6.246,-1.109 -11.019,2.346 -10.661,7.705 0.353,5.37 5.707,10.611 11.951,11.711 C -4.418,8.821 0.354,5.366 0,0" /></g><g
           transform="translate(215.0557,389.7393)"
           id="g192"><path
             id="path194"
             style="fill:#006db5;fill-opacity:1;fill-rule:nonzero;stroke:none"
             d="m 0,0 2.765,0.651 -5.576,-15.399 c 0,0 -38.165,-10.179 -64.013,-20.904 l 3.245,10.726 c 3.53,1.115 7.26,3.415 8.317,7.05 l 16.163,72.146 -4.422,-1.196 1.349,5.264 27.253,9.606 -17.418,-75.965 c -1.019,-3.99 0.732,-5.541 4.943,-4.533 l 16.888,4.653 C -4.934,-6.1 0,0 0,0" /></g><g
           transform="translate(250.0254,391.2598)"
           id="g196"><path
             id="path198"
             style="fill:#006db5;fill-opacity:1;fill-rule:nonzero;stroke:none"
             d="m 0,0 c -1.431,-1.368 -2.959,-2.252 -4.572,-2.469 -2.821,-0.398 -3.192,3.218 -2.178,7.54 l 11.6,47.53 -24.246,-8.64 -1.253,-4.919 4.004,1.055 -8.786,-33.606 c -2.356,-9.67 0.832,-19.1 13.98,-17.298 5.994,0.824 11.225,3.854 15.706,8.251 z" /></g><g
           transform="translate(320.835,440.9355)"
           id="g200"><path
             id="path202"
             style="fill:#006db5;fill-opacity:1;fill-rule:nonzero;stroke:none"
             d="M 0,0 C 3.529,14.529 -5.212,19.253 -19.742,17.46 -36.495,15.39 -50.197,5.682 -54.028,-9.396 l -5.691,-23.041 c -3.968,-14.432 4.908,-19.354 19.421,-17.461 16.641,2.174 30.376,10.894 33.853,24.396 z m -36.457,-41.981 c -2.421,-0.167 -5.223,1.508 -4.749,3.842 l 10.863,43.388 c 0.632,2.566 4.697,4.388 7.203,4.671 2.187,0.248 6.901,-0.044 6.333,-2.439 l -10.752,-43.47 c -0.902,-3.488 -4.797,-5.699 -8.898,-5.992" /></g><g
           transform="translate(337.3887,461.9688)"
           id="g204"><path
             id="path206"
             style="fill:#006db5;fill-opacity:1;fill-rule:nonzero;stroke:none"
             d="m 0,0 -1.11,-4.62 4.007,1.206 -13.455,-55.107 19.581,4.789 10.869,44.984 c 1.127,4.86 4.087,7.472 7.883,8.77 2.952,1.003 5.465,-0.185 4.824,-2.71 L 25.273,-33.51 c -1.667,-6.704 -6.127,-20.057 7.073,-18.249 9.851,1.349 16.401,7.374 20.336,12.143 l -4.413,2.797 c -1.613,-2.272 -3.719,-3.654 -5.037,-3.246 -0.781,0.248 -0.908,1.407 -0.588,2.424 L 51.63,-0.073 C 54.446,11.329 48.176,13.745 42.746,12.864 36.013,11.78 27.177,7.508 23.023,3.626 l 1.384,5.452 z" /></g><g
           transform="translate(420.459,466.9717)"
           id="g208"><path
             id="path210"
             style="fill:#006db5;fill-opacity:1;fill-rule:nonzero;stroke:none"
             d="M 0,0 C -0.228,5.499 2.313,10.389 6.509,10.099 13.186,9.634 14.798,-1 12.259,-8.218 l 0.471,-1.345 16.316,7.624 C 27.676,10.384 16.175,18.344 1.758,15.324 -13.768,12.071 -20.304,1.115 -20.025,-12.571 -19.666,-29.835 2.39,-42.999 2.783,-58.979 c 0.294,-11.93 -4.469,-16.578 -9.819,-17.963 -4.799,-1.239 -11.788,1.896 -12.562,7.794 5.565,1.347 13.085,6.098 12.372,13.075 -0.699,6.904 -6.716,7.159 -9.355,6.609 -6.699,-1.394 -11.53,-7.642 -10.919,-15.247 -55.729,-7.74 -161.225,-39.397 -223.455,-65.962 17.471,0.109 38.851,-2.694 54.274,-12.349 61.838,41.733 127.851,63.878 170.425,72.9 3.853,-10.271 14.833,-13.848 25.367,-12.03 15.813,2.731 26.705,15.212 23.368,33.328 C 19.015,-29.993 0.775,-18.532 0,0" /></g><g
           transform="translate(247.6699,486.0254)"
           id="g212"><path
             id="path214"
             style="fill:#006db5;fill-opacity:1;fill-rule:nonzero;stroke:none"
             d="m 0,0 c -3.964,-3.064 -6.509,-1.304 -8.386,1.477 l 3.201,2.473 c 1.131,-1.462 2.145,-2.644 3.906,-1.284 1.08,0.836 1.07,1.945 0.267,2.983 -2.13,2.757 -8.707,-2.05 -12.228,2.507 -1.852,2.398 -2.181,5.191 1.72,8.204 3.119,2.408 5.748,2.203 8.01,-1.162 L -6.629,12.79 c -0.885,1.146 -1.975,2.165 -3.269,1.165 -1.039,-0.802 -1.211,-1.851 -0.394,-2.91 C -8.046,8.14 -1.797,13.372 1.921,8.559 4.984,4.592 2.439,1.882 0,0" /></g><g
           transform="translate(255.1396,509.498)"
           id="g216"><path
             id="path218"
             style="fill:#006db5;fill-opacity:1;fill-rule:nonzero;stroke:none"
             d="m 0,0 -0.048,-0.022 2.063,-8.311 3.455,1.716 z m -0.034,-17.457 -3.808,19.71 4.778,2.37 13.307,-14.989 -3.815,-1.895 -2.865,3.362 -4.945,-2.455 0.925,-4.327 z" /></g><g
           transform="translate(272.3721,500.3867)"
           id="g220"><path
             id="path222"
             style="fill:#006db5;fill-opacity:1;fill-rule:nonzero;stroke:none"
             d="M 0,0 -4.249,18.875 2.104,20.302 7.947,8.132 7.998,8.145 8.249,21.686 14.392,23.067 18.64,4.192 14.797,3.328 11.52,17.891 11.467,17.878 11.109,2.499 7.346,1.653 0.618,15.437 0.565,15.426 3.843,0.865 Z" /></g><g
           transform="translate(300.9756,504.3037)"
           id="g224"><path
             id="path226"
             style="fill:#006db5;fill-opacity:1;fill-rule:nonzero;stroke:none"
             d="M 0,0 C -5.012,0.031 -5.93,2.985 -5.696,6.334 L -1.649,6.307 C -1.66,4.458 -1.589,2.905 0.634,2.889 2,2.881 2.675,3.761 2.685,5.075 c 0.019,3.482 -8.123,3.749 -8.087,9.509 0.017,3.028 1.48,5.431 6.41,5.399 3.938,-0.024 5.884,-1.806 5.592,-5.85 L 2.661,14.16 C 2.67,15.605 2.438,17.082 0.804,17.09 -0.512,17.099 -1.292,16.381 -1.3,15.041 -1.323,11.37 6.825,11.641 6.787,5.559 6.757,0.546 3.081,-0.02 0,0" /></g><g
           transform="translate(328.6836,520.4756)"
           id="g228"><path
             id="path230"
             style="fill:#006db5;fill-opacity:1;fill-rule:nonzero;stroke:none"
             d="m 0,0 -2.766,-13.437 c -0.585,-2.834 -2.801,-5.497 -7.63,-4.502 -4.358,0.897 -5.992,3.587 -5.256,7.156 l 2.765,13.436 3.962,-0.815 -2.711,-13.174 c -0.482,-2.337 0.326,-3.461 1.771,-3.758 1.731,-0.355 2.757,0.636 3.189,2.737 l 2.712,13.173 z" /></g><g
           transform="translate(329.2979,500.1494)"
           id="g232"><path
             id="path234"
             style="fill:#006db5;fill-opacity:1;fill-rule:nonzero;stroke:none"
             d="M 0,0 7.839,17.686 12.836,15.472 12.112,1.141 12.161,1.117 17.59,13.364 21.043,11.834 13.205,-5.853 8.329,-3.691 9.237,11.381 9.188,11.402 3.455,-1.531 Z" /></g><g
           transform="translate(361.623,497.4785)"
           id="g236"><path
             id="path238"
             style="fill:#006db5;fill-opacity:1;fill-rule:nonzero;stroke:none"
             d="M 0,0 C 1.077,1.436 1.771,2.888 0.037,4.149 -2,5.631 -4.002,2.879 -6.211,-0.153 c -3.563,-4.896 -3.718,-6.111 -1.852,-7.466 0.541,-0.395 1.22,-0.69 1.844,-0.88 l 2.523,3.467 -1.777,1.293 1.75,2.405 5.048,-3.675 -5.769,-7.929 c -1.016,0.474 -3.499,1.751 -4.8,2.697 -5.503,4.006 -4.477,6.738 -0.154,12.672 2.87,3.944 5.981,7.81 11.332,3.916 3.207,-2.334 3.891,-5.585 1.314,-8.713 z" /></g><g
           transform="translate(270.665,329.0029)"
           id="g240"><path
             id="path242"
             style="fill:#006db5;fill-opacity:1;fill-rule:nonzero;stroke:none"
             d="m 0,0 1.925,-0.612 c 0.63,-0.201 1.639,-0.061 2.063,1.274 0.322,1.01 -0.129,1.973 -1.1,2.281 L 1.115,3.506 Z m -1.915,-6.022 1.601,-0.51 c 0.61,-0.194 1.989,-0.612 2.6,1.313 0.388,1.22 0.167,2.11 -1.281,2.571 l -1.678,0.533 z M -5.467,-7.223 -1.09,6.537 4.018,4.913 C 6.209,4.217 7.82,3.011 6.887,0.076 6.384,-1.507 5.239,-2.4 3.579,-2.209 L 3.567,-2.247 C 5.516,-3.182 5.631,-4.666 5.031,-6.554 3.922,-10.041 0.843,-9.229 -0.377,-8.841 Z" /></g><g
           transform="translate(284.3828,328.6689)"
           id="g244"><path
             id="path246"
             style="fill:#006db5;fill-opacity:1;fill-rule:nonzero;stroke:none"
             d="M 0,0 -0.039,0.008 -2.514,-5.885 0.32,-6.4 Z m -7.813,-10.43 6.52,13.491 3.915,-0.713 1.274,-14.908 -3.129,0.57 -0.214,3.291 -4.054,0.738 -1.379,-3.002 z" /></g><g
           transform="translate(294.4023,315.4814)"
           id="g248"><path
             id="path250"
             style="fill:#006db5;fill-opacity:1;fill-rule:nonzero;stroke:none"
             d="M 0,0 C -3.733,0.215 -4.306,2.451 -4.002,4.938 L -0.987,4.765 C -1.066,3.387 -1.073,2.226 0.584,2.129 1.603,2.07 2.14,2.701 2.196,3.68 c 0.15,2.594 -5.911,3.105 -5.663,7.397 0.129,2.258 1.312,3.991 4.986,3.779 2.935,-0.168 4.317,-1.571 3.943,-4.574 L 2.526,10.451 C 2.589,11.529 2.473,12.637 1.255,12.708 0.276,12.765 -0.334,12.259 -0.392,11.261 -0.55,8.525 5.534,8.414 5.272,3.882 5.058,0.148 2.297,-0.133 0,0" /></g><g
           transform="translate(302.418,315.4727)"
           id="g252"><path
             id="path254"
             style="fill:#006db5;fill-opacity:1;fill-rule:nonzero;stroke:none"
             d="M 0,0 -0.764,14.419 7.105,14.836 7.224,12.618 2.37,12.362 2.558,8.807 7.031,9.043 7.149,6.827 2.675,6.59 2.898,2.376 7.911,2.642 8.028,0.425 Z" /></g><g
           transform="translate(315.8408,318.8672)"
           id="g256"><path
             id="path258"
             style="fill:#006db5;fill-opacity:1;fill-rule:nonzero;stroke:none"
             d="M 0,0 1.657,0.278 C 2.288,0.385 3.705,0.644 3.369,2.636 3.156,3.897 2.554,4.587 1.055,4.335 L -0.681,4.042 Z M -1.05,6.231 0.942,6.566 C 1.594,6.677 2.428,7.265 2.195,8.644 2.02,9.688 1.18,10.339 0.174,10.169 L -1.661,9.86 Z M -2.609,-2.69 -5.008,11.549 0.277,12.438 C 2.546,12.819 4.529,12.484 5.041,9.447 5.316,7.811 4.707,6.491 3.144,5.903 L 3.15,5.864 C 5.311,5.923 6.092,4.656 6.42,2.702 7.029,-0.907 3.919,-1.593 2.656,-1.805 Z" /></g><g
           transform="translate(327.1523,331.0664)"
           id="g260"><path
             id="path262"
             style="fill:#006db5;fill-opacity:1;fill-rule:nonzero;stroke:none"
             d="m 0,0 -0.038,-0.012 0.483,-6.372 2.758,0.832 z m -2.199,-12.845 -0.347,14.98 3.811,1.15 7.927,-12.688 -3.044,-0.92 -1.691,2.831 -3.944,-1.192 0.14,-3.299 z" /></g><g
           transform="translate(338.4014,322.5752)"
           id="g264"><path
             id="path266"
             style="fill:#006db5;fill-opacity:1;fill-rule:nonzero;stroke:none"
             d="M 0,0 -5.684,13.273 -2.907,14.462 1.832,3.394 5.988,5.173 6.932,2.967 Z" /></g><g
           transform="translate(347.2295,326.5273)"
           id="g268"><path
             id="path270"
             style="fill:#006db5;fill-opacity:1;fill-rule:nonzero;stroke:none"
             d="m 0,0 -6.916,12.675 2.65,1.446 L 1.502,3.552 5.47,5.716 6.619,3.61 Z" /></g><g
           transform="translate(355.5205,339.8164)"
           id="g272"><path
             id="path274"
             style="fill:#006db5;fill-opacity:1;fill-rule:nonzero;stroke:none"
             d="m 0,0 c -2.332,3.026 -4.553,5.909 -0.608,8.949 2.44,1.879 4.46,1.289 6.256,-1.239 L 3.304,5.903 C 2.132,7.425 1.423,7.786 0.711,7.237 -0.637,6.2 0.166,4.799 2.424,1.868 4.683,-1.063 5.834,-2.196 7.181,-1.159 8.289,-0.305 7.143,1.085 6.479,2.012 L 8.84,3.832 C 11.195,0.774 10.732,-1.148 8.499,-2.87 4.554,-5.91 2.309,-2.994 0,0" /></g><g
           transform="translate(369.333,341.6396)"
           id="g276"><path
             id="path278"
             style="fill:#006db5;fill-opacity:1;fill-rule:nonzero;stroke:none"
             d="M 0,0 -9.962,10.455 -7.775,12.537 0.531,3.82 3.804,6.939 5.459,5.2 Z" /></g><g
           transform="translate(371.5078,365.1465)"
           id="g280"><path
             id="path282"
             style="fill:#006db5;fill-opacity:1;fill-rule:nonzero;stroke:none"
             d="m 0,0 7.836,-6.592 c 1.653,-1.391 2.613,-3.793 0.243,-6.608 -2.137,-2.54 -4.482,-2.657 -6.564,-0.906 l -7.836,6.591 1.944,2.311 7.683,-6.463 c 1.362,-1.146 2.386,-1.016 3.095,-0.173 0.85,1.009 0.563,2.036 -0.662,3.066 l -7.682,6.463 z" /></g><g
           transform="translate(384.2881,362.248)"
           id="g284"><path
             id="path286"
             style="fill:#006db5;fill-opacity:1;fill-rule:nonzero;stroke:none"
             d="M 0,0 0.911,1.411 C 1.258,1.948 2.023,3.169 0.326,4.266 -0.75,4.96 -1.665,4.979 -2.49,3.702 L -3.445,2.225 Z m -5.31,3.429 1.097,1.696 c 0.358,0.556 0.486,1.566 -0.689,2.326 -0.891,0.575 -1.937,0.395 -2.49,-0.463 L -8.401,5.426 Z m 5.537,-7.17 -12.131,7.836 2.907,4.501 c 1.249,1.931 2.833,3.171 5.421,1.498 1.394,-0.901 1.958,-2.24 1.337,-3.791 L -2.206,6.281 C -0.793,7.916 0.67,7.637 2.334,6.563 5.408,4.578 3.818,1.819 3.123,0.744 Z" /></g></g></g></g></svg>