<?xml version="1.0" encoding="UTF-8" standalone="no"?>
<svg
   xml:space="preserve"
   id="레이어_1"
   x="0px"
   y="0px"
   version="1.1"
   viewBox="0 0 560.6972 330.65427"
   sodipodi:docname="landers_newlogo.svg"
   width="560.6972"
   height="330.65427"
   inkscape:version="1.1.2 (b8e25be833, 2022-02-05)"
   xmlns:inkscape="http://www.inkscape.org/namespaces/inkscape"
   xmlns:sodipodi="http://sodipodi.sourceforge.net/DTD/sodipodi-0.dtd"
   xmlns="http://www.w3.org/2000/svg"
   xmlns:svg="http://www.w3.org/2000/svg"><defs
     id="defs51" /><sodipodi:namedview
     id="namedview49"
     pagecolor="#ffffff"
     bordercolor="#666666"
     borderopacity="1.0"
     inkscape:pageshadow="2"
     inkscape:pageopacity="0.0"
     inkscape:pagecheckerboard="0"
     showgrid="false"
     inkscape:zoom="0.98743621"
     inkscape:cx="440.02842"
     inkscape:cy="168.11213"
     inkscape:window-width="1366"
     inkscape:window-height="705"
     inkscape:window-x="-8"
     inkscape:window-y="-8"
     inkscape:window-maximized="1"
     inkscape:current-layer="레이어_1" /><style
     id="style2">.st0{fill:#d5d5d6}.st1{fill:#cf0022}.st2{fill:#fff}.st3{fill:#970022}.st4{fill:#fac109}</style><g
     id="g179"
     transform="scale(1.2982107)"
     style="stroke-width:0.770291"
     inkscape:export-filename="ssglandersnewlogobitmap.png"
     inkscape:export-xdpi="96"
     inkscape:export-ydpi="96"><path
       d="m 408.2,141.8 c 2.2,-3.1 3.8,-6.7 4.8,-10.4 l 2.2,-8.3 c 0.8,-3 1.2,-6.1 1.2,-9.1 0,-2 -0.2,-4 -0.6,-5.9 l 3.5,-0.3 9.1,-34 L 412,54.3 349.2,59.8 C 345.6,55.4 341.6,51.1 337.3,47.1 335.6,28.6 320,14 301,14 c -4.5,0 -8.7,0.8 -12.7,2.3 C 263.4,5.9 234.6,0 203.8,0 150,0 102,18.1 71.4,46.2 L 11.1,51.6 40.3,78 0,228.4 17.8,247.8 135.4,226.7 c 20.9,6.7 44,10.4 68.4,10.4 42.2,0 80.8,-11.1 110.3,-29.5 l 8.3,47.1 32.7,-73.6 76.8,-33.9 z"
       class="st0"
       id="path4"
       style="stroke-width:0.770291" /><path
       d="m 422.5,75.2 -12.8,-15.3 -62.9,5.5 c -4.3,-5.6 -9.3,-11 -14.8,-16 -0.5,-16.7 -14.2,-30.1 -31.1,-30.1 -4.5,0 -8.8,1 -12.7,2.7 C 263.6,11.5 234.7,5.4 203.8,5.4 150.4,5.4 103,23.5 73.5,51.4 L 23.7,55.9 46.2,76.3 5.9,226.9 19.8,242 l 116,-20.8 c 20.7,6.7 43.8,10.5 68.1,10.5 44.5,0 84.9,-12.6 114.2,-33 l 6.7,37.8 L 351.2,177 415,148.8 398.1,145 c 4.6,-3.8 8.2,-9.1 9.7,-15 l 2.2,-8.3 c 0.7,-2.6 1,-5.2 1,-7.7 0,-2.7 -0.5,-5.3 -1.3,-7.7 -0.3,-1 -0.8,-2 -1.2,-2.9 l 6.6,-0.6 z"
       class="st1"
       id="path6"
       style="stroke-width:0.770291" /><path
       d="m 307.5,185.5 c -20.2,13.8 -45.4,23 -72.9,27 13.9,-5.1 26.8,-11.6 38.3,-19.4 0.7,-0.5 1.5,-1 2.2,-1.5 l -23.2,4.1 c -25.7,13.2 -57.6,21 -92.3,21 -3.3,0 -6.6,-0.1 -9.8,-0.2 16.8,4.3 35,6.7 53.9,6.7 44.5,0 84.5,-12.9 112.5,-33.5 l -1.7,-9.4 c -2.1,1.7 -4.5,3.5 -7,5.2 z"
       class="st2"
       id="path8"
       style="stroke-width:0.770291" /><path
       d="m 20.2,223.2 4.3,4.8 297.4,-52.9 -0.9,-5.3 z m 321.2,-56 -14.9,33.5 4.1,4.1 14.9,-33.5 32.6,-14.4 -4.1,-4.1 z m 62.7,-93.9 -3.4,12.5 -21.7,1.9 c -0.9,0.1 -1.8,0.9 -2,1.8 l -2.4,8.8 c -0.2,0.9 0.3,1.6 1.1,1.5 l 4.1,-0.4 1.4,-5.2 c 0.2,-0.9 0.9,-1.3 1.6,-1.4 l 22,-1.9 3.4,-12.5 z m -135.3,57.4 4.1,-0.4 1.7,-6.5 29.1,-2.5 5.1,-19.1 c 0.4,-1.5 0.6,-2.9 0.6,-4.2 0,-1.3 -0.2,-2.6 -0.6,-3.7 -0.4,-1.1 -0.9,-2.1 -1.7,-3 -0.7,-0.8 -3.3,-3.9 -4.1,-4.8 2,2.6 2.7,6.4 1.5,10.7 l -5.1,19.1 -29.1,2.5 -2.8,10.4 c -0.1,0.9 0.4,1.6 1.3,1.5 z"
       class="st3"
       id="path10"
       style="stroke-width:0.770291" /><path
       d="m 339.1,96.6 19.1,-1.7 2.9,-11 c 0.1,-0.5 0.3,-0.9 0.5,-1.4 l -4.4,-5.2 -3.3,12.5 -18.6,1.6 c -0.9,0.1 -1.8,0.9 -2,1.8 l -12.1,45.1 -17.7,1.6 1.6,-5.9 -5.1,6.3 -38.8,3.4 c -5.9,0.5 -10.1,-2.5 -11.2,-7.4 l -7.4,9.1 -10.7,0.9 c -2.7,0.2 -4.9,-0.5 -6.2,-2 -1.2,1.6 -3.1,2.8 -4.9,2.9 l -17,1.5 c -5.9,0.5 -10.1,-2.5 -11.2,-7.4 l -7.4,9.1 -9.7,0.9 c -4,0.3 -7.2,-0.9 -9.2,-3.3 0.8,1 3.4,4.1 4.1,4.9 0.7,0.8 1.5,1.5 2.4,2.1 0.9,0.5 2,1 3.1,1.2 1.2,0.2 2.4,0.3 3.8,0.2 l 8.2,-0.7 7.5,-9.2 c 1.1,1.3 2.8,3.3 3.3,3.9 0.7,0.8 1.5,1.5 2.4,2.1 0.9,0.5 2,1 3.1,1.2 1.2,0.2 2.4,0.3 3.8,0.2 l 17,-1.5 c 1.8,-0.2 3.7,-1.3 4.9,-2.9 1.3,1.4 3.4,2.2 6.2,2 l 9.2,-0.8 7.5,-9.2 c 1.1,1.3 2.8,3.3 3.3,3.9 0.7,0.8 1.5,1.5 2.4,2.1 0.9,0.5 2,1 3.1,1.2 1.2,0.2 2.4,0.3 3.8,0.2 l 38.8,-3.4 1.7,-2.1 1.8,1.8 17.7,-1.6 12.2,-45.5 c 0.2,-0.9 0.9,-1.4 1.5,-1.5 z m 56.8,10.9 c -0.7,-0.8 -3.3,-3.9 -4.1,-4.8 2,2.6 2.7,6.4 1.5,10.7 l -3.2,12 c -1,3.9 -4.8,7.4 -8.3,7.7 l -39.1,3.4 1.7,9.7 5.7,1.3 -1.1,-6.1 33.2,-2.9 c 5.8,-0.5 11.4,-5.6 13,-11.7 l 2.2,-8.3 c 0.4,-1.5 0.6,-2.9 0.6,-4.2 0,-1.3 -0.2,-2.6 -0.6,-3.7 -0.3,-1.2 -0.8,-2.2 -1.5,-3.1 z"
       class="st3"
       id="path12"
       style="stroke-width:0.770291" /><path
       d="m 340.6,124.4 5.4,-0.4 -0.4,-2.1 -6.6,-6.6 z m 19,-17.5 c 0.7,0.9 3.5,4.1 4.2,5 0.7,0.8 1.5,1.5 2.4,2.1 0.9,0.5 2,1 3.1,1.2 1.2,0.2 2.4,0.3 3.8,0.2 l 2.5,-0.2 1.1,-3.9 c 0.2,-0.9 -0.3,-1.6 -1.1,-1.5 l -6.6,0.6 c -4.2,0.2 -7.4,-1.1 -9.4,-3.5 z m -119.2,26.3 4.1,-0.4 21.5,-80.3 -4.2,-5 -22.6,84.2 c -0.2,0.9 0.3,1.6 1.2,1.5 z m 39.7,-29.9 c 0.2,-0.9 1.1,-1.7 2,-1.8 l 4,-0.4 1.1,-3.9 c 0.2,-0.9 -0.3,-1.6 -1.1,-1.5 l -8.2,0.7 c -0.9,0.1 -1.8,0.9 -2,1.8 l -2.8,10.4 5.7,-0.5 z M 87.8,68.5 83.6,63.4 53.1,177.2 l 5.7,-0.5 z m 23.1,85.8 c -1.2,1.6 -3.1,2.8 -4.9,2.9 l -17,1.5 c -3.8,0.3 -7,-0.8 -9,-3.1 l 3.9,4.7 c 0.7,0.8 1.5,1.5 2.4,2.1 0.9,0.5 2,1 3.1,1.2 1.2,0.2 2.4,0.3 3.8,0.2 l 17,-1.5 c 1.8,-0.2 3.7,-1.3 4.9,-2.9 1.3,1.4 3.4,2.2 6.2,2 l 10.7,-0.9 1.9,-2.3 1.6,2 17.7,-1.6 12.5,-46.7 5.6,-0.5 1.1,-3.9 c 0.2,-0.9 -0.3,-1.6 -1.1,-1.5 l -9.7,0.9 -12.6,46.5 -17.7,1.6 1.6,-5.9 -5.1,6.2 -10.7,0.9 c -2.8,0.3 -5,-0.5 -6.2,-1.9 z m 3.1,-38 1.1,-3.9 c 0.2,-0.9 -0.3,-1.6 -1.1,-1.5 l -27.5,2.4 4.2,5 z"
       class="st3"
       id="path14"
       style="stroke-width:0.770291" /><path
       d="m 96.6,145.8 4.1,-0.4 1.5,-5.4 c 0.2,-0.9 1.1,-1.7 2,-1.8 l 4,-0.4 1.5,-5.5 -9.7,0.9 c -0.9,0.1 -1.8,0.9 -2,1.8 l -2.5,9.4 c -0.3,0.8 0.2,1.5 1.1,1.4 z m 114.8,-10.1 4.1,-0.4 7.2,-27 c 0.2,-0.9 1.1,-1.7 2,-1.8 l 4,-0.4 1.5,-5.5 -9.7,0.9 c -0.9,0.1 -1.8,0.9 -2,1.8 l -8.3,30.9 c -0.2,0.9 0.3,1.6 1.2,1.5 z m -85.8,7.5 4.1,-0.4 6.9,-25.6 c 0.4,-1.5 0.6,-2.9 0.6,-4.2 0,-1.3 -0.2,-2.6 -0.6,-3.7 -0.4,-1.1 -0.9,-2.1 -1.7,-3 -0.7,-0.8 -3.3,-3.9 -4.1,-4.8 2,2.6 2.7,6.4 1.5,10.7 l -7.9,29.5 c -0.2,0.9 0.3,1.6 1.2,1.5 z m 57.4,-5 4.1,-0.4 6.9,-25.6 c 0.4,-1.5 0.6,-2.9 0.6,-4.2 0,-1.3 -0.2,-2.6 -0.6,-3.7 -0.4,-1.1 -0.9,-2.1 -1.7,-3 -0.7,-0.8 -3.3,-3.9 -4.1,-4.8 2,2.6 2.7,6.4 1.5,10.7 l -7.9,29.5 c -0.2,0.9 0.3,1.6 1.2,1.5 z"
       class="st3"
       id="path16"
       style="stroke-width:0.770291" /><path
       d="m 377,89.5 c 0.2,-0.9 1.1,-1.7 2,-1.8 l 21.7,-1.9 3.4,-12.5 -34.6,3 c -3.6,0.3 -7.3,3.8 -8.3,7.7 L 358,96 c -2.3,8.6 2.6,15 10.9,14.2 l 6.6,-0.6 c 0.9,-0.1 1.4,0.6 1.1,1.5 l -2.4,8.8 c -0.2,0.9 -1.1,1.7 -2,1.8 l -31.7,2.8 -1.6,-9.2 -14.9,33.5 -13.3,5.9 -257.6,22.5 30.5,-113.8 -32.4,2.9 8.9,8.1 -39.9,148.8 300.8,-53.4 5.5,30.9 14.9,-33.5 32.7,-14.4 -29.6,-6.6 -1.7,-9.7 39.1,-3.4 c 3.6,-0.3 7.3,-3.8 8.3,-7.7 l 3.2,-12 c 2.3,-8.6 -2.6,-15 -10.9,-14.3 l -6.6,0.6 c -0.9,0.1 -1.4,-0.6 -1.1,-1.5 z"
       class="st2"
       id="path18"
       style="stroke-width:0.770291" /><circle
       cx="300.89999"
       cy="50.400002"
       r="25.700001"
       class="st2"
       id="circle20"
       style="stroke-width:0.770291" /><path
       d="m 285.3,29.9 c -23.6,-10.1 -51.5,-16 -81.5,-16 -10.8,0 -21.3,0.8 -31.4,2.2 40.6,1.8 76.9,14.4 102.8,33.7 0.2,-8.1 4.1,-15.3 10.1,-19.9 z m 68.6,60 3.3,-12.5 -31.4,2.8 c -3.6,0.3 -7.3,3.8 -8.3,7.7 l -10.6,39.6 -38.1,3.3 c -0.9,0.1 -1.4,-0.6 -1.1,-1.5 l 2.8,-10.4 29.1,-2.5 5.1,-19.1 C 307,88.7 302.1,82.3 293.8,83 l -25.3,2.2 c -3.6,0.3 -7.3,3.8 -8.3,7.7 l -9.8,36.6 c -0.3,1 -0.4,2 -0.5,3 l -9.3,0.8 c -0.9,0.1 -1.4,-0.6 -1.1,-1.5 l 22.6,-84.2 -29.1,2.6 8.9,8.1 -8,30 -22.6,2 c -3.6,0.3 -7.3,3.8 -8.3,7.7 l -9.8,36.6 c -0.3,1 -0.4,2 -0.5,3 l -9.3,0.8 c -0.9,0.1 -1.4,-0.6 -1.1,-1.5 l 7.9,-29.5 c 2.3,-8.6 -2.6,-15 -10.9,-14.3 l -31.7,2.8 -12.5,46.7 -9.1,0.8 c -0.9,0.1 -1.4,-0.6 -1.1,-1.5 l 7.9,-29.5 c 2.3,-8.6 -2.6,-15 -10.9,-14.3 l -31.7,2.8 -3.4,12.5 27.5,-2.4 c 0.9,-0.1 1.4,0.6 1.1,1.5 l -2.6,9.8 -22.4,2 c -3.6,0.3 -7.4,3.6 -8.4,7.4 l -3.4,12.9 c -2.3,8.6 2.6,15 10.9,14.3 l 17,-1.5 c 1.8,-0.2 3.7,-1.3 4.9,-2.9 1.3,1.4 3.4,2.2 6.2,2 l 10.7,-0.9 5.1,-6.2 -1.6,5.9 17.7,-1.6 12.5,-46.7 9.7,-0.9 c 0.9,-0.1 1.4,0.6 1.1,1.5 l -7.9,29.5 c -2.3,8.6 2.6,15 10.9,14.3 l 9.7,-0.9 7.4,-9.1 c 1.1,4.9 5.3,7.9 11.2,7.4 l 17,-1.5 c 1.8,-0.2 3.7,-1.3 4.9,-2.9 1.3,1.4 3.4,2.2 6.2,2 l 10.7,-0.9 7.4,-9.1 c 1.1,4.9 5.3,7.9 11.2,7.4 l 38.8,-3.4 5.1,-6.3 -1.6,5.9 17.7,-1.6 12.1,-45.1 c 0.2,-0.9 1.1,-1.7 2,-1.8 z m -78,8.4 c 0.2,-0.9 1.1,-1.7 2,-1.8 l 8.2,-0.7 c 0.9,-0.1 1.4,0.6 1.1,1.5 l -2.8,10.4 -11.3,1 z m -169.2,45 c -0.2,0.9 -1.1,1.7 -2,1.8 l -8.2,0.7 c -0.9,0.1 -1.4,-0.6 -1.1,-1.5 l 2.5,-9.4 c 0.2,-0.9 1.1,-1.7 2,-1.8 l 9.7,-0.9 z m 114.8,-10 c -0.2,0.9 -1.1,1.7 -2,1.8 l -8.2,0.7 c -0.9,0.1 -1.4,-0.6 -1.1,-1.5 l 8.3,-30.9 c 0.2,-0.9 1.1,-1.7 2,-1.8 l 9.7,-0.9 z"
       class="st2"
       id="path22"
       style="stroke-width:0.770291" /><path
       d="m 92.8,152.2 c -4.6,0.4 -7.3,-3.1 -6,-7.9 l 3,-11.1 c 0.3,-1.2 1.1,-2.3 2,-3.1 l -7,-3.6 c -1.5,1.3 -2.7,3.1 -3.2,5 l -3.4,12.9 c -2.3,8.6 2.6,15 10.9,14.3 l 17,-1.5 c 1.8,-0.2 3.7,-1.3 4.9,-2.9 1.3,1.4 3.4,2.2 6.2,2 l 10.5,-0.9 -2.4,-5.9 z m 61.6,-51 -7.2,-5.5 -15.9,59.3 17.7,-1.6 -7.2,-5.5 z m 78.4,-51.1 8.9,8 -8.1,30.1 7.2,5.5 10.4,-38.8 z m 59.1,61.9 -29,2.5 7.5,4.3 29.1,-2.5 z m 28.8,-29.4 c -1.5,1.4 -2.7,3.2 -3.2,5.2 l -14,52.1 17.7,-1.6 -7.2,-5.5 11.3,-42.3 c 0.3,-1.2 1.1,-2.3 2,-3.2 z m 9.9,3.2 c -1.1,0.1 -2.2,0.7 -3.2,1.5 l 6.7,4.7 c 0.4,-0.3 0.8,-0.5 1.2,-0.6 l 18.6,-1.6 -5.6,-5.6 z m -147.9,58.6 -3.5,0.3 c -4.6,0.4 -7.3,-3.1 -6,-7.9 l 7.9,-29.5 c 1.3,-4.7 -1.4,-8.3 -6,-7.9 l -20.7,1.8 7.2,5.5 9.7,-0.9 c 0.9,-0.1 1.4,0.6 1.1,1.5 l -7.9,29.5 c -2.3,8.6 2.6,15 10.9,14.3 l 9.7,-0.9 z"
       class="st0"
       id="path24"
       style="stroke-width:0.770291" /><path
       d="m 119.9,126.5 -25,2.2 c -1.1,0.1 -2.3,0.7 -3.2,1.5 l 7,3.6 c 0.4,-0.3 0.8,-0.5 1.2,-0.6 l 9.7,-0.9 -2.9,11 c -0.1,0.4 -0.4,0.9 -0.8,1.2 l 5.2,6.1 c 1.3,-0.1 2.6,-1.3 2.9,-2.6 z m -2.2,-22.1 -22.3,1.9 -5.6,-5.6 -3.4,12.5 27.5,-2.4 c 0.9,-0.1 1.4,0.6 1.1,1.5 l -2.6,9.8 7.5,4.3 3.8,-14.2 c 1.3,-4.6 -1.4,-8.2 -6,-7.8 z m 172.2,-15 -16.7,1.5 c -1.1,0.1 -2.2,0.7 -3.2,1.5 l 6.7,4.7 c 0.4,-0.3 0.8,-0.5 1.2,-0.6 l 8.2,-0.7 c 0.9,-0.1 1.4,0.6 1.1,1.5 l -2.8,10.4 7.5,4.3 4,-14.8 c 1.3,-4.7 -1.4,-8.2 -6,-7.8 z M 395.1,80.2 374.2,82 c -1.1,0.1 -2.2,0.7 -3.2,1.5 l 6.7,4.7 c 0.4,-0.3 0.8,-0.5 1.2,-0.6 l 21.7,-1.9 z"
       class="st0"
       id="path26"
       style="stroke-width:0.770291" /><path
       d="m 361.2,84 c 0.5,-2 1.7,-3.8 3.2,-5.2 l 6.7,4.7 c -0.9,0.9 -1.7,2 -2,3.2 l -2.8,10.4 c -1.3,4.7 1.4,8.3 6,7.9 l 6.6,-0.6 c 4.6,-0.4 7.3,3.1 6,7.9 l -2.8,10.4 c -0.3,1.2 -1.1,2.3 -2,3.2 l -6.7,-4.7 c 0.4,-0.3 0.6,-0.7 0.8,-1.2 l 2.4,-8.8 c 0.2,-0.9 -0.3,-1.6 -1.1,-1.5 l -6.6,0.6 C 360.6,111 355.7,104.7 358,96.1 L 361.2,84 c 0.5,-2 1.7,-3.8 3.2,-5.2"
       class="st0"
       id="path28"
       style="stroke-width:0.770291" /><path
       d="m 380.2,125.8 c -0.9,0.9 -2.1,1.4 -3.2,1.5 l -29.7,2.6 -6.8,-5.5 2.1,12.1 39.1,-3.4 c 1.8,-0.2 3.6,-1.1 5.1,-2.5 z m -140.1,13.5 -32.5,2.8 c -4.6,0.4 -7.3,-3.1 -6,-7.9 l 9,-33.7 c 0.3,-1.2 1.1,-2.3 2,-3.2 l -6.7,-4.7 c -1.5,1.4 -2.7,3.2 -3.2,5.2 l -9.8,36.6 c -2.3,8.6 2.6,15 10.9,14.3 l 17,-1.5 c 1.8,-0.2 3.7,-1.3 4.9,-2.9 1.3,1.4 3.4,2.2 6.2,2 l 10.7,-0.9 z m 57.4,-5 -32.5,2.8 c -4.6,0.4 -7.3,-3.1 -6,-7.9 l 9,-33.7 c 0.3,-1.2 1.1,-2.3 2,-3.2 l -6.7,-4.7 c -1.5,1.4 -2.7,3.2 -3.2,5.2 l -9.8,36.6 c -2.3,8.6 2.6,15 10.9,14.3 l 38.8,-3.4 z"
       class="st0"
       id="path30"
       style="stroke-width:0.770291" /><path
       d="m 321,169.8 -14.3,-3.2 -272.8,44 37.2,-139 -19.9,-5.3 8.9,8.1 -39.9,148.8 z"
       class="st0"
       id="path32"
       style="stroke-width:0.770291" /><path
       d="m 215.8,95.9 c -1.1,0.1 -2.2,0.7 -3.2,1.5 l 6.7,4.7 c 0.4,-0.3 0.8,-0.5 1.2,-0.6 l 9.7,-0.9 -8.7,32.5 c -0.1,0.4 -0.4,0.9 -0.8,1.2 l 5.2,6.1 c 1.3,-0.1 2.6,-1.3 2.9,-2.6 l 11.9,-44.3 z"
       class="st0"
       id="path34"
       style="stroke-width:0.770291" /><path
       d="m 340.7,150 -3.7,-21 -10.1,22.7 -15.6,6.9 -264.5,29.7 9.8,8.9 252.8,-34.6 15.4,3.4 3.7,21 10.1,-22.7 22.2,-9.8 z"
       class="st4"
       id="path36"
       style="stroke-width:0.770291" /><path
       d="m 334.7,144.4 2.6,9 8.6,2.9 -9.8,5.3 -5.3,10 -2.6,-9.1 -8.6,-2.9 9.8,-5.2 z"
       style="fill:#004537;stroke-width:0.770291"
       id="path38" /><path
       d="m 280.4,34.8 c -12.4,-5.1 -25.8,-9 -39.9,-11.4 13.1,5.1 25.2,11.5 35.9,19.1 0.9,-2.8 2.3,-5.4 4,-7.7 z"
       class="st4"
       id="path40"
       style="stroke-width:0.770291" /><path
       d="m 306.5,68.3 c -13,0 -23.5,-10.5 -23.5,-23.5 0,-7.6 3.6,-14.4 9.2,-18.7 -9.9,3.6 -17,13.1 -17,24.2 0,14.2 11.5,25.7 25.7,25.7 11.1,0 20.6,-7.1 24.2,-17 -4.3,5.7 -11,9.3 -18.6,9.3 z"
       class="st0"
       id="path42"
       style="stroke-width:0.770291" /><path
       d="m 307.4,59.2 -1.5,-3.4 -1.1,1.3 1.3,3 -1,1.1 3.8,1.5 1,-1.2 -3.3,-1.4 z m 3.6,-3.5 -0.7,-3.6 -1.4,1.1 0.7,3.1 -1.2,1 3.4,2.2 1.3,-1 -3,-2 z m 4.3,-2.6 -0.1,-3.7 -1.4,0.7 v 3.3 l -1.4,0.7 2.9,2.8 1.5,-0.8 -2.6,-2.5 z m 4.7,-1.8 0.7,-3.6 -1.6,0.4 -0.6,3.2 -1.5,0.4 2.2,3.3 1.6,-0.4 -2,-3 z m 5,-0.8 1.3,-3.4 -1.6,0.1 -1.2,3 -1.6,0.1 1.6,3.7 1.6,-0.1 -1.3,-3.3 z m -20.5,12.8 -2.1,-3 -0.8,1.5 1.8,2.6 -0.7,1.4 3.9,0.7 0.8,-1.5 -3.5,-0.6 z m -2,4.6 -2.7,-2.5 -0.5,1.6 2.4,2.2 -0.5,1.5 4,-0.1 0.5,-1.6 -3.6,0.1 z m -1.1,4.9 -3.1,-1.9 -0.2,1.6 2.7,1.7 -0.1,1.6 3.9,-0.9 0.2,-1.6 -3.5,0.7 z m -5,-34.1 -3.7,-1.5 -1,1.3 3.3,1.4 -0.8,0.9 1.5,3.3 1.1,-1.2 -1.4,-3 z m -6.6,1.8 -1.3,1 3,2 -1,0.7 0.8,3.6 1.3,-1 -0.7,-3.2 1.3,-0.9 z m -3.5,2.6 -1.5,0.7 2.6,2.6 -1.1,0.5 v 3.7 l 1.5,-0.8 v -3.2 l 1.4,-0.7 z m -3.9,1.8 -1.7,0.5 2,3 -1.1,0.3 -0.7,3.6 1.6,-0.4 0.6,-3.2 1.5,-0.4 z m -4,1.1 -1.7,0.1 1.4,3.3 -1.2,0.1 -1.4,3.4 1.7,-0.1 1.2,-3 1.5,-0.1 z m 20.8,-6.3 0.8,-1.5 -1.9,-2.6 0.8,-1.4 -3.9,-0.7 -0.9,1.4 3.6,0.7 -0.6,1.1 z m -0.2,-7.3 2.7,2.6 0.5,-1.6 -2.4,-2.3 0.5,-1.4 h -4 l -0.5,1.6 h 3.6 z m 1.2,-4.6 3.1,1.9 0.2,-1.6 -2.8,-1.7 0.2,-1.6 -3.9,0.9 -0.2,1.6 3.5,-0.7 z"
       class="st1"
       id="path44"
       style="stroke-width:0.770291" /><path
       d="m 99.7,75.1 4.2,-5.1 c 2.9,2.4 6,4 9.7,4 2.9,0 4.7,-1.2 4.7,-3.1 v -0.1 c 0,-1.8 -1.1,-2.7 -6.6,-4.1 -6.6,-1.7 -10.8,-3.5 -10.8,-10 v -0.1 c 0,-5.9 4.7,-9.8 11.4,-9.8 4.7,0 8.8,1.5 12.1,4.1 l -3.7,5.4 c -2.9,-2 -5.7,-3.2 -8.5,-3.2 -2.7,0 -4.2,1.3 -4.2,2.8 V 56 c 0,2.1 1.4,2.8 7,4.3 6.6,1.7 10.3,4.1 10.3,9.8 v 0.1 c 0,6.5 -4.9,10.1 -12,10.1 -4.7,0 -9.7,-1.7 -13.6,-5.2 z m 27.8,0 4.2,-5.1 c 2.9,2.4 6,4 9.7,4 2.9,0 4.7,-1.2 4.7,-3.1 v -0.1 c 0,-1.8 -1.1,-2.7 -6.6,-4.1 -6.6,-1.7 -10.8,-3.5 -10.8,-10 v -0.1 c 0,-5.9 4.7,-9.8 11.4,-9.8 4.7,0 8.8,1.5 12.1,4.1 l -3.7,5.4 c -2.9,-2 -5.7,-3.2 -8.5,-3.2 -2.8,0 -4.2,1.3 -4.2,2.8 V 56 c 0,2.1 1.4,2.8 7,4.3 6.6,1.7 10.3,4.1 10.3,9.8 v 0.1 c 0,6.5 -4.9,10.1 -12,10.1 -4.7,0 -9.7,-1.7 -13.6,-5.2 z m 28.6,-11.5 c 0,-9.3 7.2,-16.9 17.1,-16.9 5.9,0 9.4,1.6 12.8,4.5 l -4.5,5.4 c -2.5,-2.1 -4.7,-3.3 -8.5,-3.3 -5.2,0 -9.3,4.6 -9.3,10.1 v 0.1 c 0,6 4.1,10.3 9.9,10.3 2.6,0 4.9,-0.7 6.7,-2 V 67.1 H 173 v -6.2 h 14.1 V 75 c -3.3,2.8 -8,5.2 -13.9,5.2 -10.1,0.2 -17.1,-6.9 -17.1,-16.6 z"
       class="st2"
       id="path46"
       style="stroke-width:0.770291" /></g></svg>
